<?xml version="1.0" standalone="no"?>
<!DOCTYPE svg PUBLIC "-//W3C//DTD SVG 1.1//EN" "http://www.w3.org/Graphics/SVG/1.1/DTD/svg11.dtd" >
<svg>
<metadata>
Created by FontForge 20090914 at Thu Sep 30 21:30:06 2021
 By www-data
&#194;&#169; Pete Klassen, 2004 - http://www.thehutt.de/
</metadata>
<defs>
<font id="Aniron-Bold" horiz-adv-x="319" >
  <font-face 
    font-family="Aniron"
    font-weight="700"
    font-stretch="normal"
    units-per-em="1000"
    panose-1="2 0 6 7 0 0 0 2 0 2"
    ascent="800"
    descent="-200"
    x-height="612.002"
    cap-height="930.001"
    bbox="-74.001 -559.999 1930 1441"
    underline-thickness="20"
    underline-position="-123"
    unicode-range="U+0020-U+2122"
  />
<missing-glyph horiz-adv-x="500" 
d="M138 81h224v636h-224v-636zM58 0v797h384v-797h-384z" />
    <glyph glyph-name=".notdef" horiz-adv-x="500" 
d="M138 81h224v636h-224v-636zM58 0v797h384v-797h-384z" />
    <glyph glyph-name="space" unicode=" " horiz-adv-x="530" 
 />
    <glyph glyph-name="exclam" unicode="!" 
d="M227 53c0 -18.667 -11.001 -34.333 -33.001 -47h1c-17.333 -12 -33.333 -18 -48 -18c-5.33301 0 -12.666 2.33301 -21.999 7s-21 11.667 -35 21c-29.333 19.333 -44 36 -44 50c0 40.667 29.333 61 88 61c62 0 93 -24.667 93 -74zM225.999 201.001
c0 -11.333 -3.1709 -18.1689 -9.50391 -20.502s-18.166 -4.16602 -35.499 -5.49902c-2 0 -4.33301 -0.166992 -7 -0.5s-5.66699 -0.833008 -9 -1.5c-5.33301 -0.666992 -10.166 -1 -14.499 -1s-8.16602 -0.333008 -11.499 -1c-6 -0.666992 -10.667 0.333008 -14 3
s-5.66602 5.33398 -6.99902 8.00098v-13c-20.667 0 -33 6 -37 18c-4.66699 11.333 -7 20.333 -7 27v85v5c0 3.33301 0.333008 6 1 8c1.33301 4 2 7 2 9c-0.666992 4 -1.16699 8.16699 -1.5 12.5s-0.833008 8.16602 -1.5 11.499v4c0 2 -0.333008 5 -1 9v43
c-0.666992 4 -1 7.66699 -1 11v6l-1 35c-0.666992 8.66699 -1.5 17.167 -2.5 25.5s-1.83301 17.166 -2.5 26.499c-5.33301 35.333 -9 64.333 -11 87s-2.33301 38.334 -1 47.001c2 9.33301 15.333 16.666 40 21.999c8 1.33301 14.833 2.33301 20.5 3s10.5 1 14.5 1
c10.667 0 24 -2 40 -6c12 -3.33301 21.167 -6.83301 27.5 -10.5s9.5 -9.16699 9.5 -16.5l-15 -166l-18 1c2 -0.666992 5.33301 -2.83398 10 -6.50098s6.66699 -8.83398 6 -15.501c-0.666992 -7.33301 -1 -13.333 -1 -18v-12v-18
c0 -1.33301 -0.166992 -2.16602 -0.5 -2.49902s-0.5 -0.833008 -0.5 -1.5v-1v-101c0.666992 -1.33301 1 -2.5 1 -3.5s0.333008 -2.5 1 -4.5c0 -1.33301 0.166992 -2.33301 0.5 -3s0.5 -1.66699 0.5 -3s0.333008 -2.66602 1 -3.99902v-27c0 -6 1 -12 3 -18
c0.666992 -1.33301 1.5 -3.16602 2.5 -5.49902s1.16699 -3.5 0.5 -3.5c0.666992 0 2 -0.166992 4 -0.5s4.66699 -0.833008 8 -1.5c7.33301 -2.66699 12 -5.16699 14 -7.5s3 -5.16602 3 -8.49902z" />
    <glyph glyph-name="quotedbl" unicode="&#x22;" horiz-adv-x="403" 
d="M149 543c0 -65.333 -21.333 -106 -64 -122c-12 -5.33301 -20 -8 -24 -8h-20v18c0 2 2 9 6 21c1.33301 2.66699 2 21 2 55c0 4 -1.33301 7.66699 -4 11c-14.667 28 -22 50 -22 66c0 14.667 5.5 27 16.5 37s24.5 15 40.5 15c46 0 69 -31 69 -93zM285 543
c0 -65.333 -21.333 -106 -64 -122c-12 -5.33301 -20 -8 -24 -8h-20v18c0 2 2 9 6 21c1.33301 2.66699 2 21 2 55c0 4 -1.33301 7.66699 -4 11c-14.667 28 -22 50 -22 66c0 14.667 5.5 27 16.5 37s24.5 15 40.5 15c46 0 69 -31 69 -93z" />
    <glyph glyph-name="numbersign" unicode="#" horiz-adv-x="681" 
d="M224 227c5.33301 0 10.332 0.165039 14.999 0.498047s9.66699 0.833008 15 1.5c-1.33301 13.333 -2.5 26.333 -3.5 39s-2.16699 25.334 -3.5 38.001c-1.33301 12 -2.33301 23.333 -3 34s-1 20.667 -1 30c-4 -0.666992 -8.16699 -1.16699 -12.5 -1.5
s-8.5 -0.833008 -12.5 -1.5c-3.33301 0 -6.66602 -0.166992 -9.99902 -0.5s-6.66602 -0.5 -9.99902 -0.5c1.33301 -12 2.33301 -23.667 3 -35s1.66699 -22.666 3 -33.999c1.33301 -13.333 2.16602 -26 2.49902 -38s0.833008 -23.667 1.5 -35
c2 0.666992 4.33301 1.16699 7 1.5s5.66699 0.833008 9 1.5zM420.999 369.998l-10.0068 -0.000976562c-4 0.666992 -9.66699 3 -17 7l-20 6c-6.66699 -1.33301 -14.334 -2.16602 -23.001 -2.49902s-18 -0.833008 -28 -1.5c1.33301 -13.333 2.5 -27 3.5 -41
s2.16699 -27.667 3.5 -41c1.33301 -11.333 2.16602 -22.5 2.49902 -33.5s0.833008 -22.167 1.5 -33.5c14.667 -2 28.334 -6.83301 41.001 -14.5s25.334 -17.167 38.001 -28.5l-1 1c5.33301 -4 12 -14.333 20 -31l-11 -10h-10c-4 0.666992 -9.66699 3 -17 7l-20 5
c-5.33301 -1.33301 -11.666 -2 -18.999 -2s-14.666 -0.333008 -21.999 -1c-3.33301 -36 -15.666 -67 -36.999 -93c-6 -6 -12 -10.833 -18 -14.5s-12.667 -5.83398 -20 -6.50098l-11 11c0 6 0.833008 11.5 2.5 16.5s3.83398 10.5 6.50098 16.5
c4.66699 10.667 7.66699 19.667 9 27c-1.33301 10.667 -2.33301 22.667 -3 36c-8 -0.666992 -15.5 -1.33398 -22.5 -2.00098s-14.167 -1.66699 -21.5 -3c-2.66699 -0.666992 -5 -1 -7 -1s-3.66699 -0.333008 -5 -1c-2.66699 -15.333 -7 -29.5 -13 -42.5
s-13.667 -25.167 -23 -36.5c-6 -6 -12 -10.833 -18 -14.5s-12.667 -5.83398 -20 -6.50098l-11 11c0 6 0.833008 11.5 2.5 16.5s3.83398 10.5 6.50098 16.5c2 4.66699 3.83301 9.5 5.5 14.5s2.5 9.16699 2.5 12.5c0 4 -0.166992 8.16699 -0.5 12.5
s-0.833008 8.83301 -1.5 13.5c-3.33301 0 -6.33301 0.166992 -9 0.5s-5.66699 0.5 -9 0.5c-32 0.666992 -59.667 13.334 -83 38.001c-10 12.667 -15 25.334 -15 38.001l10 11c5.33301 0 10 -1 14 -3l12 -6c3.33301 -2.66699 6.83301 -4.66699 10.5 -6s6.5 -2.33301 8.5 -3
c8.66699 1.33301 17.834 2.33301 27.501 3s18.834 1.66699 27.501 3c-1.33301 15.333 -2.83301 30.5 -4.5 45.5s-3.16699 30.167 -4.5 45.5c-1.33301 10.667 -2.16602 20.667 -2.49902 30s-0.833008 18.666 -1.5 27.999c-32 0.666992 -59.333 13.334 -82 38.001
c-10 12 -15 24.333 -15 37l10 11c5.33301 0 10 -1 14 -3l12 -6c3.33301 -2 6.83301 -3.66699 10.5 -5s6.5 -2.33301 8.5 -3c6 0.666992 12.667 1.33398 20 2.00098l21 2c1.33301 20.667 5.66602 40.334 12.999 59.001s17.666 35.667 30.999 51l-1 -1
c4.66699 8 15 17.667 31 29l11 -14v-13c-1.33301 -5.33301 -3.66602 -11.666 -6.99902 -18.999l1 1c-3.33301 -13.333 -5.66602 -24.333 -6.99902 -33c1.33301 -14.667 2.33301 -32 3 -52c5.33301 1.33301 10.833 2.16602 16.5 2.49902s11.167 1.16602 16.5 2.49902
c3.33301 0 6.66602 0.166992 9.99902 0.5s6.66602 0.833008 9.99902 1.5c4.66699 35.333 18.667 67 42 95l-1 -1c2.66699 4.66699 6.66699 9.33398 12 14.001s11.666 9.66699 18.999 15l11 -14v-13c-1.33301 -5.33301 -3.66602 -11.666 -6.99902 -18.999l1 1
c-3.33301 -13.333 -5.66602 -24.333 -6.99902 -33c0.666992 -6 1.16699 -12.333 1.5 -19s0.833008 -14.334 1.5 -23.001h3c17.333 -0.666992 33.5 -4.83398 48.5 -12.501s29.5 -18.167 43.5 -31.5c6 -4.66699 12.667 -14.667 20 -30z" />
    <glyph glyph-name="dollar" unicode="$" horiz-adv-x="644" 
d="M197 607c-4 1.33301 -3.33203 2.83398 2.00098 4.50098s17.666 3.5 36.999 5.5c-5.33301 -1.33301 -8.33301 -2 -9 -2c-7.33301 -1.33301 -13.5 -2.33301 -18.5 -3s-8.83301 -2.33398 -11.5 -5.00098zM220.001 382.001l-0.000976562 90.001c0 1.33301 -0.666992 4 -2 8
c-0.666992 1.33301 -1 3.66602 -1 6.99902c-4 -0.666992 -9.66699 -2.66699 -17 -6c-11.333 -2.66699 -25.666 -12.667 -42.999 -30c-12.667 -14 -19 -28 -19 -42c0 -18 23.333 -27 70 -27h12zM308 267.002l2 -32.501l2 -33.5c0 -2 0.166992 -4.16699 0.5 -6.5
s0.5 -5.16602 0.5 -8.49902c0.666992 -5.33301 1 -11.5 1 -18.5s0.666992 -15.5 2 -25.5c14.667 4 28.5 10 41.5 18s24.167 17.667 33.5 29c4 4 6 12.333 6 25c0 17.333 -7.33301 31.5 -22 42.5s-37 19.833 -67 26.5v-16zM191 585.001
c0 11.333 2.00195 18.6719 6.00195 22.0049c4.66699 -1.33301 14 -2.33301 28 -3s29.667 -1 47 -1v19c16.667 0 26.667 -7.33301 30 -22c2.66699 -13.333 4 -23.666 4 -30.999v-4c4 0.666992 8.5 1 13.5 1h13.5c65.333 0 108.333 -18 129 -54
c4.66699 -8.66699 7 -16.334 7 -23.001c0 -9.33301 -7 -26 -21 -50c-16 -26 -33 -39 -51 -39c-14 0 -21 6.66699 -21 20c0 3.33301 0.666992 6 2 8s3 4.33301 5 7l8 10.5c2.66699 3.66699 4 8.16699 4 13.5c0.666992 17.333 -22.333 27.666 -69 30.999h-7.5
c-3 0 -6.16699 0.333008 -9.5 1h-3v-32c-0.666992 -0.666992 -1 -1.33398 -1 -2.00098v-5c-0.666992 -4 -1 -7.66699 -1 -11v-7l2 -32c0.666992 -2 1 -5.33301 1 -10v-13h2c10.667 -0.666992 23.334 -2 38.001 -4s31 -4.66699 49 -8
c74.667 -29.333 112 -63.666 112 -102.999c0 -21.333 -22.333 -54 -67 -98c-12.667 -12.667 -33 -29 -61 -49c-13.333 -10 -25 -18.333 -35 -25s-18.333 -12 -25 -16c0 -2 0.166992 -3.66699 0.5 -5s0.5 -3 0.5 -5c0.666992 -6 1 -12.167 1 -18.5
s-0.333008 -10.833 -1 -13.5c-2 -10.667 -12 -19 -30 -25c-12.667 -4.66699 -21.667 -7 -27 -7c-7.33301 0 -18 3 -32 9c-18.667 8 -27.334 18 -26.001 30c0 3.33301 0.166992 5.16602 0.5 5.49902s0.5 2.16602 0.5 5.49902h-10c-8.66699 0 -23.334 2.33301 -44.001 7
c-2 0 -4 1 -6 3c-2.66699 1.33301 -6.33398 2.83301 -11.001 4.5s-10.334 4.16699 -17.001 7.5c-50.667 22 -76 39.333 -76 52c0 7.33301 6.66699 21 20 41c15.333 23.333 28 35 38 35c6 0 13.333 -3.66699 22 -11l11.5 -9.5c3.66699 -3 7.83398 -5.5 12.501 -7.5
c8.66699 -5.33301 18.334 -9.83301 29.001 -13.5s22.667 -7.16699 36 -10.5c1.33301 15.333 2.16602 32 2.49902 50s1.16602 34.667 2.49902 50c0 3.33301 0.166992 7.66602 0.5 12.999s0.5 9.66602 0.5 12.999c0 5.33301 -0.166992 8.66602 -0.5 9.99902
s-0.166016 4.33301 0.500977 9c-5.33301 1.33301 -11.833 2.33301 -19.5 3s-15.167 1.66699 -22.5 3c-6 1.33301 -12 2.33301 -18 3s-12.667 1.66699 -20 3c-10 1.33301 -19.333 4 -28 8s-17 8.66699 -25 14h1c-22.667 14 -34 32 -34 54c0 14.667 9.33301 36.667 28 66
c42 44.667 86.667 76.667 134 96c-2 13.333 -2.33301 20 -1 20l-6 2c-2 0.666992 -3.66699 1.33398 -5 2.00098c-7.33301 2.66699 -11 8 -11 16z" />
    <glyph glyph-name="percent" unicode="%" horiz-adv-x="821" 
d="M548 120c-13.333 45.333 -31.6641 73.332 -54.9971 83.999c-8 3.33301 -15 5 -21 5c-29.333 0 -49 -16 -59 -48l-2 -6c-0.666992 -4.66699 -1.16699 -9 -1.5 -13s-0.5 -6.66699 -0.5 -8c0 -2.66699 0.166992 -5.66699 0.5 -9s0.833008 -6.66602 1.5 -9.99902
c0 -1.33301 0.666992 -3.33301 2 -6c5.33301 -20.667 15.666 -37.334 30.999 -50.001s30.666 -19 45.999 -19c21.333 0 38.666 11.667 51.999 35c0.666992 2 1.66699 4.33301 3 7s2.33301 4.33398 3 5.00098v33zM204.002 473.999
c-12.667 46 -30.9971 74.335 -54.9971 85.002c-8 3.33301 -15 5 -21 5c-29.333 0 -49 -16 -59 -48l-2 -7c-0.666992 -4 -1.16699 -8 -1.5 -12s-0.5 -6.66699 -0.5 -8c0 -6 0.666992 -12.333 2 -19c0 -1.33301 0.666992 -3.33301 2 -6
c5.33301 -20.667 15.666 -37.334 30.999 -50.001s30.666 -19 45.999 -19c21.333 0 38.666 11.667 51.999 35c0.666992 2 1.66699 4.16699 3 6.5s2.33301 4.16602 3 5.49902v32zM611.005 122.001c0 -20.667 -3.00098 -35.9961 -9.00098 -45.9961
c-29.333 -48 -72.666 -72 -129.999 -72c-56.667 0 -94 23.333 -112 70c-2 5.33301 -4.33301 12.166 -7 20.499s-4 17.166 -4 26.499c0 29.333 7.33301 54 22 74c14.667 17.333 32.834 30.166 54.501 38.499s43.5 12.5 65.5 12.5c16.667 0 32.167 -3.5 46.5 -10.5
s27.166 -16.167 38.499 -27.5c23.333 -24.667 35 -53.334 35 -86.001zM267.004 477.005c0 -22 -3.33301 -37.333 -10 -46c-28.667 -48 -71.667 -72 -129 -72c-56 0 -93.667 23.333 -113 70c-2 4.66699 -4.16699 11.334 -6.5 20.001s-3.5 17.334 -3.5 26.001
c0 31.333 7.33301 56.333 22 75c14.667 17.333 32.834 30.166 54.501 38.499s43.5 12.5 65.5 12.5c16.667 0 32.167 -3.5 46.5 -10.5s27.166 -16.167 38.499 -27.5c23.333 -24.667 35 -53.334 35 -86.001zM300.004 198.005l-20.002 -31.001l-24 -39
c-3.33301 -6.66699 -9 -15.667 -17 -27l-28 -38c-5.33301 -6.66699 -12.666 -15.167 -21.999 -25.5s-17.333 -17.5 -24 -21.5c-8.66699 -6 -19.667 -12.333 -33 -19c-5.33301 -2.66699 -11.5 -5.33398 -18.5 -8.00098s-14.833 -5 -23.5 -7
c-4.66699 -1.33301 -7.83398 -2.33301 -9.50098 -3s-3.16699 -1.33398 -4.5 -2.00098c-3.33301 -2 -6.5 -3.66699 -9.5 -5s-7.16699 -1.66602 -12.5 -0.999023c-16.667 3.33301 -20.667 12.333 -12 27c2.66699 4.66699 5.83398 8.83398 9.50098 12.501
s7.83398 6.16699 12.501 7.5h1c-0.666992 -0.666992 0.333008 0 3 2l8 6l32 44.5c10 14.333 18.333 27.833 25 40.5v-1c5.33301 9.33301 10.333 19 15 29s9.66699 19.667 15 29l48 84l30 54l24 47c3.33301 7.33301 7.83301 16 13.5 26s11.167 20.333 16.5 31l38 65
c0.666992 0.666992 1.16699 1.5 1.5 2.5s0.833008 1.83301 1.5 2.5c1.33301 4 3 8.5 5 13.5s3.66699 8.16699 5 9.5c7.33301 12.667 14.166 23.5 20.499 32.5s12.5 15.833 18.5 20.5l20 15l32.5 21l41.5 26c3.33301 2.66699 8.66602 5.33398 15.999 8.00098
s16.333 5.66699 27 9c4 1.33301 9.16699 3.16602 15.5 5.49902s13.833 4.16602 22.5 5.49902c3.33301 0 6 -0.166992 8 -0.5s4.66699 -1.16602 8 -2.49902c8.66699 -6 9.66699 -13.333 3 -22c-5.33301 -8 -15.333 -16 -30 -24
c-1.33301 -1.33301 -3.16602 -2.66602 -5.49902 -3.99902l-8.5 -5c-3.33301 -3.33301 -7.16602 -6.83301 -11.499 -10.5l-12.5 -10.5c-6 -7.33301 -12.333 -15.833 -19 -25.5s-13.667 -21.167 -21 -34.5c-3.33301 -5.33301 -6 -10.5 -8 -15.5s-4.33301 -9.83301 -7 -14.5v1
c-2.66699 -4.66699 -5.16699 -9.5 -7.5 -14.5l-7.5 -15.5z" />
    <glyph glyph-name="ampersand" unicode="&#x26;" horiz-adv-x="1088" 
d="M466 630c0.666992 11.333 -1.16602 23.5 -5.49902 36.5s-10.166 25.167 -17.499 36.5c-8.66699 12.667 -18.334 22.5 -29.001 29.5s-22.334 10.167 -35.001 9.5c-26.667 -0.666992 -51.667 -11 -75 -31c-24.667 -20.667 -38 -45 -40 -73
c-2.66699 -18.667 7.33301 -42 30 -70c5.33301 -7.33301 14.333 -17 27 -29l44 -41c66 50.667 99.667 94.667 101 132zM538 87l-114 112.503l-116 124.5c-4 -3.33301 -9.16699 -8 -15.5 -14s-14.166 -12.667 -23.499 -20h1c-72 -63.333 -108 -121 -108 -173
c0 -23.333 7.5 -45.833 22.5 -67.5s36.5 -38.167 64.5 -49.5c25.333 -10 47.833 -17.667 67.5 -23s37.167 -8 52.5 -8c13.333 0 26.666 2 39.999 6s25.666 8.66699 36.999 14c1.33301 1.33301 2.33301 2.16602 3 2.49902s1.66699 1.16602 3 2.49902l9 9
c2.66699 2 5.33398 4.16699 8.00098 6.5s5.66699 5.16602 9 8.49902c7.33301 5.33301 16 13.833 26 25.5s21.333 26.167 34 43.5zM853 380.003c0.666992 -1.33301 1.33398 -3.16895 2.00098 -5.50195s1 -4.5 1 -6.5c0 -12 -8 -32 -24 -60
c-3.33301 -5.33301 -7 -11.833 -11 -19.5l-14 -27.5l-11.5 -24.5l-12.5 -25.5v1l-11.5 -20.5c-4.33301 -7.66699 -10.166 -16.167 -17.499 -25.5l-8 -11l-12.5 -17.5c-3 -4.33301 -5.83301 -8.16602 -8.5 -11.499l77.5 -67.5c25.667 -21.667 52.5 -42.834 80.5 -63.501
c2.66699 -2.66699 13.334 -4 32.001 -4c22.667 -1.33301 42 -9.66602 58 -24.999c-4.66699 -7.33301 -15 -14.5 -31 -21.5s-36.667 -14.167 -62 -21.5c-24 -6.66699 -45.667 -12.167 -65 -16.5s-34.333 -6.5 -45 -6.5c-6.66699 0 -22 9 -46 27s-55.333 44 -94 78l-2 -2
l-18 -13.5l-18 -12.5c-3.33301 -2.66699 -6.33301 -4.83398 -9 -6.50098s-4.66699 -3.16699 -6 -4.5l1 1c-17.333 -12 -32.833 -22.167 -46.5 -30.5s-25.167 -14.833 -34.5 -19.5c-46 -20 -74.667 -31 -86 -33c-17.333 -3.33301 -33.5 -5.5 -48.5 -6.5
s-28.5 -1.5 -40.5 -1.5c-13.333 0 -33.833 1.83301 -61.5 5.5s-61.5 9.16699 -101.5 16.5c-33.333 6 -60 17.667 -80 35c-5.33301 5.33301 -11.666 12.5 -18.999 21.5l-27 33.5c-14 20.667 -21 45.667 -21 75c0 57.333 21 116 63 176c1.33301 1.33301 3 3.16602 5 5.49902
s4 4.5 6 6.5h-1l20 24l26 30c11.333 13.333 23.666 25 36.999 35c5.33301 3.33301 9.66602 6.16602 12.999 8.49902l8 5.5l5 4l17.5 13l21.5 16c6.66699 4.66699 11.334 6.33398 14.001 5.00098c-1.33301 2 -2.66602 4.33301 -3.99902 7l-4 8
c-4.66699 5.33301 -10.667 13 -18 23l-26 37c-25.333 38.667 -38 74.667 -38 108c0 8.66699 0.666992 14.667 2 18c5.33301 31.333 14.166 60.833 26.499 88.5s29.166 52.5 50.499 74.5c56 58.667 130.333 88 223 88c21.333 0 40.833 -5.16699 58.5 -15.5
s33.167 -24.166 46.5 -41.499c10 -15.333 18 -31.833 24 -49.5s9 -36.167 9 -55.5c0 -22 -4.16699 -44.167 -12.5 -66.5s-19.5 -43.833 -33.5 -64.5c-9.33301 -13.333 -20.833 -26.666 -34.5 -39.999s-29.834 -27.666 -48.501 -42.999c-28 -22 -42.333 -34 -43 -36l58 -58
l154 -153c21.333 45.333 36.666 82.666 45.999 111.999c2 4.66699 4.33301 11.334 7 20.001l10 33v-1c6 23.333 15 37.333 27 42c3.33301 0.666992 6.33301 1.33398 9 2.00098s5 1 7 1c8 0 17.833 -1.83301 29.5 -5.5s23.834 -8.83398 36.501 -15.501
c11.333 -5.33301 20.666 -10.5 27.999 -15.5s12.333 -8.83301 15 -11.5z" />
    <glyph glyph-name="quotesingle" unicode="'" 
d="M146 543c0 -65.333 -21 -105.999 -63 -121.999c-13.333 -5.33301 -21.333 -8 -24 -8h-21v18c0 1.33301 0.5 3.16602 1.5 5.49902l3.5 8.5v1c2 4.66699 3 25 3 61c0 3.33301 -0.666992 7 -2 11v-1c-15.333 28.667 -23 51 -23 67c0 14.667 5.66699 27 17 37
s24.333 15 39 15c46 0 69 -31 69 -93z" />
    <glyph glyph-name="parenleft" unicode="(" horiz-adv-x="371" 
d="M1 433l-0.00292969 11.0029c0 6.66699 0.333008 16.667 1 30c0 4.66699 0.166992 10.167 0.5 16.5s0.5 11.166 0.5 14.499c0 5.33301 0.166992 9.66602 0.5 12.999s0.5 6 0.5 8c0 23.333 3 57 9 101c3.33301 4.66699 5.66602 8.83398 6.99902 12.501
s2.66602 6.83398 3.99902 9.50098c2.66699 11.333 11 26 25 44c11.333 16.667 24 29.334 38 38.001l21.5 13.5c9 5.66699 19.5 11.834 31.5 18.501l2 1c8.66699 6 17.5 11.333 26.5 16s18.167 7 27.5 7c16.667 0 25 -7 25 -21c0 -10.667 -6.33301 -23.334 -19 -38.001
c-2.66699 -2.66699 -8.33398 -7.33398 -17.001 -14.001l1 2l-32.5 -43c-8.33301 -11.333 -14.166 -20.333 -17.499 -27c-6 -12.667 -8.33301 -31.667 -7 -57l3 -85v-123c0 -18.667 0.166992 -34.667 0.5 -48s0.833008 -24.333 1.5 -33l3 -69
c0.666992 -10 1.16699 -22.5 1.5 -37.5s0.5 -30.167 0.5 -45.5v-189c0 -30 1 -48.333 3 -55c4.66699 -13.333 18.334 -34.333 41.001 -63c2.66699 -1.33301 5.83398 -3.5 9.50098 -6.5s7.16699 -6.5 10.5 -10.5c12.667 -14.667 19 -27.334 19 -38.001
c0 -13.333 -8.66699 -20 -26 -20c-7.33301 0 -14.666 1.66699 -21.999 5s-14.666 7.66602 -21.999 12.999l1 -1c-2 1.33301 -4 2.5 -6 3.5s-4 2.16699 -6 3.5l-6 3l-23 12c-8 4 -15.667 8.33301 -23 13c-6.66699 4.66699 -13.5 10.667 -20.5 18s-13.5 15 -19.5 23
s-11.167 16 -15.5 24s-7.5 15 -9.5 21l1 -1l-3 8v-2l-3.5 7c-1.66699 3.33301 -4.16699 8.66602 -7.5 15.999c-3.33301 14 -5.66602 54 -6.99902 120z" />
    <glyph glyph-name="parenright" unicode=")" horiz-adv-x="416" 
d="M222 118c0 -3.33301 -0.163086 -8.17285 -0.496094 -14.5059s-0.833008 -14.166 -1.5 -23.499c-0.666992 -11.333 -1 -22.166 -1 -32.499v-20.5c0 -18 -3 -51.333 -9 -100c-1.33301 -1.33301 -2.5 -3.16602 -3.5 -5.49902l-3.5 -8.5
c-2.66699 -6 -6.33398 -13.833 -11.001 -23.5s-11 -19.834 -19 -30.501c-5.33301 -8.66699 -11.333 -16 -18 -22s-12.667 -11.667 -18 -17c-5.33301 -3.33301 -12.833 -7.33301 -22.5 -12s-20.5 -10.667 -32.5 -18c-2 -1.33301 -4 -2.5 -6 -3.5s-4 -2.16699 -6 -3.5l1 1
c-7.33301 -5.33301 -14.666 -9.66602 -21.999 -12.999s-14.666 -5 -21.999 -5c-17.333 0 -26 6.66699 -26 20c0 12 7 25.333 21 40c0.666992 2 6 6.66699 16 14l-1 -2c28 32.667 44.667 55.667 50 69c3.33301 6 5.33301 13.833 6 23.5s0.666992 20.834 0 33.501l-2 86v121
c0 18.667 -0.166992 34.5 -0.5 47.5s-0.833008 24.167 -1.5 33.5l-4 70c-0.666992 10 -1 22.333 -1 37v45l-1 189c0 28.667 -1 47.667 -3 57c-2.66699 7.33301 -7.33398 16.166 -14.001 26.499s-15.334 22.5 -26.001 36.5c-2.66699 1.33301 -5.83398 3.33301 -9.50098 6
s-7.16699 6 -10.5 10c-12.667 14.667 -19 27 -19 37c0 14 8.33301 21 25 21c8.66699 0 17.5 -2.33301 26.5 -7s17.5 -9.66699 25.5 -15c1.33301 -0.666992 2.16602 -1.16699 2.49902 -1.5s1.16602 -0.833008 2.49902 -1.5c0 -1.33301 1 -2 3 -2l-1 1l23.5 -13
c8.33301 -4.66699 17.166 -10 26.499 -16c6.66699 -4 13.334 -9.5 20.001 -16.5s12.834 -14.333 18.501 -22s10.667 -15.5 15 -23.5s7.5 -15 9.5 -21v1c1.33301 -2.66699 3.16602 -6.66699 5.49902 -12s4.83301 -10.666 7.5 -15.999c2 -7.33301 3.5 -21.166 4.5 -41.499
s1.83301 -47.166 2.5 -80.499z" />
    <glyph glyph-name="asterisk" unicode="*" horiz-adv-x="554" 
d="M152 509c3.33301 -4 5.99707 -8.83203 7.99707 -14.499s3 -10.5 3 -14.5c3.33301 -14 11 -29.333 23 -46c6.66699 -8 11.5 -14 14.5 -18s7.5 -9.66699 13.5 -17c5.33301 11.333 10.833 21.166 16.5 29.499s10.834 15.166 15.501 20.499c8 9.33301 17.5 17 28.5 23
s23.5 11.333 37.5 16c3.33301 1.33301 6.33301 2 9 2s4.66699 0.333008 6 1h-1c2.66699 1.33301 4.33398 2 5.00098 2h3l15 -1l1 -16c-4 -11.333 -10.333 -18.333 -19 -21c-9.33301 -9.33301 -17.5 -21.833 -24.5 -37.5s-13.5 -31.834 -19.5 -48.501
c5.33301 0 10.833 0.166992 16.5 0.5s10.5 0.5 14.5 0.5c33.333 0 64.333 -13 93 -39c6.66699 -4.66699 14.334 -14.667 23.001 -30l-12 -11h-8c-8 0 -15 2.33301 -21 7l3 -1c-13.333 3.33301 -22.666 5 -27.999 5c-0.666992 0 -24.334 -3 -71.001 -9
c14.667 -21.333 25.167 -39.333 31.5 -54s9.5 -27.667 9.5 -39c0 -31.333 -9.66699 -53.666 -29 -66.999h-15c-4 6.66699 -6.5 11.667 -7.5 15s-1.5 5.66602 -1.5 6.99902s0.333008 2.5 1 3.5s1 2.5 1 4.5c-0.666992 4 -1.16699 8 -1.5 12s-1.16602 7 -2.49902 9
c-1.33301 2.66699 -5.5 8.66699 -12.5 18s-18.5 23.666 -34.5 42.999c-6 -13.333 -12.167 -24.833 -18.5 -34.5s-11.5 -17.167 -15.5 -22.5c-21.333 -25.333 -46.666 -38 -75.999 -38c-4 0 -8.33301 0.5 -13 1.5s-9 2.83301 -13 5.5l-2 13
c2.66699 5.33301 5.66699 9.33301 9 12s7 5.33398 11 8.00098c8.66699 4.66699 14 8.66699 16 12c4 5.33301 14 29.333 30 72c-7.33301 -0.666992 -14.833 -1 -22.5 -1h-22.5c-10 0 -20.333 1.5 -31 4.5s-20.667 7.16699 -30 12.5c-25.333 13.333 -38.333 32 -39 56l10 11
c5.33301 0 10.666 -1.16699 15.999 -3.5s9.66602 -4.16602 12.999 -5.49902s6.83301 -2.83301 10.5 -4.5s6.16699 -2.5 7.5 -2.5c2 0 9 0.833008 21 2.5s30.333 4.5 55 8.5c-21.333 32.667 -32 62.334 -32 89.001c0 37.333 7 61 21 71z" />
    <glyph glyph-name="plus" unicode="+" horiz-adv-x="625" 
d="M261 499l0.000976562 -9.00488c0 -6.66699 -2.66699 -12.667 -8 -18c-3.33301 -9.33301 -5 -17.666 -5 -24.999c1.33301 -15.333 3 -29.333 5 -42s3.66699 -26.667 5 -42c7.33301 0.666992 13.833 1.16699 19.5 1.5s12.167 0.5 19.5 0.5c37.333 0 69 -13.333 95 -40
c6 -4 13.333 -13.333 22 -28l-12 -11h-7c-6.66699 -1.33301 -13 1 -19 7c-6 2 -10.833 3.16699 -14.5 3.5s-7.16699 0.5 -10.5 0.5c-15.333 -1.33301 -29.5 -2.66602 -42.5 -3.99902s-27.167 -2.66602 -42.5 -3.99902c0.666992 -9.33301 1.16699 -17.833 1.5 -25.5
s0.5 -15.167 0.5 -22.5c0 -40.667 -11.667 -71 -35 -91v1c-12 -10 -24 -15 -36 -15l-10 9c0.666992 2.66699 1.66699 5.33398 3 8.00098s2.16602 5.33398 2.49902 8.00098s1.16602 5 2.49902 7c2 4 3.83301 8 5.5 12s2.5 7.66699 2.5 11c0 2 -0.833008 10.667 -2.5 26
s-4.16699 36.666 -7.5 63.999c-9.33301 -0.666992 -18 -1.16699 -26 -1.5s-15.667 -0.5 -23 -0.5c-40.667 0 -71 11.667 -91 35c-4 5.33301 -7.33301 10.5 -10 15.5s-4.33398 11.167 -5.00098 18.5l10 12l10 -4c3.33301 -1.33301 6.33301 -2.33301 9 -3
s5.33398 -1.66699 8.00098 -3c6.66699 -4.66699 13 -7 19 -7c2.66699 0 11.334 0.833008 26.001 2.5s36 4.5 64 8.5c-0.666992 6.66699 -1.16699 13.334 -1.5 20.001s-0.5 13 -0.5 19c0 36.667 13 68.667 39 96c2.66699 4.66699 6.5 8.5 11.5 11.5l16.5 9.5z" />
    <glyph glyph-name="comma" unicode="," 
d="M167 40c0 -24 -10.332 -51.998 -30.999 -83.998c-21.333 -34 -47 -56.667 -77 -68c-17.333 -6 -27 -9 -29 -9h-22v20c-0.666992 5.33301 1.33301 12.333 6 21c1.33301 3.33301 3 6.83301 5 10.5l6 10.5c1.33301 3.33301 2.66602 6.16602 3.99902 8.49902l5 8.5l9 20.5
c2.66699 6.33301 4 11.5 4 15.5c0 5.33301 -1 10 -3 14c-1.33301 2 -4.33301 5.83301 -9 11.5l-20 24.5c-13.333 15.333 -20 30.666 -20 45.999c0 18 7 33 21 45s29.667 18 47 18c15.333 0 29.833 -4 43.5 -12s25.167 -18 34.5 -30c17.333 -23.333 26 -47 26 -71z" />
    <glyph glyph-name="hyphen" unicode="-" horiz-adv-x="554" 
d="M422 290l-12 0.000976562c-4.66699 0.666992 -10 2.66699 -16 6h2c-5.33301 1.33301 -9.66602 2.33301 -12.999 3l-10 2c-8 -1.33301 -16.5 -2.5 -25.5 -3.5l-30.5 -3.5c-7.33301 -1.33301 -15 -2.5 -23 -3.5s-15.667 -2.16699 -23 -3.5
c-9.33301 -1.33301 -18 -2.5 -26 -3.5s-16.667 -2.16699 -26 -3.5c-19.333 -2.66699 -37.333 -4.66699 -54 -6s-32 -2 -46 -2c-32.667 0 -60.667 11.667 -84 35c-10 11.333 -15.667 23.666 -17 36.999l11 12c8.66699 0 17.667 -2.66699 27 -8
c3.33301 -2 6.66602 -3.83301 9.99902 -5.5s6.33301 -2.5 9 -2.5l26.5 4l27.5 4l93 15c19.333 2 36.833 3.66699 52.5 5s30.167 2 43.5 2c34 0 65 -13 93 -39c6.66699 -4.66699 14 -15 22 -31z" />
    <glyph glyph-name="hyphen" unicode="&#x2010;" horiz-adv-x="554" 
d="M422 290l-12 0.000976562c-4.66699 0.666992 -10 2.66699 -16 6h2c-5.33301 1.33301 -9.66602 2.33301 -12.999 3l-10 2c-8 -1.33301 -16.5 -2.5 -25.5 -3.5l-30.5 -3.5c-7.33301 -1.33301 -15 -2.5 -23 -3.5s-15.667 -2.16699 -23 -3.5
c-9.33301 -1.33301 -18 -2.5 -26 -3.5s-16.667 -2.16699 -26 -3.5c-19.333 -2.66699 -37.333 -4.66699 -54 -6s-32 -2 -46 -2c-32.667 0 -60.667 11.667 -84 35c-10 11.333 -15.667 23.666 -17 36.999l11 12c8.66699 0 17.667 -2.66699 27 -8
c3.33301 -2 6.66602 -3.83301 9.99902 -5.5s6.33301 -2.5 9 -2.5l26.5 4l27.5 4l93 15c19.333 2 36.833 3.66699 52.5 5s30.167 2 43.5 2c34 0 65 -13 93 -39c6.66699 -4.66699 14 -15 22 -31z" />
    <glyph glyph-name="period" unicode="." 
d="M199 58c0 -20 -12.001 -37.667 -36.001 -53c-18 -12 -35.333 -18 -52 -18c-6 0 -14.167 2.66699 -24.5 8s-23.166 12.666 -38.499 21.999c-32.667 22.667 -49 41.334 -49 56.001c0 44.667 32.667 67 98 67c68 0 102 -27.333 102 -82z" />
    <glyph glyph-name="slash" unicode="/" horiz-adv-x="821" 
d="M310 198l-20.0029 -30.998l-24 -39c-4 -6.66699 -9.83301 -15.667 -17.5 -27s-16.834 -24 -27.501 -38c-5.33301 -6.66699 -12.833 -15.167 -22.5 -25.5s-17.5 -17.5 -23.5 -21.5c-5.33301 -3.33301 -10.833 -6.5 -16.5 -9.5s-11.167 -6.16699 -16.5 -9.5l-17 -6.5
c-8 -3 -18 -6.16699 -30 -9.5c-4.66699 -1.33301 -10.334 -3.33301 -17.001 -6c-7.33301 -4 -15.333 -5.33301 -24 -4c-16.667 3.33301 -20.667 12.333 -12 27c2.66699 4.66699 5.83398 8.83398 9.50098 12.501s7.83398 6.16699 12.501 7.5h1
c-0.666992 -0.666992 0.333008 0 3 2l8 6l32 44.5c10 14.333 18.333 27.833 25 40.5v-1c5.33301 9.33301 10.333 19 15 29s9.66699 19.667 15 29l48 84l30 54l24 47c3.33301 7.33301 7.83301 16 13.5 26s11.167 20.333 16.5 31l38 65c10 18 20.333 34.167 31 48.5
s21 25.166 31 32.499c1.33301 1.33301 4 3.33301 8 6s8 5.66699 12 9c1.33301 1.33301 2.83301 2.66602 4.5 3.99902s3.16699 2.33301 4.5 3c3.33301 2.66699 6 5.16699 8 7.5s4.66699 4.83301 8 7.5h-1c8 7.33301 15.667 13 23 17s13.666 7 18.999 9
c4.66699 2 10.834 4.5 18.501 7.5l22.5 8.5c4 1.33301 9.16699 3.16602 15.5 5.49902s13.833 4.16602 22.5 5.49902c3.33301 0 6.16602 -0.166992 8.49902 -0.5s4.83301 -1.16602 7.5 -2.49902c8.66699 -6 9.66699 -13.333 3 -22
c-1.33301 -2.66699 -3.66602 -6 -6.99902 -10s-6.66602 -7.66699 -9.99902 -11c-1.33301 -2.66699 -7 -6.66699 -17 -12l-24 -21c-13.333 -14.667 -26.666 -34.667 -39.999 -60c-3.33301 -5.33301 -6.16602 -10.5 -8.49902 -15.5l-6.5 -14.5v1
c-2.66699 -4.66699 -5.16699 -9.5 -7.5 -14.5l-7.5 -15.5z" />
    <glyph glyph-name="zero" unicode="0" horiz-adv-x="666" 
d="M403 251c0 10.667 -0.333984 16.667 -1.00098 18c-6.66699 28 -13 52.333 -19 73s-12.667 37.667 -20 51c-21.333 42 -49 72.667 -83 92c-15.333 9.33301 -30 14 -44 14c-23.333 0 -47 -9.33301 -71 -28c-25.333 -23.333 -43.333 -55.333 -54 -96
c-1.33301 -2.66699 -2.66602 -6 -3.99902 -10s-2.66602 -7.66699 -3.99902 -11v-14.5c0 -6.33301 -0.333008 -11.5 -1 -15.5c-0.666992 -10 -1.66699 -19.333 -3 -28c0 -14.667 2 -28 6 -40l-1 1c0.666992 -1.33301 1.33398 -3 2.00098 -5l2 -6l2 -6l-1 4
c10.667 -28 20.834 -52.333 30.501 -73s18.167 -36.667 25.5 -48c15.333 -20.667 32.166 -36.5 50.499 -47.5s38.166 -16.5 59.499 -16.5c47.333 0 85.333 30.333 114 91c7.33301 13.333 11.666 26 12.999 38v40v4.5c0 2.33301 0.333008 4.5 1 6.5v12zM503.999 162
c-60 -115.333 -148.665 -172.999 -265.998 -172.999c-63.333 0 -115 18 -155 54v-1c-16.667 14.667 -31.834 33.5 -45.501 56.5s-26.834 50.5 -39.501 82.5l-5 13.5c-1.33301 3.66699 -2.33301 7.5 -3 11.5c-1.33301 10 -2.5 20.333 -3.5 31s-1.5 21 -1.5 31
c0 34 4.16699 66.333 12.5 97s19.833 58 34.5 82c14 22 30.333 40.833 49 56.5s38.667 28.5 60 38.5s43.5 17.333 66.5 22s45.833 7 68.5 7c70 0 129 -31.333 177 -94c46 -58 69 -126 69 -204c0 -48.667 -6 -85.334 -18 -110.001v-1z" />
    <glyph glyph-name="one" unicode="1" horiz-adv-x="421" 
d="M304 28c0 -14 -12.667 -22.999 -38 -26.999c-7.33301 -1.33301 -16.5 -2.33301 -27.5 -3s-23.5 -1.66699 -37.5 -3h-6c-2 0 -4.83301 -0.166992 -8.5 -0.5s-8.5 -0.833008 -14.5 -1.5c-8 -1.33301 -14.667 -2.16602 -20 -2.49902s-8.66602 -0.5 -9.99902 -0.5
c-27.333 0 -43 7.66699 -47 23h1c-5.33301 12.667 -8 23.334 -8 32.001v109v5c0 2.66699 0.333008 5.66699 1 9s1.16699 6.33301 1.5 9s0.5 4.33398 0.5 5.00098v35v4c0 2 -0.333008 5.33301 -1 10c-1.33301 12.667 -1.33301 21.667 0 27v8.5
c0 3.66699 0.333008 7.16699 1 10.5c0 2 0.166992 4.16699 0.5 6.5s0.5 4.16602 0.5 5.49902c0.666992 4.66699 1.16699 8.83398 1.5 12.501s0.5 6.83398 0.5 9.50098v43l2 63c-1.33301 9.33301 -2.33301 19.166 -3 29.499s-1 20.833 -1 31.5
c0 5.33301 -4 8.66602 -12 9.99902h-58c-30.667 0.666992 -44.667 11 -42 31c2 9.33301 18.667 18.666 50 27.999c9.33301 3.33301 20.333 6.16602 33 8.49902l45 8.5c11.333 2 21.5 3.5 30.5 4.5s15.167 1.5 18.5 1.5c5.33301 0 11.333 -0.5 18 -1.5s14 -3.16699 22 -6.5
c22 -6.66699 33 -16.334 33 -29.001v-191c-0.666992 -9.33301 -1 -17.166 -1 -23.499v-16.5c0 -2.66699 -0.166992 -6.5 -0.5 -11.5s-0.5 -9.16699 -0.5 -12.5v-135v-14v-14c1.33301 -4.66699 2.33301 -9.33398 3 -14.001s1.66699 -9.33398 3 -14.001
c0 -4 1.66699 -12.667 5 -26l-1 1c3.33301 -8 5.66602 -12.667 6.99902 -14c6 0 13.333 -0.166992 22 -0.5s17 -1.16602 25 -2.49902c8 -2 12 -7.66699 12 -17z" />
    <glyph glyph-name="two" unicode="2" horiz-adv-x="683" 
d="M459 469c4 -8 5.99707 -17.6641 5.99707 -28.9971c0 -26 -9.66699 -53.333 -29 -82v1c-3.33301 -6 -6.5 -10.833 -9.5 -14.5s-6.16699 -6.83398 -9.5 -9.50098v1c-1.33301 -1.33301 -2.16602 -2.33301 -2.49902 -3s-1.16602 -1.33398 -2.49902 -2.00098h1
c-14 -16 -27.667 -30.667 -41 -44c-17.333 -16.667 -38.5 -38.834 -63.5 -66.501l-89.5 -98.5h1c-15.333 -19.333 -23 -29.666 -23 -30.999c0 -5.33301 6.66699 -7.33301 20 -6h9c4.66699 0 11.667 0.333008 21 1c5.33301 0.666992 9.66602 1 12.999 1h11h8l188 -2
c24.667 -0.666992 50.334 5.33301 77.001 18h-1c15.333 8 26.833 13.667 34.5 17s13.167 5 16.5 5c5.33301 0 11.333 -2.83301 18 -8.5s10 -11.167 10 -16.5c0 -9.33301 -9 -21 -27 -35s-42.667 -28.667 -74 -44c-17.333 -8 -33.333 -14.5 -48 -19.5
s-27.667 -8.16699 -39 -9.5c-13.333 -1.33301 -25.666 -2.5 -36.999 -3.5s-22.333 -1.5 -33 -1.5c-3.33301 0 -14.333 1 -33 3c-18 2 -28 3 -30 3h-281c-4 0 -7 1.66699 -9 5l2 -2c1.33301 -0.666992 0.333008 0.333008 -3 3s-6.33301 4.66699 -9 6v14
c0 3.33301 1.66699 7.5 5 12.5s7.66602 11.167 12.999 18.5c7.33301 8 13.166 14.833 17.499 20.5l10.5 13.5l2 3c24 32 48.667 63.167 74 93.5s49.666 57.5 72.999 81.5l92 93l39 40c2.66699 6 4.83398 12.167 6.50098 18.5s2.5 12.166 2.5 17.499
c0 4 -0.666992 8.5 -2 13.5s-2.66602 9.5 -3.99902 13.5c-5.33301 11.333 -11 18.666 -17 21.999c-20 10 -36.667 15 -50 15c-12 0 -27.667 -4.33301 -47 -13c-3.33301 -2 -7 -4.33301 -11 -7l-12 -8c-14 -9.33301 -23.667 -17.333 -29 -24l1 1
c-4.66699 -7.33301 -9 -14.833 -13 -22.5s-8.33301 -15.167 -13 -22.5v1c-2.66699 -6 -5 -11.667 -7 -17s-4 -9.66602 -6 -12.999v1c-8 -15.333 -17.667 -23 -29 -23c-18.667 0 -44.667 14 -78 42c-4 4 -6 8.33301 -6 13c0 16.667 15.667 44.667 47 84
c2.66699 2.66699 5.33398 6 8.00098 10c2.66699 3.33301 5 6 7 8l8 8l25 22.5c7.33301 6.33301 12.333 10.166 15 11.499c3.33301 2 9.16602 4.66699 17.499 8l29.5 12c10.667 3.33301 21.667 5.83301 33 7.5s22 2.83398 32 3.50098c53.333 4 99.833 -4 139.5 -24
s67.834 -48.333 84.501 -85z" />
    <glyph glyph-name="three" unicode="3" horiz-adv-x="644" 
d="M462 423c0 -27.333 -17.0029 -51.9971 -51.0029 -73.9971c0.666992 -0.666992 1.33398 -1 2.00098 -1h-1c78 -28 117 -65.667 117 -113c0 -38.667 -21 -78 -63 -118c-8 -8 -19 -17 -33 -27s-30.667 -21.333 -50 -34l-47.5 -27.5c-15 -8.33301 -29.167 -15.5 -42.5 -21.5
c-9.33301 -4 -16.333 -6.66699 -21 -8c-33.333 -6 -67.333 -9 -102 -9c-9.33301 0 -27.333 3 -54 9c-0.666992 0.666992 -4.66699 2.5 -12 5.5s-16.666 7.16699 -27.999 12.5c-30 13.333 -53.167 25.5 -69.5 36.5s-24.5 20.167 -24.5 27.5s8.66699 24.333 26 51v-1
c18.667 28.667 34.667 43 48 43c2.66699 0 7.66699 -2.33301 15 -7l24 -16c12 -10 36 -20.667 72 -32c34.667 -10.667 60 -16.667 76 -18c2.66699 0 6 -0.166992 10 -0.5s7.66699 -0.833008 11 -1.5c1.33301 -0.666992 3.33301 -1 6 -1h2c23.333 0 47 5.5 71 16.5
s43.333 25.167 58 42.5c4 4.66699 6 14 6 28c0 30 -21.333 50 -64 60c-8 2 -21.333 3.83301 -40 5.5s-42.667 3.16699 -72 4.5c-2 0 -3.83301 0.166992 -5.5 0.5s-3.16699 0.5 -4.5 0.5c-2.66699 0 -5.33398 0.166992 -8.00098 0.5s-6 1.5 -10 3.5
c-15.333 13.333 -23 29.333 -23 48c0 8.66699 2.33301 16.667 7 24s10.667 13.666 18 18.999s15.666 9.5 24.999 12.5s19 4.16699 29 3.5h7c22.667 8.66699 38.667 15 48 19l10 4c4.66699 1.33301 9.33398 3.33301 14.001 6s9.33398 5.66699 14.001 9
c10 9.33301 14.667 18.666 14 27.999c-1.33301 12 -8.33301 22 -21 30h1c-21.333 13.333 -40.166 21 -56.499 23s-29.166 3 -38.499 3h-56c-16.667 -1.33301 -32.334 -5.33301 -47.001 -12c-26.667 -10 -40 -21.333 -40 -34c0 -10.667 3.66699 -20.667 11 -30l1 -5
c1.33301 -5.33301 0.833008 -10 -1.5 -14s-5.5 -7.5 -9.5 -10.5s-8 -5.33301 -12 -7s-7 -2.5 -9 -2.5c-24.667 0 -44 24 -58 72v1c-2.66699 8 -3.33398 15.667 -2.00098 23c3.33301 16 7.5 30 12.5 42s10.833 21.333 17.5 28h-1c12.667 14.667 39.334 25.667 80.001 33
c18.667 2.66699 35.5 4.66699 50.5 6s28.167 2 39.5 2c15.333 0 30.333 -1.16699 45 -3.5s29 -6.5 43 -12.5c12 -5.33301 26.5 -12.5 43.5 -21.5s36.833 -20.5 59.5 -34.5c1.33301 -1.33301 4.33301 -4.83301 9 -10.5s9 -11.5 13 -17.5c11.333 -17.333 18 -32 20 -44
c1.33301 -2.66699 2 -7.33398 2 -14.001z" />
    <glyph glyph-name="four" unicode="4" horiz-adv-x="736" 
d="M312 436l-84.5 -95l-85.5 -95l168 -7c0 34.667 0.333008 67.167 1 97.5s1 63.5 1 99.5zM644 241c-49.333 -65.333 -119.668 -99 -211.001 -101v-73c0 -5.33301 -0.166992 -8.5 -0.5 -9.5s-0.166016 -2.16699 0.500977 -3.5c4.66699 -2 9.66699 -6.33301 15 -13
c6.66699 -10.667 -0.333008 -19.667 -21 -27l-11 -6.5l-11 -6.5l-25 -15h1c-10 -5.33301 -20 -10 -30 -14s-20.333 -7.33301 -31 -10c-8 8 -12 14.667 -12 20v162c-0.666992 -2 -1.66699 -3.66699 -3 -5c-27.333 1.33301 -60.5 3.5 -99.5 6.5s-83.167 6.16699 -132.5 9.5
c-6.66699 0.666992 -13.667 1.16699 -21 1.5s-14.666 0.5 -21.999 0.5c-6.66699 0 -15.334 3.33301 -26.001 10v13c0 2.66699 4.5 9 13.5 19l39.5 44l56.5 63.5l45.5 52.5c8 10 18.333 24 31 42l45 65v-1c38.667 60 64.334 98.667 77.001 116c2 3.33301 5 6.5 9 9.5l13 9.5
l13 8c3.33301 2 5.66602 3.33301 6.99902 4c12.667 9.33301 23.667 16.5 33 21.5s16.666 7.5 21.999 7.5c15.333 0 23 -11 23 -33v-371h117l38 9c6.66699 1.33301 13.834 3 21.501 5s16.167 4 25.5 6z" />
    <glyph glyph-name="five" unicode="5" horiz-adv-x="679" 
d="M195 498c-1.33301 -5.33301 -2.3252 -16.5029 -2.99219 -33.5029s-1 -37.167 -1 -60.5h16c5.33301 0 10.666 0.333008 15.999 1c6.66699 0.666992 11.834 -1.5 15.501 -6.5s6.16699 -8.16699 7.5 -9.5v18c3.33301 0 9.83301 -0.333008 19.5 -1s20.5 -1.66699 32.5 -3
c8 -0.666992 16.333 -1 25 -1s17 -0.666992 25 -2c1.33301 0 2.16602 -0.166992 2.49902 -0.5s1.16602 -0.5 2.49902 -0.5c11.333 -1.33301 21.5 -2.83301 30.5 -4.5s17.167 -4.16699 24.5 -7.5h-1c32.667 -12 60.667 -27.333 84 -46c35.333 -27.333 53 -56.666 53 -87.999
c0 -12.667 -7.83301 -29.834 -23.5 -51.501s-35.167 -44.834 -58.5 -69.501l-19.5 -19.5l-20 -19.5l-16.5 -16l-9 -9v1c-14 -14 -26.833 -25.5 -38.5 -34.5s-21.834 -15.167 -30.501 -18.5l1 1c-9.33301 -6 -22.333 -12 -39 -18c-32.667 -6.66699 -67.334 -10 -104.001 -10
c-8.66699 0 -26.667 3.66699 -54 11c-3.33301 0.666992 -17.333 6.33398 -42 17.001c-62.667 28.667 -94 50 -94 64c0 6.66699 8.66699 23.334 26 50.001v-1c18.667 28.667 33.667 43 45 43c3.33301 0 6.83301 -1.16699 10.5 -3.5s8.5 -5.83301 14.5 -10.5
c5.33301 -3.33301 10 -6.66602 14 -9.99902s7.66699 -6 11 -8h1c27.333 -13.333 52.833 -23.833 76.5 -31.5s45.834 -12.167 66.501 -13.5c1.33301 0 4.66602 -0.333008 9.99902 -1s9.66602 -1.33398 12.999 -2.00098c2.66699 -0.666992 5.33398 -1 8.00098 -1
c18.667 0 37.167 6 55.5 18s36.166 27.667 53.499 47c5.33301 6 8 17.333 8 34c0 26.667 -15 49.334 -45 68.001c-10.667 5.33301 -24.334 10.833 -41.001 16.5s-34.334 10.5 -53.001 14.5l-70 11h1c-15.333 2 -33.333 4.5 -54 7.5s-44.334 6.83301 -71.001 11.5
c-13.333 6 -20 19.333 -20 40v9.5c0 4.33301 0.333008 8.5 1 12.5c0 1.33301 0.166992 3 0.5 5s0.5 3.66699 0.5 5c2 16 3 27 3 33c0.666992 6.66699 0.666992 22.667 0 48c0 4 -0.166992 8 -0.5 12s-0.5 8.66699 -0.5 14c-0.666992 29.333 1 55.333 5 78
c4.66699 10.667 42.667 16 114 16h37c14 0 30.333 -0.333008 49 -1c6 0 13.5 -0.166992 22.5 -0.5s16.833 -0.5 23.5 -0.5c12.667 0 24.167 -0.166992 34.5 -0.5s19.5 -0.5 27.5 -0.5c9.33301 0 17.333 -0.166992 24 -0.5s11.667 -0.5 15 -0.5c24 0.666992 45.167 1 63.5 1
h29.5c16 -2 23 -9.66699 21 -23c-1.33301 -12.667 -11.666 -24.667 -30.999 -36v1c-6.66699 -4.66699 -13.334 -8 -20.001 -10s-13.667 -3.66699 -21 -5c-4.66699 -0.666992 -9.16699 -1 -13.5 -1s-8.83301 -0.333008 -13.5 -1c-4 -0.666992 -8.16699 -1.16699 -12.5 -1.5
s-9.16602 -0.5 -14.499 -0.5c-18 0 -39.167 -0.333008 -63.5 -1s-52.5 -1.66699 -84.5 -3c-0.666992 0 -1.33398 -0.166992 -2.00098 -0.5s-1.66699 -0.5 -3 -0.5c-11.333 -1.33301 -22 -2.66602 -32 -3.99902s-16.667 -3.33301 -20 -6z" />
    <glyph glyph-name="six" unicode="6" horiz-adv-x="672" 
d="M6 187c-2.66699 13.333 -3.83496 25.001 -3.50195 35.001s1.16602 17.667 2.49902 23c10.667 28 20.834 52.667 30.501 74s19.834 39.333 30.501 54l87 120l21.5 29.5c6.33301 8.33301 11.833 15.166 16.5 20.499c5.33301 7.33301 11.333 17 18 29l24 44
c22 43.333 32.667 70.333 32 81c-1.33301 4 -2.83301 7 -4.5 9s-6.16699 4.66699 -13.5 8c-11.333 4 -18.333 10 -21 18c0 4 0.166992 7 0.5 9s2.16602 4.66699 5.49902 8c4 1.33301 8.5 2.5 13.5 3.5s8.16699 1.83301 9.5 2.5c4.66699 0.666992 12.5 -0.333008 23.5 -3
s25.833 -7.66699 44.5 -15c42.667 -16 66 -34 70 -54c0.666992 -5.33301 -4.66602 -21 -15.999 -47s-29 -62.667 -53 -110l-20 -27.5c-6 -8.33301 -10.667 -15.166 -14 -20.499l1 1c-0.666992 -2 -2.33398 -4.66699 -5.00098 -8s-6 -8 -10 -14
c-4.66699 -5.33301 -7 -9 -7 -11c1.33301 -2 8.66602 -5.66699 21.999 -11c3.33301 -2 12.333 -4.66699 27 -8c0.666992 0 1.33398 -0.166992 2.00098 -0.5s1.33398 -0.5 2.00098 -0.5c14 -4.66699 27.667 -10.667 41 -18s26.333 -15 39 -23s22.667 -15.333 30 -22
c33.333 -30.667 53.666 -53.667 60.999 -69l-1 1c4 -6 8.66699 -11 14 -15c8.66699 -18.667 14.667 -38.334 18 -59.001s4.33301 -39.334 3 -56.001c-1.33301 -12 -5 -24.333 -11 -37s-14 -25.667 -24 -39c-9.33301 -12.667 -19.166 -23.667 -29.499 -33
s-20.833 -16.666 -31.5 -21.999h1c-8.66699 -5.33301 -15.667 -10.666 -21 -15.999c-12.667 -4 -24.167 -7.33301 -34.5 -10s-18.833 -4.66699 -25.5 -6c-7.33301 -1.33301 -14.833 -2.33301 -22.5 -3s-14.834 -1 -21.501 -1c-20 0 -40 2.66699 -60 8
c-1.33301 0 -2.66602 0.166992 -3.99902 0.5s-2.66602 0.5 -3.99902 0.5c-3.33301 0.666992 -7.33301 1 -12 1c-44 11.333 -79.667 25.666 -107 42.999c-67.333 40 -105.333 85.333 -114 136zM113.999 171.001c0 -29.333 19.333 -51.668 58 -67.001
c14.667 -6 30.334 -10.333 47.001 -13s34.334 -4 53.001 -4h19c6 0 11.667 0.333008 17 1c1.33301 0.666992 3.33301 1.5 6 2.5s4.66699 2.16699 6 3.5l28 13c7.33301 3.33301 12.666 6 15.999 8c9.33301 6.66699 17.666 15.334 24.999 26.001s13.166 21.834 17.499 33.501
s7.33301 23.5 9 35.5s1.83398 23.333 0.500977 34c-6 12.667 -13 24 -21 34c-14 22.667 -36.667 43.667 -68 63c-30.667 19.333 -59.334 29 -86.001 29c-4 0 -9.33301 -0.666992 -16 -2h1c-9.33301 -2 -14.333 -3.66699 -15 -5c-11.333 -14.667 -22.5 -30.5 -33.5 -47.5
l-33.5 -52.5c-9.33301 -17.333 -16.666 -33.833 -21.999 -49.5s-8 -29.834 -8 -42.501z" />
    <glyph glyph-name="seven" unicode="7" horiz-adv-x="690" 
d="M616 569c0 -11.333 -3.33887 -20.3428 -10.0059 -27.0098l-101.5 -102l-149.5 -154c-0.666992 -1.33301 -2 -3 -4 -5c-1.33301 -1.33301 -3 -3.16602 -5 -5.49902l-7 -8.5l-49 -59.5l-80 -96.5c-1.33301 -1.33301 -3.16602 -4.16602 -5.49902 -8.49902l-8.5 -15.5
c-2 -3.33301 -4.5 -7.16602 -7.5 -11.499l-9.5 -13.5l1 1c-7.33301 -11.333 -11 -17.666 -11 -18.999l-1 1c3.33301 -4.66699 6.5 -8.16699 9.5 -10.5s5.5 -4.16602 7.5 -5.49902c3.33301 -1.33301 6.5 -3.66602 9.5 -6.99902s4.5 -6.66602 4.5 -9.99902
c0 -12.667 -17.333 -19 -52 -19h-63.5c-21 0 -42.167 0.333008 -63.5 1c-4 1.33301 -7.33301 2.83301 -10 4.5s-5.66699 3.83398 -9 6.50098v13c0 4.66699 5.66699 14.334 17 29.001l11 10c8 8 13.667 15.333 17 22c79.333 101.333 167.666 203.666 264.999 306.999
c13.333 13.333 32 33 56 59l14 14c2.66699 2 7 6 13 12c9.33301 10.667 14 18 14 22c0 9.33301 -14 14 -42 14h-13c-5.33301 0 -10.666 -0.333008 -15.999 -1c-37.333 0 -76.166 -1.16699 -116.499 -3.5s-81.5 -6.16602 -123.5 -11.499
c-7.33301 -1.33301 -15.666 -3.33301 -24.999 -6l1 1c-1.33301 -0.666992 -4.16602 -1.5 -8.49902 -2.5s-7.16602 -1.83301 -8.49902 -2.5c-10 -2.66699 -17.333 -4 -22 -4c-15.333 0 -23 8.33301 -23 25s17 33 51 49c10.667 5.33301 20.5 9.33301 29.5 12
s17.5 5.33398 25.5 8.00098l20 4c10 2 22 4 36 6l402 9c14.667 0 27.334 -4.66699 38.001 -14z" />
    <glyph glyph-name="eight" unicode="8" horiz-adv-x="651" 
d="M129 297h-1h1zM339 508l-40.001 7.99609c-3.33301 1.33301 -6 2 -8 2c-24.667 0 -52.334 -5.33301 -83.001 -16c-15.333 -6.66699 -27.5 -13.667 -36.5 -21s-13.5 -14.333 -13.5 -21c0 -6 4.33301 -13.667 13 -23s17.334 -17.666 26.001 -24.999h-1
c5.33301 -3.33301 11.333 -6.16602 18 -8.49902s13.667 -5.16602 21 -8.49902c3.33301 -1.33301 7 -2.66602 11 -3.99902l12 -4c1.33301 -1.33301 4 -2.5 8 -3.5s8 -2.16699 12 -3.5l14.5 -3c6.33301 -1.33301 13.166 -2.66602 20.499 -3.99902
c6.66699 -1.33301 16.667 4.33398 30 17.001c8.66699 6.66699 15.834 13.5 21.501 20.5s10.834 14.167 15.501 21.5c4.66699 6 7.66699 10.667 9 14c0.666992 0.666992 1 1.16699 1 1.5s0.333008 0.833008 1 1.5c0 0.666992 0.333008 1 1 1c0 11.333 -5 22.666 -15 33.999
s-23 19.666 -39 24.999zM419.999 179.996c-7.33301 7.33301 -16.334 14.834 -27.001 22.501s-23.667 15.5 -39 23.5l-36.5 18.5l-37.5 18.5c-5.33301 1.33301 -10 2 -14 2c-32.667 -7.33301 -60.5 -17.833 -83.5 -31.5s-40.167 -30.167 -51.5 -49.5v1
c-1.33301 -2.66699 -2.33301 -5.83398 -3 -9.50098s-1 -8.5 -1 -14.5c0 -14 6.66699 -29.167 20 -45.5s31 -28.166 53 -35.499l-1 1c5.33301 -1.33301 11.5 -2.5 18.5 -3.5s15.167 -2.5 24.5 -4.5l15 -3c0.666992 -0.666992 1.33398 -1 2.00098 -1h1
c0.666992 0 1.16699 -0.166992 1.5 -0.5s0.833008 -0.5 1.5 -0.5c12 0 26 2.16699 42 6.5s34.667 10.5 56 18.5c48.667 21.333 73 41.666 73 60.999c0 8 -4.66699 16.667 -14 26zM459.998 50.9971c-5.33301 -3.33301 -12.4961 -7.16602 -21.4961 -11.499
s-19.833 -9.16602 -32.5 -14.499l-35 -14c-10 -4 -17.667 -6.33301 -23 -7l-7 -1c-2.66699 0 -4.33398 -0.333008 -5.00098 -1c0.666992 0 1 0.166992 1 0.5s0.333008 0.5 1 0.5c-18 -6 -36.167 -10.667 -54.5 -14s-37.166 -5 -56.499 -5c-8 0 -17.5 0.5 -28.5 1.5
s-24.5 2.16699 -40.5 3.5c-3.33301 2.66699 -6.83301 4.5 -10.5 5.5l-12.5 3.5c-24.667 5.33301 -50 16.333 -76 33c-12.667 9.33301 -23.334 18.5 -32.001 27.5s-14.667 18.167 -18 27.5c-6 12.667 -9 27 -9 43c0 8 0.833008 16.167 2.5 24.5s4.16699 17.166 7.5 26.499
c2 2 5 6 9 12c3.33301 7.33301 9.33301 16.166 18 26.499s20.667 22.166 36 35.499v-1c4.66699 4.66699 10.834 9.83398 18.501 15.501l23.5 17.5c2.66699 1.33301 6.16699 3.83301 10.5 7.5s5.5 4.83398 3.5 3.50098c5.33301 2.66699 11 5.16699 17 7.5l20 7.5l-31.5 17.5
c-11.667 6.33301 -24.5 14.166 -38.5 23.499c-16.667 12.667 -31.334 29.667 -44.001 51c-4 8 -6 20.333 -6 37c0 30.667 28 63 84 97c17.333 10.667 33.166 19.167 47.499 25.5s27.833 10.166 40.5 11.499l5 1c1.33301 0 2 -0.333008 2 -1c14 4.66699 28 8.16699 42 10.5
s28.667 3.5 44 3.5c5.33301 0 12.166 -0.333008 20.499 -1s18.5 -1.66699 30.5 -3c1.33301 -0.666992 3.83301 -1.5 7.5 -2.5s8.16699 -2.5 13.5 -4.5l-1 1c9.33301 -1.33301 18.666 -4.33301 27.999 -9s19.333 -10.667 30 -18v1c11.333 -6.66699 20.333 -13.667 27 -21
s11.667 -14.666 15 -21.999c2 -5.33301 3.66699 -11.166 5 -17.499s2 -12.5 2 -18.5c0 -12.667 -1.66699 -25 -5 -37v1c-0.666992 -1.33301 -1.5 -3.83301 -2.5 -7.5s-2.5 -8.5 -4.5 -14.5h1c-4.66699 -16.667 -13 -30.334 -25 -41.001c-7.33301 -6 -15.333 -12 -24 -18
s-17.667 -11.667 -27 -17l20.5 -10c5.66699 -2.66699 12.167 -6 19.5 -10c50.667 -27.333 85.667 -58.333 105 -93c6 -10 9 -25 9 -45c0 -49.333 -32 -93 -96 -131z" />
    <glyph glyph-name="nine" unicode="9" horiz-adv-x="672" 
d="M525 396c4 -28 4.66406 -47.3389 1.99707 -58.0059c-11.333 -30 -22 -55.667 -32 -77s-20.333 -39 -31 -53l-24 -30l-23 -29l-48 -60l-34 -39.5l-28 -32.5l-25 -28.5l-25 -28.5c-13.333 -15.333 -23.5 -28.833 -30.5 -40.5s-9.83301 -20.167 -8.5 -25.5
c0 -1.33301 0.166992 -2.16602 0.5 -2.49902s0.5 -0.833008 0.5 -1.5v-2c1.33301 -1.33301 2.5 -2.16602 3.5 -2.49902s2.16699 -0.833008 3.5 -1.5c5.33301 -2.66699 9.33301 -7.33398 12 -14.001c0 -1.33301 -0.166992 -2.66602 -0.5 -3.99902s-1.5 -5 -3.5 -11l-14.5 -5
c-5.66699 -2 -9.16699 -3.33301 -10.5 -4c-4 -0.666992 -11.5 0.333008 -22.5 3s-23.5 6.33398 -37.5 11.001c-17.333 6.66699 -31.166 14 -41.499 22s-16.166 16.667 -17.499 26c-1.33301 12.667 35.334 62.667 110.001 150v1c7.33301 9.33301 14.666 17.833 21.999 25.5
l19 19.5c2.66699 5.33301 7.33398 12.333 14.001 21c4.66699 5.33301 7 8.66602 7 9.99902c-1.33301 4.66699 -8.33301 9.33398 -21 14.001c-1.33301 0.666992 -3.33301 1.16699 -6 1.5s-5.66699 1.16602 -9 2.49902c-1.33301 0.666992 -3.33301 1.33398 -6 2.00098
s-6 1.33398 -10 2.00098c-7.33301 1.33301 -14.333 3.66602 -21 6.99902l-20 10l-41 24.5c-12 7 -21.667 14.167 -29 21.5c-32.667 28.667 -53.334 52.334 -62.001 71.001l1 -1c-4 4.66699 -8.33301 8.66699 -13 12c-8.66699 19.333 -14.667 39.333 -18 60
s-4.33301 39 -3 55c2.66699 24 14 49.333 34 76c10.667 13.333 20.667 24.5 30 33.5s19.666 15.833 30.999 20.5c4.66699 3.33301 8.66699 6.33301 12 9s6 4.66699 8 6c16.667 6 30.334 10.5 41.001 13.5s17.667 4.83301 21 5.5c14 2 28 3 42 3c23.333 0 44 -2.33301 62 -7
c1.33301 0 2.5 -0.166992 3.5 -0.5s1.83301 -0.5 2.5 -0.5c3.33301 -0.666992 8 -1 14 -1c22 -6.66699 42 -13.667 60 -21s33.667 -14.666 47 -21.999c66.667 -39.333 104.334 -84.666 113.001 -135.999zM416.997 410.994c0 30.667 -18.9971 53.001 -56.9971 67.001
c-15.333 6 -31.166 10.667 -47.499 14s-34.166 5 -53.499 5c-13.333 0 -25.333 -1 -36 -3l2 1c-2 -0.666992 -4 -1.66699 -6 -3s-4.66699 -3 -8 -5c-12.667 -4.66699 -22.334 -8.5 -29.001 -11.5s-11.667 -5.5 -15 -7.5c-19.333 -15.333 -33.5 -35.333 -42.5 -60
s-11.833 -47.667 -8.5 -69l-1 2c6 -12 13.333 -24.333 22 -37c7.33301 -11.333 16.666 -22.166 27.999 -32.499s24.666 -20.5 39.999 -30.5c33.333 -18.667 61.666 -28 84.999 -28c2 0 4.83301 0.166992 8.5 0.5s6.5 0.833008 8.5 1.5c6 0.666992 10 2 12 4
c12.667 15.333 24.5 31.5 35.5 48.5l32.5 51.5c9.33301 17.333 16.666 33.666 21.999 48.999s8 29.666 8 42.999z" />
    <glyph glyph-name="colon" unicode=":" 
d="M199 58c0 -20 -12.001 -37.667 -36.001 -53c-18 -12 -35.333 -18 -52 -18c-6 0 -14.167 2.66699 -24.5 8s-23.166 12.666 -38.499 21.999c-32.667 22.667 -49 41.334 -49 56.001c0 44.667 32.667 67 98 67c68 0 102 -27.333 102 -82zM198.999 402
c0 -20 -12.001 -38.333 -36.001 -55c-17.333 -11.333 -34.666 -17 -51.999 -17c-11.333 0 -32.333 10 -63 30c-32.667 22 -49 40.333 -49 55c0 44.667 32.667 67 98 67c68 0 102 -26.667 102 -80z" />
    <glyph glyph-name="semicolon" unicode=";" 
d="M190 402c0 -20 -11 -37.999 -33 -53.999c-18 -12 -33.667 -18 -47 -18c-11.333 0 -30.333 10 -57 30c-29.333 21.333 -44 39.666 -44 54.999c0 44.667 29.333 67 88 67c62 0 93 -26.667 93 -80zM186 40.001c0 -25.333 -10 -53.332 -30 -83.999
c-21.333 -34 -47 -56.667 -77 -68c-17.333 -6 -27 -9 -29 -9h-22v20c-0.666992 5.33301 1.33301 12.333 6 21c1.33301 3.33301 3 6.83301 5 10.5l6 10.5c1.33301 4.66699 4.33301 10.334 9 17.001l9 20.5c2.66699 6.33301 4 11.5 4 15.5c0 5.33301 -1 10 -3 14
c-1.33301 2 -4.33301 5.83301 -9 11.5l-20 24.5c-13.333 15.333 -20 30.666 -20 45.999c0 18 6.83301 33 20.5 45s29.5 18 47.5 18c15.333 0 29.833 -4 43.5 -12s25.167 -18 34.5 -30c16.667 -22.667 25 -46.334 25 -71.001z" />
    <glyph glyph-name="less" unicode="&#x3c;" horiz-adv-x="509" 
d="M240 33c-20.667 46.667 -55.001 89.666 -103.001 128.999l-35 25.5l-38 27.5l-37.5 27.5c-12.333 9 -23.5 17.5 -33.5 25.5c51.333 13.333 99 42 143 86c42 42.667 66.333 85.334 73 128.001l108 16c-5.33301 -23.333 -13.666 -46.833 -24.999 -70.5
s-25 -45.834 -41 -66.501c-33.333 -43.333 -68.333 -73.666 -105 -90.999c104.667 -79.333 167.667 -150.333 189 -213z" />
    <glyph glyph-name="equal" unicode="=" horiz-adv-x="681" 
d="M421 332l-10 -0.000976562c-2 0 -4.5 0.666992 -7.5 2s-6.16699 2.66602 -9.5 3.99902l-20 6c-7.33301 -1.33301 -16 -2.16602 -26 -2.49902s-20.667 -1.16602 -32 -2.49902c-16 -1.33301 -32.5 -3 -49.5 -5s-33.167 -3.66699 -48.5 -5c-20 -2 -38.333 -3.33301 -55 -4
s-31.667 -0.666992 -45 0c-32.667 0.666992 -60.334 13.334 -83.001 38.001c-10 12 -15 24.667 -15 38l10 10c5.33301 0 10 -1 14 -3l12 -6c3.33301 -2 6.83301 -3.66699 10.5 -5s6.5 -2.33301 8.5 -3c8.66699 1.33301 17.834 2.33301 27.501 3s18.834 1.66699 27.501 3
c16 1.33301 31.833 3 47.5 5l46.5 6c19.333 2 36.833 3.5 52.5 4.5s30.167 1.16699 43.5 0.5c17.333 -0.666992 33.666 -4.83398 48.999 -12.501s30 -18.5 44 -32.5l-1 1c6 -4.66699 12.667 -14.667 20 -30zM421 204.999l-10.0029 -0.00292969c-4 0.666992 -9.66699 3 -17 7
l-20 6c-7.33301 -1.33301 -16 -2.16602 -26 -2.49902s-20.667 -1.16602 -32 -2.49902c-16 -1.33301 -32.5 -3 -49.5 -5s-33.167 -4 -48.5 -6c-20 -2 -38.333 -3.33301 -55 -4s-31.667 -0.666992 -45 0c-32 0.666992 -59.667 13.334 -83 38.001
c-10 12.667 -15 25.334 -15 38.001l10 11c5.33301 0 10 -1 14 -3l12 -6c3.33301 -2.66699 6.83301 -4.66699 10.5 -6s6.5 -2.33301 8.5 -3c8.66699 1.33301 17.834 2.33301 27.501 3s18.834 1.66699 27.501 3l47.5 6l46.5 6c19.333 2 36.833 3.5 52.5 4.5
s30.167 1.16699 43.5 0.5c17.333 -0.666992 33.5 -4.83398 48.5 -12.501s29.5 -18.167 43.5 -31.5c4.66699 -4 11.334 -14 20.001 -30z" />
    <glyph glyph-name="greater" unicode="&#x3e;" horiz-adv-x="424" 
d="M-3 67c19.333 55.333 81.333 122.999 186 202.999c-36 16.667 -71 47 -105 91c-33.333 42.667 -55.666 88.334 -66.999 137.001l108 -16c7.33301 -43.333 31.333 -86 72 -128c21.333 -22 44.166 -40 68.499 -54s49.833 -24.667 76.5 -32l-34.5 -25.5l-37.5 -27.5
l-37.5 -27.5l-34.5 -25.5c-25.333 -20.667 -46.5 -42 -63.5 -64s-30.167 -43.667 -39.5 -65l-85 21z" />
    <glyph glyph-name="question" unicode="?" horiz-adv-x="754" 
d="M499 58c0 -20 -12 -37.668 -36 -53.001c-18 -12 -35.333 -18 -52 -18c-10.667 0 -31.667 10 -63 30c-32.667 22.667 -49 41.334 -49 56.001c0 44.667 32.667 67 98 67c68 0 102 -27.333 102 -82zM683 507.999c5.33301 -48.667 -33.665 -92.998 -116.998 -132.998
c-6 -3.33301 -16.833 -6.5 -32.5 -9.5l-57.5 -11.5c-7.33301 -1.33301 -14.333 -2.5 -21 -3.5s-11.667 -1.83301 -15 -2.5l2 1c-3.33301 -1.33301 -5.66602 -2 -6.99902 -2h-4c-1.33301 0 -8.33301 -2 -21 -6c-2 -0.666992 -4.66699 -1.33398 -8 -2.00098
s-5.66602 -1.33398 -6.99902 -2.00098c-2 -0.666992 -5 -1 -9 -1c-26 -2.66699 -38.667 -13 -38 -31c1.33301 -8.66699 8 -17.667 20 -27c3.33301 -4 11.333 -9.33301 24 -16h-1c5.33301 -2.66699 10.5 -4.83398 15.5 -6.50098s9.5 -2.5 13.5 -2.5
c5.33301 1.33301 15.333 3 30 5c7.33301 1.33301 13.5 2.66602 18.5 3.99902s8.83301 3 11.5 5l-2 -1l20 24c4.66699 4.66699 11 7 19 7c17.333 0 34.333 -7.33301 51 -22c19.333 -15.333 29 -31.666 29 -48.999c0 -36.667 -40.667 -58.334 -122 -65.001
c-7.33301 -0.666992 -14.166 -1.16699 -20.499 -1.5s-11.833 -0.5 -16.5 -0.5c-34 0 -65 7 -93 21c-27.333 14 -62.333 40 -105 78l-5 9c-5.33301 6 -9 11.333 -11 16c-5.33301 8.66699 -9.66602 16.667 -12.999 24s-5.33301 13.666 -6 18.999
c-2.66699 20.667 7.66602 40.667 30.999 60c15.333 12 33.333 20.667 54 26l42 11l52 14l20 4c6.66699 1.33301 9.33398 1.66602 8.00098 0.999023c4 1.33301 8.16699 2.83301 12.5 4.5s9.16602 3.16699 14.499 4.5c13.333 5.33301 26.333 10.833 39 16.5
s22.667 11.834 30 18.501c20.667 20.667 30 46 28 76c-2 16 -6 27 -12 33c-8.66699 9.33301 -19 17.666 -31 24.999s-24.833 13.333 -38.5 18s-27.334 8.16699 -41.001 10.5s-26.834 3.16602 -39.501 2.49902c-2.66699 -0.666992 -4.83398 -1.16699 -6.50098 -1.5l-7.5 -1.5
c-3.33301 -0.666992 -6.5 -1.16699 -9.5 -1.5s-6.16699 -0.833008 -9.5 -1.5c-56.667 -7.33301 -106 -28 -148 -62c-2.66699 -1.33301 -6.16699 -3.83301 -10.5 -7.5s-9.16602 -8.5 -14.499 -14.5c-8.66699 -9.33301 -16.334 -14.666 -23.001 -15.999
c-14.667 -1.33301 -31.334 4.33398 -50.001 17.001v-1c-20.667 13.333 -39.334 33 -56.001 59c-7.33301 12.667 9.33398 31.334 50.001 56.001c10.667 5.33301 21.334 11 32.001 17l33 19l15.5 8l20.5 11c16 6 29.333 10.333 40 13s18 4.33398 22 5.00098
c47.333 4 80.666 5 99.999 3c37.333 -3.33301 64.666 -8.66602 81.999 -15.999l39 -19c16 -8 33.333 -17.667 52 -29l51.5 -32c15.667 -10 28.167 -18.667 37.5 -26c42 -34 65 -74.667 69 -122z" />
    <glyph glyph-name="at" unicode="@" horiz-adv-x="1226" 
d="M592 224c0 3.33301 -3.99707 13.335 -11.9971 30.002s-19.667 39.667 -35 69c-3.33301 5.33301 -6.5 10.666 -9.5 15.999s-5.5 9.33301 -7.5 12c-6.66699 -5.33301 -14.667 -13.333 -24 -24l-34 -40c-0.666992 -0.666992 -1 -1.16699 -1 -1.5
s-0.333008 -0.833008 -1 -1.5l-2 -2l-5.5 -9c-1.66699 -2.66699 -2.5 -3.33398 -2.5 -2.00098c-0.666992 -1.33301 -1.5 -2.5 -2.5 -3.5s-1.83301 -2.16699 -2.5 -3.5l-17 -23c-13.333 -17.333 -20 -29.333 -20 -36c0 -8 3.66699 -13.667 11 -17
c16 -11.333 29.667 -17 41 -17c8 0 17.167 1.16699 27.5 3.5s21.5 5.5 33.5 9.5h-1c3.33301 1.33301 8.16602 3.5 14.499 6.5s13.833 6.83301 22.5 11.5c1.33301 1.33301 2.66602 2.5 3.99902 3.5s2.66602 2.16699 3.99902 3.5h1c12 8 18 13 18 15zM793.003 161.002
c11.333 1.33301 26.6689 7.00391 46.002 17.0039c21.333 10.667 35 19 41 25c8 8.66699 13 17 15 25l12 35.5l12 35.5c5.33301 23.333 9.83301 46.5 13.5 69.5s5.5 44.5 5.5 64.5c0 110.667 -44 197 -132 259c-16 12 -38.667 22.333 -68 31c-26 9.33301 -42.667 14 -50 14
v15c-1.33301 -2.66699 -4 -5.66699 -8 -9s-9.66699 -4.66602 -17 -3.99902c-6.66699 0.666992 -12.5 0.833984 -17.5 0.500977s-9.16699 -0.833008 -12.5 -1.5h1l-28.5 -6l-28.5 -6c-36.667 -6.66699 -72 -16.334 -106 -29.001s-66.333 -27.667 -97 -45
c-74.667 -43.333 -129 -97.666 -163 -162.999v1c-4 -8 -7.83301 -16.333 -11.5 -25s-7.16699 -18 -10.5 -28l-10.5 -24c-3.66699 -8.66699 -6.83398 -17 -9.50098 -25l-3 -9h1c-14 -53.333 -20.667 -92.333 -20 -117c0.666992 -44 4.16699 -82.333 10.5 -115
s16.5 -60.334 30.5 -83.001c14.667 -24.667 37.167 -48 67.5 -70s64.5 -41 102.5 -57c22 -8.66699 41.667 -15.334 59 -20.001s30.666 -7 39.999 -7c3.33301 0 12.666 -1 27.999 -3c16.667 -2 25.667 -3 27 -3c16 0 55.667 8.66699 119 26l67 19.5
c16.667 5 27.334 8.5 32.001 10.5l26.5 11l40.5 18c37.333 16.667 60 25 68 25c17.333 0 26 -6.66699 26 -20c0 -10 -11 -22.333 -33 -37c-6 -3.33301 -12.5 -6.66602 -19.5 -9.99902s-14.167 -7 -21.5 -11c-15.333 -8 -32.333 -16.333 -51 -25s-40 -17.667 -64 -27
c-57.333 -22.667 -101.333 -36.334 -132 -41.001c-34.667 -5.33301 -64 -9.33301 -88 -12s-42.333 -4 -55 -4c-29.333 0 -68 5 -116 15c-50 10.667 -95 26.5 -135 47.5s-72.333 47.5 -97 79.5c-14 18 -27.667 48.333 -41 91c-12 42 -18 77 -18 105
c0 57.333 11 119.666 33 186.999c24.667 77.333 59.167 145.666 103.5 204.999s98.833 110.666 163.5 153.999c112.667 74.667 235 112 367 112c12 0 24 -0.333008 36 -1s23.333 -1.66699 34 -3c88 -13.333 156 -47.5 204 -102.5s72 -131.167 72 -228.5
c0 -65.333 -10.667 -140 -32 -224l-2 -4c-0.666992 -1.33301 -1.33398 -2.83301 -2.00098 -4.5s-1.33398 -3.16699 -2.00098 -4.5c0 -5.33301 -3.33301 -12.5 -10 -21.5s-13 -19.167 -19 -30.5c-5.33301 -9.33301 -12 -18.5 -20 -27.5s-17 -16.5 -27 -22.5
c-7.33301 -4.66699 -15.5 -9.33398 -24.5 -14.001s-19.167 -9.66699 -30.5 -15c-26.667 -12.667 -46.667 -19.667 -60 -21h-59h-40c-10.667 0 -17.667 0.333008 -21 1c-5.33301 0.666992 -10.666 3.16699 -15.999 7.5s-11.666 10.166 -18.999 17.499
c-0.666992 2.66699 -2.33398 5.33398 -5.00098 8.00098l-6.5 8.5l-8.5 11.5c-1.33301 3.33301 -3 6.66602 -5 9.99902s-4.33301 5 -7 5c-3.33301 0 -10.333 -2.83301 -21 -8.5s-24.667 -14.5 -42 -26.5c-24.667 -14.667 -45.334 -24.667 -62.001 -30
c-10 -2.66699 -28 -4 -54 -4c-32.667 0 -59 3 -79 9c-6 1.33301 -12.167 4.33301 -18.5 9s-13.166 10 -20.499 16c-14.667 14.667 -22 28 -22 40c0 9.33301 31.667 52.333 95 129c5.33301 5.33301 11.166 12 17.499 20s13.833 16.667 22.5 26c1.33301 1.33301 20 22 56 62v5
c0 19.333 -18.333 49.333 -55 90c-1.33301 1.33301 -3.66602 2.5 -6.99902 3.5s-11.666 2.16699 -24.999 3.5c-15.333 0.666992 -27.333 5.66699 -36 15v17c5.33301 4 9.5 6.5 12.5 7.5s6.16699 1.83301 9.5 2.5l43 2h14c4 0.666992 7.66699 1 11 1h6h6.5
c3 0 6.16699 -0.333008 9.5 -1h14c22 0 44.833 -11.833 68.5 -35.5s46.5 -55.5 68.5 -95.5c4 -6.66699 8.33301 -14.5 13 -23.5l16 -30.5c1.33301 -2 2.5 -3.83301 3.5 -5.5s2.16699 -3.5 3.5 -5.5l26 -54.5l36 -77.5c17.333 -37.333 39.333 -59.666 66 -66.999h-2h2h1h-1z
" />
    <glyph glyph-name="A" unicode="A" horiz-adv-x="1181" 
d="M608 243c0 1.33301 -3.16797 8.83496 -9.50098 22.502l-26.5 59.5l-63 129c-21.333 40 -36.666 61.667 -45.999 65c-11.333 -8 -22.166 -17.167 -32.499 -27.5s-21.5 -22.5 -33.5 -36.5v1c-5.33301 -6.66699 -10.5 -12.834 -15.5 -18.501s-10.167 -11.834 -15.5 -18.501
s-10.666 -13 -15.999 -19l-16 -18l-18.5 -23c-5 -6 -8.16699 -10.667 -9.5 -14c-3.33301 -5.33301 -6.83301 -10.166 -10.5 -14.499s-7.5 -9.16602 -11.5 -14.499s-7.83301 -10.166 -11.5 -14.499s-7.16699 -9.16602 -10.5 -14.499c-12.667 -17.333 -22.667 -33.5 -30 -48.5
s-11 -26.5 -11 -34.5c0 -20.667 14.667 -39.667 44 -57c30 -16.667 54.333 -25 73 -25c6.66699 0 24.667 3 54 9c17.333 3.33301 32.666 6.66602 45.999 9.99902s24 6.66602 32 9.99902c5.33301 2 14.166 6.16699 26.499 12.5s28.166 15.166 47.499 26.499v-1
c1.33301 1.33301 3 2.66602 5 3.99902s4.33301 3 7 5l6 4c2 1.33301 4.33301 3 7 5c12.667 9.33301 22.334 16.833 29.001 22.5s10 10.167 10 13.5zM1061 11.002l-13.0068 -8.99707c-1.33301 -0.666992 -3 -1.66699 -5 -3s-3.66699 -2.33301 -5 -3
c-5.33301 -0.666992 -18.333 -1 -39 -1h-84h-123c-16.667 0.666992 -40 18.667 -70 54v-1c-3.33301 3.33301 -7.5 8.33301 -12.5 15l-17.5 23l-8 11l-4 8c-1.33301 2.66699 -2.5 5.16699 -3.5 7.5s-3.16699 6.5 -6.5 12.5l1 -1c-6 9.33301 -13 14 -21 14
c-1.33301 0 -7.16602 -2.33301 -17.499 -7s-24.166 -11.334 -41.499 -20.001l-43.5 -25l-35.5 -21v1c-51.333 -33.333 -94.333 -54.333 -129 -63c-22.667 -5.33301 -58 -8 -106 -8c-32 0 -61.667 1.5 -89 4.5s-51.666 7.83301 -72.999 14.5
c-11.333 2.66699 -23.166 7.83398 -35.499 15.501s-25.5 17.834 -39.5 30.501c-30.667 28.667 -46 54.334 -46 77.001c0 8 17.167 34.833 51.5 80.5s82.833 106.834 145.5 183.501c1.33301 1.33301 2.83301 3.16602 4.5 5.49902s3.16699 4.16602 4.5 5.49902l32.5 37
l40.5 47c3.33301 3.33301 42 46 116 128c1.33301 2 2.5 4.66699 3.5 8s1.5 6.66602 1.5 9.99902c0 19.333 -10.167 45.333 -30.5 78s-49.5 70 -87.5 112c-4.66699 4.66699 -11.667 9 -21 13s-27.333 7.33301 -54 10c-26.667 2 -49 10.333 -67 25v25
c14 9.33301 27.667 14.333 41 15l85 6h33c7.33301 0.666992 14.5 1 21.5 1h12.5h9.5c5 0 12.167 -0.333008 21.5 -1c8.66699 -0.666992 15.5 -1 20.5 -1h9.5c44.667 0 90.334 -23 137.001 -69s93.334 -112.667 140.001 -200c8.66699 -14 19.334 -32.5 32.001 -55.5l43 -78.5
l46.5 -99l63.5 -134c3.33301 -6.66699 6.33301 -13.334 9 -20.001s5.66699 -13.334 9 -20.001c17.333 -38.667 39.333 -75.334 66 -110.001c31.333 -41.333 58.333 -65 81 -71c4 -1.33301 9.66699 -4.33301 17 -9l29 -19v-29z" />
    <glyph glyph-name="B" unicode="B" horiz-adv-x="972" 
d="M619 629c0 5.33301 -0.663086 11.3379 -1.99609 18.0049s-3 14 -5 22c-20.667 65.333 -57.334 98.333 -110.001 99c-8.66699 0 -18.667 -2.33301 -30 -7c-23.333 -9.33301 -35.666 -14.333 -36.999 -15c-6.66699 -2.66699 -16.167 -8.33398 -28.5 -17.001
s-27.166 -19.667 -44.499 -33c-42.667 -32.667 -64 -56 -64 -70v-95v-7.5c0 -3.66699 0.333008 -8.16699 1 -13.5c0 -2 0.166992 -4.16699 0.5 -6.5s0.5 -4.5 0.5 -6.5c0.666992 -3.33301 1 -7 1 -11v-10c2.66699 -3.33301 9 -5 19 -5c1.33301 0.666992 3 1 5 1h5.5
c2.33301 0 5.16602 0.333008 8.49902 1c4.66699 1.33301 8.66699 2.16602 12 2.49902s6.33301 0.833008 9 1.5c1.33301 0 2.66602 0.166992 3.99902 0.5s2.66602 0.5 3.99902 0.5c17.333 1.33301 40.666 6 69.999 14c8.66699 3.33301 18.667 6.66602 30 9.99902
c4.66699 1.33301 9.66699 2.66602 15 3.99902l16 4c47.333 15.333 83.666 38.666 108.999 69.999c7.33301 10.667 11 27 11 49zM660.004 211.005c1.33301 51.333 -14.668 96.666 -48.001 135.999c-34 38.667 -75.667 58 -125 58h-2.5c-1 0 -3.16699 -0.333008 -6.5 -1
c-2.66699 -0.666992 -6.33398 -1.16699 -11.001 -1.5s-9.66699 -0.833008 -15 -1.5s-10 -1.16699 -14 -1.5s-8 -0.833008 -12 -1.5h1c-6 -1.33301 -11.667 -2.16602 -17 -2.49902s-9.66602 -0.833008 -12.999 -1.5c-16.667 -2 -33.667 -5.33301 -51 -10
c-8 -2 -14 -3.66699 -18 -5s-6.66699 -2.33301 -8 -3c-9.33301 -2.66699 -14.666 -7 -15.999 -13c-3.33301 -18.667 -5 -43 -5 -73v-13c0 -7.33301 0.333008 -17.666 1 -30.999c0.666992 -8 1.16699 -15.167 1.5 -21.5s0.5 -11.166 0.5 -14.499v-6l1 -107
c0 -4 2.5 -7.16699 7.5 -9.5s11.5 -4.5 19.5 -6.5c14.667 -3.33301 27.334 -5 38.001 -5c1.33301 0 6.33301 0.666992 15 2s20.667 3.33301 36 6c1.33301 0 3 0.166992 5 0.5s3.66699 0.5 5 0.5c5.33301 0.666992 12.166 1.16699 20.499 1.5s16.5 0.833008 24.5 1.5
c15.333 2.66699 31.333 7 48 13s34.667 13 54 21c26 13.333 46.5 27.666 61.5 42.999s22.5 30.666 22.5 45.999zM823.003 302.005c0 -98.667 -62.667 -180.66 -188 -245.993c-40 -20 -81.167 -36.667 -123.5 -50s-86.166 -23 -131.499 -29h1
c-22 -3.33301 -45.167 -5.83301 -69.5 -7.5s-49.833 -2.5 -76.5 -2.5c-52.667 0 -85.334 4 -98.001 12c-10 6.66699 -17.667 19.667 -23 39s-8.33301 42.666 -9 69.999c0 23.333 -0.166992 48.166 -0.5 74.499l-1 80l-1 80c-0.333008 26.333 -0.5 51.166 -0.5 74.499v20
c0 8 -0.333008 17 -1 27c0 4.66699 -0.166992 9.5 -0.5 14.5s-0.5 10.167 -0.5 15.5s-0.166992 10.166 -0.5 14.499s-0.5 8.83301 -0.5 13.5c-0.666992 10 -1 20.333 -1 31v25c0 4.66699 -1 15 -3 31c-0.666992 5.33301 -1.16699 9.5 -1.5 12.5s-0.5 6.5 -0.5 10.5v5h18
c-2.66699 4 -6.16699 16.167 -10.5 36.5s-5.83301 49.166 -4.5 86.499c0 9.33301 1.33301 20.666 4 33.999c0.666992 2 1.16699 4.16699 1.5 6.5s0.833008 4.16602 1.5 5.49902l-1 -1c0.666992 1.33301 1 2.83301 1 4.5s0.333008 3.16699 1 4.5
c0 1.33301 0.333008 2.33301 1 3c0 5.33301 -1.83301 9.83301 -5.5 13.5s-7.16699 5.5 -10.5 5.5c-1.33301 0 -17.333 -7 -48 -21c-33.333 -14 -52.333 -21 -57 -21c-23.333 0 -35 8.66699 -35 26c0 30.667 47 62 141 94c39.333 13.333 71.833 23.166 97.5 29.499
s44.834 9.5 57.501 9.5c35.333 0 53 -12.667 53 -38v-8c0 -3.33301 -0.166992 -7.16602 -0.5 -11.499s-0.833008 -9.16602 -1.5 -14.499c-0.666992 -7.33301 -1 -13.833 -1 -19.5v-10.5l-1 -67c-0.666992 -8 0.333008 -12 3 -12c0.666992 0 8 5.16699 22 15.5l56 43.5
l74.5 57.5c20.333 15 36.166 25.5 47.499 31.5c22.667 14 51 21 85 21c41.333 0 77.166 -12.833 107.499 -38.5s55.5 -62.834 75.5 -111.501c2 -4.66699 3.33301 -11.834 4 -21.501s1 -21.834 1 -36.501c0 -27.333 -0.666992 -42.666 -2 -45.999
c-5.33301 -11.333 -12.166 -24.166 -20.499 -38.499s-18.833 -28.833 -31.5 -43.5v1c-5.33301 -5.33301 -11.166 -11.666 -17.499 -18.999l-21.5 -25c-2 -2 -4.5 -4.66699 -7.5 -8s-3.83301 -4.33301 -2.5 -3l-1 -1c1.33301 -2.66699 4.33301 -4 9 -4
c42 -12.667 80.333 -47 115 -103v1c14 -21.333 22 -37 24 -47c3.33301 -16 5.66602 -30.333 6.99902 -43s2 -23.334 2 -32.001z" />
    <glyph glyph-name="C" unicode="C" horiz-adv-x="983" 
d="M824 815c0 -34.667 -12.6631 -66.668 -37.9961 -96.001c-25.333 -28 -56.666 -42 -93.999 -42c-25.333 0 -38 8 -38 24c0 2.66699 2.16699 6.5 6.5 11.5s10.166 10.167 17.499 15.5c1.33301 1.33301 2.66602 2.83301 3.99902 4.5s2.66602 2.83398 3.99902 3.50098l14 12
c4.66699 4 8.66699 8 12 12c2.66699 3.33301 4 6.33301 4 9c0 14 -13.667 25.667 -41 35c-22 7.33301 -40.667 11 -56 11c-1.33301 0 -28.333 -5.33301 -81 -16c-58 -11.333 -110 -33 -156 -65c-54 -36.667 -95.333 -83 -124 -139v1l-10.5 -22
c-3.66699 -7.33301 -7.16699 -15.666 -10.5 -24.999c-2.66699 -6 -5.33398 -13 -8.00098 -21l-9 -26h1c-12.667 -42.667 -19 -75.334 -19 -98.001c0 -52 13.667 -102.333 41 -151c30.667 -56 75.334 -97.667 134.001 -125c16.667 -7.33301 31.5 -12.833 44.5 -16.5
s24.5 -5.5 34.5 -5.5c5.33301 0 13.666 -1 24.999 -3l18 -2h6c13.333 0 36.666 3.33301 69.999 10c11.333 2.66699 21.166 4.66699 29.499 6s14.833 2.66602 19.5 3.99902h3c8.66699 3.33301 18 7.5 28 12.5l28 13.5c34.667 15.333 56.667 23 66 23c24.667 0 37 -11 37 -33
c0 -15.333 -11.667 -30.666 -35 -45.999c-6 -2.66699 -12.167 -5.66699 -18.5 -9l-18.5 -10c-35.333 -19.333 -69.333 -34.5 -102 -45.5s-64 -18.833 -94 -23.5h1c-61.333 -10 -107.666 -15 -138.999 -15c-12.667 0 -27.667 1 -45 3s-36.666 5.33301 -57.999 10
c-45.333 9.33301 -86.166 24.166 -122.499 44.499s-65.833 44.5 -88.5 72.5c-14.667 17.333 -27.334 45.333 -38.001 84c-10.667 36.667 -16 68.334 -16 95.001c0 24.667 2.5 51.667 7.5 81s12.167 58.333 21.5 87c24 72.667 59 138.5 105 197.5s102.333 108.833 169 149.5
v-1c115.333 71.333 236.666 107 363.999 107c96.667 0 145 -34.333 145 -103z" />
    <glyph glyph-name="D" unicode="D" horiz-adv-x="1139" 
d="M811 388c0 12 -3.33398 26.332 -10.001 42.999s-16 35.667 -28 57c-10 16.667 -20.667 32.667 -32 48s-21.666 28.333 -30.999 39c-26.667 27.333 -54.5 54.5 -83.5 81.5l-84.5 75.5c-6 5.33301 -18.333 8 -37 8c-50.667 0 -106.334 -26.333 -167.001 -79
c-28 -24.667 -53.167 -52.334 -75.5 -83.001s-39.5 -59.334 -51.5 -86.001l-18 -49c-4.66699 -12.667 -7 -20.334 -7 -23.001c0 -21.333 3.66699 -43.5 11 -66.5s17 -45.5 29 -67.5c4 -7.33301 9.5 -15.666 16.5 -24.999s15.167 -18.666 24.5 -27.999
c12 -11.333 23.333 -21.333 34 -30s21.334 -15.667 32.001 -21h-1c5.33301 -3.33301 15.5 -6.66602 30.5 -9.99902l54.5 -12c2.66699 0 6.66699 -1 12 -3h-1l12.5 -4c4.33301 -1.33301 7.83301 -2 10.5 -2c30 0 63.667 5.5 101 16.5s75 25.5 113 43.5
c46 24.667 81.833 51.834 107.5 81.501s38.5 61.5 38.5 95.5zM984.999 448.999c0 -100 -55.3311 -197.328 -165.998 -291.995c-22 -18 -48.833 -36.667 -80.5 -56s-68.5 -39.333 -110.5 -60c-4 -0.666992 -9.33301 -2 -16 -4s-12.667 -4 -18 -6
c-28 -13.333 -58.667 -23.833 -92 -31.5s-66.666 -11.5 -99.999 -11.5c-12.667 0 -28.834 1 -48.501 3s-43.5 5.33301 -71.5 10c-11.333 7.33301 -26.333 14.666 -45 21.999l1 -1c-21.333 6 -42.833 16 -64.5 30s-44.5 32 -68.5 54c-46.667 44 -76 86.667 -88 128
c-1.33301 3.33301 -2.5 9.5 -3.5 18.5s-2.5 20.833 -4.5 35.5c0 2 -0.166992 3.83301 -0.5 5.5s-0.5 3.16699 -0.5 4.5c-1.33301 9.33301 -2.33301 18.166 -3 26.499s-1 12.166 -1 11.499c0 20 1 39.667 3 59s5.66699 38.666 11 57.999c7.33301 8.66699 14.333 20 21 34
l-1 -2c7.33301 32 38 82 92 150c26.667 32.667 65.334 69 116.001 109c24 18 47.333 32.667 70 44c66 32.667 99 55 99 67c0 1.33301 -1.83301 4.66602 -5.5 9.99902s-8.16699 10.666 -13.5 15.999c-7.33301 6.66699 -14 13 -20 19l-14 14l-32 34.5l-45 46.5
c-124 164 -186 255.333 -186 274c0 34.667 36.333 73.334 109 116.001c62.667 37.333 105.334 56 128.001 56c2 0 4.83301 -0.166992 8.5 -0.5s6.5 -0.833008 8.5 -1.5c3.33301 -0.666992 7.16602 -1.66699 11.499 -3l12.5 -4c1.33301 -2 2.66602 -4.83301 3.99902 -8.5
s2 -7.16699 2 -10.5c0 -10 -9 -20.667 -27 -32c-16.667 -9.33301 -27.667 -18.333 -33 -27c-2 -4 -3 -9.33301 -3 -16c0 -12 7.66699 -30.833 23 -56.5s37.666 -57.5 66.999 -95.5l59.5 -73.5c18.333 -21.667 33.5 -38.834 45.5 -51.501l39 -35
c15.333 -14 32.666 -30.667 51.999 -50l58.5 -57.5l58.5 -57.5l58.5 -57l59.5 -57c60 -63.333 103 -127.333 129 -192c10 -25.333 15 -60.666 15 -105.999z" />
    <glyph glyph-name="E" unicode="E" horiz-adv-x="951" 
d="M843 792c0 -20.667 -10.998 -41 -32.998 -61v1c-22.667 -19.333 -42.667 -29 -60 -29s-30 10 -38 30c-8 19.333 -18 33.333 -30 42c-6.66699 5.33301 -16.167 10.166 -28.5 14.499s-27.166 9.16602 -44.499 14.499c-35.333 10 -65 15 -89 15
c-49.333 0 -98.666 -15.667 -147.999 -47h1c-54 -36 -95.333 -83.333 -124 -142c-14.667 -28.667 -22 -46 -22 -52c-1.33301 -17.333 1.33398 -28 8.00098 -32h-1c4 -1.33301 11.333 -2 22 -2h155c1.33301 0 5.5 -0.333008 12.5 -1l21.5 -2c18.667 -2 29.667 -3 33 -3h225
c17.333 0 34.666 -3 51.999 -9c26.667 -8.66699 40 -22.667 40 -42c0 -17.333 -14.667 -35.666 -44 -54.999c-12 -8 -22.167 -14.5 -30.5 -19.5s-16.166 -8.5 -23.499 -10.5h1c-7.33301 -3.33301 -16.666 -5 -27.999 -5c-8.66699 0 -24.334 6.66699 -47.001 20
c-10 6 -19.667 10.667 -29 14s-17.333 5.33301 -24 6c-17.333 0 -35.5 -0.166992 -54.5 -0.5l-58 -1l-58 -1c-19 -0.333008 -36.833 -0.5 -53.5 -0.5h-5c-5.33301 -0.666992 -14.5 -1.33398 -27.5 -2.00098s-28.167 -1.66699 -45.5 -3c-31.333 -2 -47.333 -5.33301 -48 -10
c-2 -16 -3 -27 -3 -33c1.33301 -5.33301 2.66602 -12.833 3.99902 -22.5s2.66602 -20.167 3.99902 -31.5c0.666992 -1.33301 1 -2.83301 1 -4.5s0.333008 -3.83398 1 -6.50098c7.33301 -66.667 44.666 -121.334 111.999 -164.001c59.333 -40.667 117.333 -61 174 -61
c20 0 45.667 4 77 12h-1l76 20c5.33301 1.33301 12.666 3.83301 21.999 7.5s21 8.83398 35 15.501c14 5.33301 25.833 9.5 35.5 12.5s18.167 4.5 25.5 4.5c18.667 0 28 -10 28 -30c0 -14.667 -12 -32 -36 -52c-8.66699 -7.33301 -17.5 -14 -26.5 -20
s-17.5 -10.667 -25.5 -14l-51.5 -22.5l-28.5 -12.5c-28 -11.333 -55.667 -20.166 -83 -26.499s-55 -9.5 -83 -9.5c-25.333 0 -49.5 0.833008 -72.5 2.5s-44.167 4.83398 -63.5 9.50098c-8.66699 2.66699 -46 19.334 -112 50.001c-40 19.333 -75.333 43.833 -106 73.5
s-56 65.167 -76 106.5c-33.333 66.667 -50 139 -50 217c0 27.333 1 46.666 3 57.999c3.33301 20 11.666 50.333 24.999 91c13.333 40 30.666 76.5 51.999 109.5s47 62.5 77 88.5c38.667 34.667 81.334 62.334 128.001 83.001c7.33301 3.33301 19.333 7.83301 36 13.5
s38.334 12.167 65.001 19.5c53.333 15.333 106.666 23 159.999 23c50.667 0 103.667 -7 159 -21c94 -24 141 -61.667 141 -113z" />
    <glyph glyph-name="F" unicode="F" horiz-adv-x="916" 
d="M828 837c0 -3.33301 -2.83789 -9.16699 -8.50488 -17.5s-11.834 -15.166 -18.501 -20.499c-3.33301 -2.66699 -8.33301 -5.5 -15 -8.5l-24 -10.5c-14 -6 -27.167 -10.167 -39.5 -12.5s-23.166 -2.83301 -32.499 -1.5c-7.33301 0 -24.333 8 -51 24
c-12.667 8 -22.5 13.833 -29.5 17.5s-11.5 5.83398 -13.5 6.50098c-16 3.33301 -32.667 5.5 -50 6.5s-35.666 1.5 -54.999 1.5c-34 -1.33301 -74 -18 -120 -50c-21.333 -14.667 -41.5 -30.667 -60.5 -48s-37.833 -36.333 -56.5 -57v1
c-3.33301 -4.66699 -5.66602 -9.66699 -6.99902 -15c-0.666992 -4.66699 -1.16699 -10.334 -1.5 -17.001s-0.5 -13.667 -0.5 -21v-17c0.666992 -8.66699 1 -20.667 1 -36v-49c0.666992 -6 3 -10.667 7 -14s10.667 -5 20 -5h4c2 0 5.33301 0.333008 10 1
c8 0.666992 18.5 1.16699 31.5 1.5s29.167 1.16602 48.5 2.49902c18 1.33301 33.333 2.16602 46 2.49902s23.334 0.833008 32.001 1.5c6 0.666992 10.667 1 14 1h6c11.333 0 24.5 -0.5 39.5 -1.5s31.167 -2.16699 48.5 -3.5c18 -1.33301 27 -10 27 -26
c0 -10 -5.66699 -18.667 -17 -26c-5.33301 -2.66699 -10.5 -5 -15.5 -7s-10.167 -4.33301 -15.5 -7c-28 -15.333 -55.833 -24.333 -83.5 -27s-55.5 -4.66699 -83.5 -6l-33.5 -2c-11 -0.666992 -22.167 -1.66699 -33.5 -3c-26 -3.33301 -40.667 -7.33301 -44 -12
c-2.66699 -3.33301 -4 -11.666 -4 -24.999v-13.5c0 -5.66699 0.333008 -11.167 1 -16.5c0.666992 -3.33301 1.16699 -6.5 1.5 -9.5s0.5 -6.16699 0.5 -9.5v-257c0.666992 -13.333 1 -25.166 1 -35.499v-17.5l2 -278c0 -33.333 -17.333 -71.333 -52 -114
c-17.333 -20.667 -35.666 -39.167 -54.999 -55.5s-38.666 -29.166 -57.999 -38.499h1l-26 -15c-12 -6 -22.333 -9 -31 -9c-21.333 0 -32 9.66699 -32 29c0 11.333 7 25 21 41c7.33301 8 13.333 15.667 18 23l12 19c9.33301 22.667 14 47.667 14 75v10
c0 4 -0.333008 8.66699 -1 14c0 2.66699 -0.166992 6 -0.5 10s-0.5 8 -0.5 12v5c-0.666992 5.33301 -1 12.5 -1 21.5v18.5c1.33301 14.667 2.33301 27.5 3 38.5s1 19.5 1 25.5v38c0 16 0.333008 35.667 1 59v102c0 4 -0.166992 9.5 -0.5 16.5s-0.833008 14.833 -1.5 23.5
l-2 21c-0.666992 7.33301 -1 13.666 -1 18.999v2c0 0.666992 0.666992 2.33398 2 5.00098l-1 -1c0.666992 2.66699 1.5 5.66699 2.5 9s1.5 3.66602 1.5 0.999023c0.666992 13.333 1.16699 40.5 1.5 81.5s0.5 96.5 0.5 166.5l3 410c-1.33301 8 -3.33301 18.667 -6 32
c-2 10.667 -10.667 18 -26 22h1c-13.333 2.66699 -24.5 6 -33.5 10s-16.167 8.33301 -21.5 13v23c16 9.33301 31.333 14.333 46 15l65 6c12.667 1.33301 23 2.33301 31 3s12.667 1 14 1c54.667 0 85.667 -12.667 93 -38c3.33301 -11.333 5.33301 -35.333 6 -72
c1.33301 -0.666992 5 -1 11 -1c2 0 18.667 10 50 30h-1c36.667 26 60 41 70 45c30 15.333 62.167 27.166 96.5 35.499s69.833 12.5 106.5 12.5c114 0 196.667 -25.667 248 -77z" />
    <glyph glyph-name="G" unicode="G" horiz-adv-x="1175" 
d="M1007 83c0.666992 -2 0.99707 -4.49414 0.99707 -7.49414v-7.5c0 -14 -5.5 -26.5 -16.5 -37.5s-26.167 -20.167 -45.5 -27.5c-13.333 -5.33301 -26.833 -9 -40.5 -11s-28.167 -3 -43.5 -3c-54.667 0 -82 21 -82 63c0 2.66699 0.166992 5.83398 0.5 9.50098
s0.833008 7.83398 1.5 12.501c0.666992 4 1 7.5 1 10.5v7.5c0 12.667 -6.33301 19.667 -19 21c-5.33301 -4.66699 -12.5 -9.5 -21.5 -14.5l-30.5 -16.5c-20 -11.333 -41.167 -22.166 -63.5 -32.499s-44.166 -19.5 -65.499 -27.5c-30 -10.667 -59.833 -18.834 -89.5 -24.501
s-58.5 -8.5 -86.5 -8.5c-118 0 -218.333 39.667 -301 119c-80.667 78.667 -121 178 -121 298c0 124.667 52 232 156 322c84 72 193.667 128.333 329 169c110 33.333 208.333 50 295 50c53.333 0 102.333 -11.333 147 -34h-1c60.667 -30.667 91 -72.667 91 -126
c0 -48 -22 -88.333 -66 -121c-19.333 -13.333 -40.5 -24.166 -63.5 -32.499s-46.833 -12.5 -71.5 -12.5c-8 10 -12 20.333 -12 31c0 3.33301 0.333008 6.66602 1 9.99902s1 6.5 1 9.5s0.333008 5.83301 1 8.5c0.666992 5.33301 1.16699 10.166 1.5 14.499
s0.5 7.83301 0.5 10.5c0 12.667 -4 24 -12 34c-13.333 14 -28.333 26.667 -45 38s-32.667 19.666 -48 24.999c-22 8 -52 12 -90 12c-48 0 -95.333 -6.83301 -142 -20.5s-91 -32.5 -133 -56.5c-50 -31.333 -88.667 -68.833 -116 -112.5s-41 -91.834 -41 -144.501
c0 -84 33.667 -165.667 101 -245v1c70.667 -82.667 150 -124 238 -124c42 0 95.667 15 161 45c64 30.667 99.333 57.334 106 80.001c4.66699 14 7 43.333 7 88v5.5c0 2.33301 0.333008 5.16602 1 8.49902c0.666992 5.33301 1.16699 11 1.5 17s0.5 10.333 0.5 13
c0 36.667 -13.333 55 -40 55c-2.66699 0 -31.334 -7 -86.001 -21l-63 -14c-14.667 -3.33301 -23.667 -5 -27 -5c-6 0 -12.167 1 -18.5 3s-12.166 4.66699 -17.499 8s-9.66602 7.16602 -12.999 11.499s-5 9.16602 -5 14.499c0 13.333 8.66699 29.666 26 48.999
c16.667 17.333 32.667 27.666 48 30.999l82.5 14c31.667 5.33301 67.834 10.666 108.501 15.999c35.333 5.33301 63.5 9.33301 84.5 12s33.5 4 37.5 4c69.333 0 103.333 -22.333 102 -67z" />
    <glyph glyph-name="H" unicode="H" horiz-adv-x="1330" 
d="M1157 510c0 -27.333 -1.00391 -52.1709 -3.00391 -74.5039s-5.66699 -42.166 -11 -59.499c-4.66699 -13.333 -23.334 -62.333 -56.001 -147c-2 -4.66699 -5 -10 -9 -16l-14 -21c-6.66699 -8 -12 -15 -16 -21s-7.33301 -10.667 -10 -14
c-49.333 -81.333 -114.666 -156.333 -195.999 -225h1c-36.667 -32 -68.667 -46.333 -96 -43c-6.66699 6.66699 -10 14.334 -10 23.001c0 4 1.33301 9.33301 4 16s7.33398 15.334 14.001 26.001c6 9.33301 11.5 17.5 16.5 24.5s10.5 13.833 16.5 20.5
c54.667 65.333 96.167 131.833 124.5 199.5s42.5 135.5 42.5 203.5c0 34 -3.33301 68.667 -10 104s-17 71.333 -31 108c-37.333 104.667 -91.333 157 -162 157c-28.667 0 -63.834 -9.16699 -105.501 -27.5s-86.834 -44.5 -135.501 -78.5
c-50 -35.333 -89.5 -69.666 -118.5 -102.999s-46.833 -63.666 -53.5 -90.999c0 -50.667 0.166992 -88.5 0.5 -113.5s0.833008 -38.167 1.5 -39.5c0.666992 -3.33301 0.833984 -12 0.500977 -26s-1.16602 -31.667 -2.49902 -53c-1.33301 -18 -2.33301 -33.167 -3 -45.5
s-1 -21.166 -1 -26.499c0 -32.667 3 -57.334 9 -74.001l-1 3c2.66699 -3.33301 5.83398 -7.66602 9.50098 -12.999s6.83398 -10.333 9.50098 -15c2 -6 3.16699 -11 3.5 -15s0.5 -8.66699 0.5 -14c-7.33301 -7.33301 -21 -16 -41 -26s-45.333 -20.667 -76 -32
c-28 -12 -50.833 -21 -68.5 -27s-28.5 -9 -32.5 -9c-14 0 -27.333 4.66699 -40 14s-19 21.666 -19 36.999l9 370c0 14.667 0.166992 31 0.5 49l1 52.5c0.333008 17 0.666016 32.5 0.999023 46.5s0.833008 25 1.5 33v118.5c0 46.333 -0.166992 93.833 -0.5 142.5
s-0.5 96 -0.5 142v118c0 0.666992 -0.333008 3.66699 -1 9l-3 25c-0.666992 8.66699 -4 13 -10 13l-26 -13c-1.33301 0 -3.16602 -0.5 -5.49902 -1.5s-4.16602 -1.83301 -5.49902 -2.5h1c-27.333 -14 -50 -21 -68 -21c-7.33301 0 -16 2 -26 6c-16 6.66699 -24 15 -24 25
c0 21.333 34.667 48 104 80l72.5 34l101.5 49h-1c40.667 21.333 67 32 79 32c18 0 31 -4 39 -12s11.667 -20 11 -36l-2 -277l-2 -277c1.33301 -3.33301 2.33301 -7.5 3 -12.5s1.66699 -9.83301 3 -14.5c1.33301 -7.33301 4 -11 8 -11s31.667 20.333 83 61
c33.333 26 65 48.833 95 68.5s58.333 36.167 85 49.5c84.667 42.667 167.667 64 249 64c107.333 0 187.333 -48.333 240 -145c37.333 -68.667 56 -152.334 56 -251.001z" />
    <glyph glyph-name="I" unicode="I" horiz-adv-x="567" 
d="M451 40c0 -11.333 -8.33496 -20.999 -25.002 -28.999c-6 -3.33301 -11.167 -5.5 -15.5 -6.5s-8.16602 -1.83301 -11.499 -2.5l-41.5 -5c-16.333 -2 -35.166 -3.66699 -56.499 -5c-1.33301 0 -5.66602 -0.333008 -12.999 -1l-32 -3
c-13.333 -1.33301 -23.666 -2.33301 -30.999 -3s-11.666 -1 -12.999 -1c-12.667 0 -24.667 2.66699 -36 8h1c-16.667 6.66699 -26.667 14.667 -30 24c-6.66699 22.667 -10 39.667 -10 51v189c0 3.33301 0.166992 6.16602 0.5 8.49902s0.833008 5.5 1.5 9.5
c2 14 3 21.667 3 23v58h17c-2 0.666992 -5.5 3.16699 -10.5 7.5s-7.83301 10.166 -8.5 17.499s-1 14.833 -1 22.5s0.333008 13.834 1 18.501c0 6.66699 0.333008 15.167 1 25.5s1.66699 20.166 3 29.499c2 22 3 34 3 36v71l2 108c-1.33301 11.333 -2.33301 23.166 -3 35.499
s-1 24.833 -1 37.5c0 48.667 -9.33301 76.667 -28 84l1 -1c-5.33301 1.33301 -14.833 3.16602 -28.5 5.49902s-31.834 4.5 -54.501 6.5c-40.667 4.66699 -61 14.667 -61 30c0 10.667 10.667 19.667 32 27v-1c7.33301 2.66699 13.333 4.5 18 5.5l12 2.5l134.5 9.5
c33 2.33301 54.167 3.5 63.5 3.5c15.333 0 35.666 -3.66699 60.999 -11c30.667 -12 46 -26.333 46 -43v-271v-12c0 -7.33301 -0.333008 -18.666 -1 -33.999c-0.666992 -13.333 -1 -26.5 -1 -39.5v-27.5v-6.5c0 -3 -0.333008 -6.16699 -1 -9.5
c0 -1.33301 -0.166992 -3.16602 -0.5 -5.49902s-0.5 -4.16602 -0.5 -5.49902c-0.666992 -6 -1 -10.5 -1 -13.5v-5.5v-221v-1c0 -1.33301 0.333008 -2 1 -2c1.33301 -3.33301 2 -5.83301 2 -7.5s0.666992 -3.16699 2 -4.5c1.33301 -5.33301 2.66602 -10 3.99902 -14v-5
c0 -0.666992 0.333008 -1.33398 1 -2.00098v-59c0 -4.66699 0.666992 -10.167 2 -16.5s3.33301 -14.166 6 -23.499c4.66699 -15.333 9 -25 13 -29c8 0 18.333 -0.5 31 -1.5s25.667 -2.16699 39 -3.5c9.33301 -2.66699 14 -10 14 -22z" />
    <glyph glyph-name="J" unicode="J" horiz-adv-x="525" 
d="M220 931c-6 0 -11.668 0.666992 -17.001 2c6.66699 -1.33301 12.334 -2 17.001 -2zM255.999 927c-6 0.666992 -12.168 1.16797 -18.501 1.50098s-12.166 1.16602 -17.499 2.49902c2.66699 -0.666992 6.66699 -1 12 -1zM292.998 915.001
c-2.66699 1.33301 -4.66797 2.66602 -6.00098 3.99902c-6 1.33301 -11.5 2.83301 -16.5 4.5s-9.83301 2.83398 -14.5 3.50098c26 -2.66699 48.667 -4.66699 68 -6s32.333 -2.5 39 -3.5s4.83398 -1.66699 -5.49902 -2s-31.833 -0.5 -64.5 -0.5zM327.997 215.001
l-0.000976562 -6.00391c0 -4 -0.166992 -9.83301 -0.5 -17.5s-0.833008 -17.167 -1.5 -28.5c-2 -35.333 -3 -57.333 -3 -66c-0.666992 -5.33301 -1 -10 -1 -14v-13c0 -5.33301 -0.166992 -10.166 -0.5 -14.499s-0.5 -8.83301 -0.5 -13.5
c-0.666992 -14.667 -1.83398 -27.667 -3.50098 -39s-3.83398 -21 -6.50098 -29c-3.33301 -3.33301 -6.33301 -7.66602 -9 -12.999s-6 -11.333 -10 -18v2c-3.33301 -8.66699 -8 -17.334 -14 -26.001s-13.667 -18.667 -23 -30h1c-19.333 -21.333 -38.333 -37.666 -57 -48.999
l-27 -12c-10.667 -4.66699 -23.334 -10.667 -38.001 -18c-1.33301 -0.666992 -3.16602 -1.33398 -5.49902 -2.00098s-4.16602 -1.33398 -5.49902 -2.00098c-1.33301 -1.33301 -3.66602 -2.66602 -6.99902 -3.99902s-5.66602 -2.66602 -6.99902 -3.99902
c-11.333 -6.66699 -22.666 -12.5 -33.999 -17.5s-22.666 -7.5 -33.999 -7.5c-22.667 0 -34 8.33301 -34 25c0 13.333 9.33301 28.666 28 45.999l12.5 8c4.33301 2.66699 8.83301 6 13.5 10c19.333 19.333 35 36.166 47 50.499s20.333 26.166 25 35.499c8 16 12 39.667 12 71
c-0.666992 17.333 -1.5 35 -2.5 53s-1.83301 35.667 -2.5 53v154v13.5c0 8.33301 -0.333008 20.5 -1 36.5s-1 28 -1 36v14c-1.33301 14 -2.33301 28.833 -3 44.5s-1.66699 30.834 -3 45.501c0 3.33301 -0.166992 9 -0.5 17s-0.833008 18.333 -1.5 31
c-0.666992 16.667 -1 29.334 -1 38.001v15v122v9c0 4.66699 -0.333008 10.667 -1 18v84c0 8.66699 -0.333008 15.334 -1 20.001s-1.33398 8.33398 -2.00098 11.001c-4 8.66699 -15.333 13 -34 13h-5.5c-3 0 -7.83301 -0.333008 -14.5 -1s-11.834 -1 -15.501 -1h-7.5
c-39.333 0 -59 10.333 -59 31c0 14 7.66699 24 23 30l10 3c5.33301 1.33301 12.333 2.83301 21 4.5s18.667 3.83398 30 6.50098h-1c10 3.33301 24 6 42 8c2.66699 0.666992 5.66699 1 9 1s6.66602 0.333008 9.99902 1c4 0.666992 8.16699 1 12.5 1
s9.16602 0.333008 14.499 1c6.66699 0.666992 12.334 1.16699 17.001 1.5s8.33398 0.5 11.001 0.5h6v-19h99c12.667 -10.667 20 -26.667 22 -48c2 -18 3 -48.333 3 -91c0 -12 0.333008 -25.333 1 -40s1.66699 -30 3 -46z" />
    <glyph glyph-name="K" unicode="K" horiz-adv-x="1176" 
d="M1081 3c0 -27.333 -39.334 -41.0039 -118.001 -41.0039c-52 0 -90.333 8.33301 -115 25c-17.333 12.667 -37.166 29.167 -59.499 49.5s-46.5 44.5 -72.5 72.5l-62 67.5l-83 95.5v-1l-72.5 84l-71.5 84c-2.66699 1.33301 -6.66699 2 -12 2c-8 0 -29 -7 -63 -21
c-37.333 -14.667 -56 -25.667 -56 -33v-130v-61c0 -16 -0.333008 -27 -1 -33c-1.33301 -22 -4.83301 -42.833 -10.5 -62.5s-12.5 -37.834 -20.5 -54.501v1c-7.33301 -16 -27 -28.667 -59 -38c-20 -6.66699 -40 -12.334 -60 -17.001l1 1
c-43.333 -14.667 -78.333 -22 -105 -22c-8.66699 0 -16.667 3.33301 -24 10s-11 13.334 -11 20.001c0 4.66699 7.66699 16.334 23 35.001c4.66699 6 10.667 12 18 18c3.33301 3.33301 6 6.33301 8 9s4.66699 5.66699 8 9h-1c16.667 17.333 25 50.333 25 99v780
c0 46.667 -31 75 -93 85l-4 4c-2 2 -5.33301 5 -10 9v24c24 10 48.333 15 73 15c11.333 0 23 -0.5 35 -1.5s23.667 -2.83301 35 -5.5h18c10 0 24.333 -0.333008 43 -1c28 -0.666992 49.333 -7.33398 64 -20.001c22.667 -21.333 36 -54.666 40 -99.999
c0.666992 -17.333 1 -34.5 1 -51.5v-51.5c0 -4 0.166992 -8.66699 0.5 -14s0.5 -11.666 0.5 -18.999c0 -6.66699 -0.166992 -14 -0.5 -22s-0.5 -16.667 -0.5 -26v-151v-24c0 -9.33301 0.333008 -19.666 1 -30.999c0 -4.66699 0.166992 -9.33398 0.5 -14.001
s0.5 -9.66699 0.5 -15v-39c0.666992 -6 2 -11.167 4 -15.5s4 -7.5 6 -9.5h4c7.33301 0 15.666 2 24.999 6c5.33301 2.66699 9.66602 4.66699 12.999 6c2.66699 1.33301 5 2.33301 7 3s4.33301 1.66699 7 3c27.333 9.33301 57 25.5 89 48.5s66 53.167 102 90.5
c14.667 13.333 40.334 46.666 77.001 99.999c42 58.667 63 97 63 115c0 2 -3 7 -9 15c-6 10.667 -9 18.334 -9 23.001c0 5.33301 1 9.33301 3 12s3.66699 5.33398 5 8.00098c22 9.33301 44.333 14 67 14c26 0 57.333 -3.66699 94 -11c44 -8 71.333 -18.333 82 -31
c2.66699 -21.333 -15.666 -58.666 -54.999 -111.999c-6 -8 -15 -18 -27 -30l-42 -40c-6 -6 -12.667 -12.333 -20 -19l-20 -18l-21.5 -18l-20.5 -18l-34.5 -24l-34.5 -23l-41 -31c-10 -7.33301 -15 -12.666 -15 -15.999c0 -5.33301 21.667 -30.333 65 -75
c60 -60.667 97.333 -101 112 -121l34.5 -33.5l41.5 -42.5l13 -13c24.667 -31.333 68 -77.666 130 -138.999l34.5 -33l48.5 -45l-1 1c8.66699 -6.66699 13 -15.334 13 -26.001z" />
    <glyph glyph-name="L" unicode="L" horiz-adv-x="1131" 
d="M1021 87c0 -12 -11.1602 -23.832 -33.4932 -35.499s-54.5 -22.5 -96.5 -32.5c-30 -6.66699 -56.5 -12.167 -79.5 -16.5s-39.5 -6.5 -49.5 -6.5h-498c-26 0 -45.667 15.667 -59 47c-10 20.667 -15 45 -15 73v461c0 5.33301 0.5 9.83301 1.5 13.5l3.5 13.5
c2 8 3 13.667 3 17c0.666992 2 0.833984 4.5 0.500977 7.5s-0.833008 6.5 -1.5 10.5v5c0 2.66699 -0.166992 5.16699 -0.5 7.5s-0.5 4.5 -0.5 6.5s-0.166992 3.66699 -0.5 5s-0.5 2.66602 -0.5 3.99902v129h19c-0.666992 0 -3.83398 4.33301 -9.50098 13
s-8.16699 21.667 -7.5 39c0 8.66699 0.166992 17.334 0.5 26.001s0.5 16.667 0.5 24v26.5c0 8.33301 0.333008 16.5 1 24.5v33v34.5c0 10.333 -0.333008 19.166 -1 26.499c-0.666992 13.333 -8.66699 25 -24 35c-14.667 7.33301 -40.334 12 -77.001 14
c-38.667 2 -69.334 12 -92.001 30v37h351c41.333 0 64.333 -25.667 69 -77l9 -948c0 -4.66699 3.66699 -10.667 11 -18c4.66699 -6 17 -10 37 -12c3.33301 -0.666992 6.66602 -1 9.99902 -1h10c3.33301 0 7.16602 -0.166992 11.499 -0.5s8.5 -0.5 12.5 -0.5
c70 -8 141.667 -12 215 -12c47.333 0 86.666 2 117.999 6c13.333 2 36.666 7 69.999 15c15.333 4 27.5 6.83301 36.5 8.5s14.5 2.5 16.5 2.5c3.33301 0 8.16602 -0.833008 14.499 -2.5s14.5 -5.16699 24.5 -10.5v-22z" />
    <glyph glyph-name="M" unicode="M" horiz-adv-x="2051" 
d="M1930 1c-13.333 -5.33301 -26.498 -9.66602 -39.498 -12.999s-26.167 -5 -39.5 -5c-30 0 -65.333 4.66699 -106 14c-34 8.66699 -63 18.667 -87 30c0 3.33301 0.333008 8.66602 1 15.999s1.66699 14.666 3 21.999c2 12.667 2 22.334 0 29.001
c-4.66699 16 -9.5 30.667 -14.5 44s-10.167 25.333 -15.5 36h1l-47 72.5l-61 97.5c-10 16 -43.333 57.667 -100 125c-60.667 72.667 -96 109 -106 109c-8.66699 0 -24 -22.333 -46 -67s-49 -108 -81 -190c-15.333 -40.667 -34.333 -85 -57 -133l-76 -154v1
c-8.66699 -17.333 -27.334 -26 -56.001 -26c-24 0 -48.667 8.66699 -74 26c-29.333 19.333 -44 40 -44 62c0 8 7.66699 24.667 23 50c14.667 25.333 22 39.666 22 42.999c0 25.333 -53.667 96.333 -161 213c-103.333 113.333 -159.666 170 -168.999 170
c-11.333 0 -31 -27.667 -59 -83v1l-22.5 -48l-23.5 -47l-49.5 -98l-50.5 -98c-22.667 -42 -45 -78.833 -67 -110.5s-44.333 -58.834 -67 -81.501c-12 -12.667 -37.333 -19 -76 -19c-22.667 0 -41.334 4.66699 -56.001 14l-49 38l-47 32.5l-58 39.5
c12.667 4.66699 23 8.33398 31 11.001s12.667 4 14 4l3 -1h4h12.5c5 0 10.833 0.333008 17.5 1c7.33301 0.666992 13.666 1 18.999 1h11c6.66699 0 12.667 4.33301 18 13l62 117.5l90 174.5v-1c154.667 316.667 268 475 340 475c20.667 0 47.334 -7.66699 80.001 -23
c37.333 -18.667 56 -37.334 56 -56.001c0 -3.33301 -2.66699 -10.666 -8 -21.999s-13.666 -25.666 -24.999 -42.999l-22 -38.5c-5.33301 -9.66699 -8 -15.167 -8 -16.5c0 -8.66699 13.333 -28.667 40 -60s65 -72 115 -122l102 -104c28 -27.333 48.333 -46.333 61 -57
c5.33301 2.66699 10.166 7.33398 14.499 14.001s9.16602 15 14.499 25c2 4.66699 4.33301 9.66699 7 15s4.66699 10.333 6 15l6 14c2 4.66699 4 9.66699 6 15l31 68.5l31 69.5l30 68.5l31 69.5c68 146.667 117.333 220 148 220c16 0 44.667 -17 86 -51
c41.333 -33.333 62 -61 62 -83c0 -8.66699 -11 -29.334 -33 -62.001l-30 -44.5l-16 -24.5l274 -331l274 -331v-32z" />
    <glyph glyph-name="N" unicode="N" horiz-adv-x="1402" 
d="M1251 39c0 -15.333 -13.002 -27.3359 -39.002 -36.0029c-9.33301 -2.66699 -18 -4.66699 -26 -6s-16.333 -2 -25 -2h-62c-9.33301 0 -19 1.16699 -29 3.5s-19.333 5.83301 -28 10.5c-24.667 12.667 -39.667 29 -45 49c-0.666992 3.33301 -1.16699 8.33301 -1.5 15
s-0.166016 15.667 0.500977 27c0 14 -2 25 -6 33c-3.33301 5.33301 -9.66602 10.5 -18.999 15.5s-19.666 9.16699 -30.999 12.5l-16.5 5.5c-7 2.33301 -13.833 4.5 -20.5 6.5v-1c-13.333 4 -25.333 8 -36 12c-17.333 6 -38.333 14 -63 24l-86 35l-90 43.5
c-25.333 12.333 -46 22.833 -62 31.5l-89.5 49l-73.5 43l1 -1c-2.66699 1.33301 -8.66699 6.66602 -18 15.999v-1l-13.5 11.5c-5 4.33301 -11.167 9.16602 -18.5 14.499c-22 18.667 -35.667 28.667 -41 30c-9.33301 0.666992 -14 -8 -14 -26v-320
c0 -51.333 -26 -89.333 -78 -114c-35.333 -16.667 -80.333 -25 -135 -25c-28.667 0 -47.334 9.33301 -56.001 28v201l29 422c0 2.66699 0.166992 6.66699 0.5 12s0.5 10.666 0.5 15.999c0.666992 7.33301 1 14.5 1 21.5v17.5c0 71.333 -26.667 114 -80 128v38
c102 34.667 167.333 52 196 52c30.667 0 54.334 -11.333 71.001 -34c4.66699 -6 9.66699 -12.833 15 -20.5s11 -15.167 17 -22.5l77 -107l102 -139c12 -14.667 26.833 -30.667 44.5 -48s37.834 -35.333 60.501 -54s47.167 -37.834 73.5 -57.501l83.5 -59.5
c56.667 -37.333 106.334 -67.166 149.001 -89.499s74.334 -34.166 95.001 -35.499c12 -1.33301 19.667 5.33398 23 20.001c0.666992 3.33301 1.16699 8 1.5 14s0.5 13 0.5 21c0 18 -1.33301 47.167 -4 87.5s-6.33398 89.833 -11.001 148.5l-15.5 160.5
c-5 50.333 -9.83301 93.5 -14.5 129.5c-0.666992 4.66699 -4.83398 12.834 -12.501 24.501s-18.834 27.5 -33.501 47.5c20 16 44 24 72 24c37.333 0 72 -4.66699 104 -14c32.667 -10.667 50.667 -21.667 54 -33c20 -51.333 36.667 -115 50 -191s21.666 -161 24.999 -255v-50
c0 -57.333 1 -130.333 3 -219c2.66699 -35.333 7.66699 -62.666 15 -81.999v1c2.66699 -5.33301 5.16699 -10.666 7.5 -15.999s5.5 -10.666 9.5 -15.999v1c8 -8.66699 12 -18 12 -28z" />
    <glyph glyph-name="O" unicode="O" horiz-adv-x="1204" 
d="M845 380c0 46 -0.335938 70 -1.00293 72c-26 93.333 -53.333 165.333 -82 216c-43.333 76.667 -102 132.334 -176 167.001c-35.333 16.667 -68.666 25 -99.999 25c-60.667 0 -115 -18 -163 -54c-56.667 -40 -95 -96.667 -115 -170
c-2.66699 -5.33301 -5.5 -11.5 -8.5 -18.5s-5.83301 -14.5 -8.5 -22.5v-16.5c0 -5.66699 -0.333008 -12.167 -1 -19.5c0 -2 -0.166992 -4.5 -0.5 -7.5s-0.5 -5.5 -0.5 -7.5c-1.33301 -8.66699 -2.16602 -16.834 -2.49902 -24.501s-1.16602 -14.5 -2.49902 -20.5
c0 -24.667 3.66699 -49.667 11 -75l-1 1c0.666992 -1.33301 1.5 -3.66602 2.5 -6.99902s2.16699 -6.66602 3.5 -9.99902v1c1.33301 -2.66699 2.83301 -6.33398 4.5 -11.001s3.16699 -8.66699 4.5 -12c10.667 -44.667 27.834 -85.834 51.501 -123.501
s53.167 -72.167 88.5 -103.5c33.333 -28 68.333 -49.5 105 -64.5s73.334 -22.5 110.001 -22.5c49.333 0 93.666 11.333 132.999 34c22 12.667 43 30 63 52s38.667 48.333 56 79c15.333 27.333 24.666 50 27.999 68c0.666992 5.33301 1 14.333 1 27v48zM1051 457
c0 -14.667 -0.835938 -30.3359 -2.50293 -47.0029s-4.16699 -33.667 -7.5 -51c-3.33301 -19.333 -7.16602 -36.333 -11.499 -51s-9.16602 -26.667 -14.499 -36c-117.333 -193.333 -293 -290 -527 -290c-110.667 0 -203.334 23 -278.001 69
c-37.333 23.333 -71.333 53.666 -102 90.999s-55.667 77.333 -75 120c-8.66699 18.667 -20 48.334 -34 89.001c-4 14.667 -6.83301 29.834 -8.5 45.501s-2.5 32.5 -2.5 50.5c0 26.667 2.16699 53.334 6.5 80.001s10.5 54 18.5 82c8 26.667 18 52.334 30 77.001
s24.667 46 38 64c56 72 129 124.333 219 157h-1c14.667 6 32.834 11.333 54.501 16l70.5 15c58.667 11.333 106.334 17 143.001 17c134 0 249 -51.667 345 -155c92.667 -100 139 -214.333 139 -343z" />
    <glyph glyph-name="P" unicode="P" horiz-adv-x="1380" 
d="M1234 578c0 -1.33301 -0.331055 -4.16113 -0.998047 -8.49414s-1.66699 -9.16602 -3 -14.499c0 -0.666992 -0.166992 -1 -0.5 -1s-0.5 -0.333008 -0.5 -1v-2c-2.66699 -12 -4.66699 -21.667 -6 -29l-1 -2c-11.333 -76.667 -54 -155.667 -128 -237
c-32.667 -36 -68.834 -69.5 -108.501 -100.5s-81.834 -58.833 -126.501 -83.5c-89.333 -49.333 -168 -74 -236 -74c-22.667 0 -48.334 7 -77.001 21c-36 15.333 -54 35.666 -54 60.999c0 24.667 17 47 51 67c13.333 8 25 13.667 35 17s18.333 5 25 5
c1.33301 0 6.66602 -1.33301 15.999 -4s22.666 -7 39.999 -13c15.333 -5.33301 27.333 -9.33301 36 -12s13.667 -4 15 -4c9.33301 0 25 5 47 15c11.333 5.33301 21.5 10.666 30.5 15.999s16.833 10.666 23.5 15.999c30 26 57.833 54.833 83.5 86.5s48.167 66.167 67.5 103.5
c39.333 72.667 59 136.334 59 191.001c0 40.667 -12 79 -36 115c-25.333 39.333 -61.666 65.666 -108.999 78.999c-24 6.66699 -42.667 11.667 -56 15s-21.666 5 -24.999 5c-22 0 -50.833 -7.33301 -86.5 -22s-79.5 -37 -131.5 -67c-98 -58.667 -149.667 -101.667 -155 -129
c-4 -20 -6 -46.667 -6 -80c0 -1.33301 0.333008 -6.33301 1 -15s1.66699 -20.667 3 -36c0.666992 -6 1.16699 -11.333 1.5 -16s0.833008 -9 1.5 -13c0.666992 -6.66699 1.16699 -11.834 1.5 -15.501s0.5 -6.16699 0.5 -7.5v-358c0 -1.33301 0.166992 -3.5 0.5 -6.5
s0.5 -6.16699 0.5 -9.5c0.666992 -3.33301 1 -7.16602 1 -11.499v-8.5v-317c0 -23.333 -8.83301 -45.833 -26.5 -67.5s-41.834 -41.834 -72.501 -60.501c-25.333 -14.667 -49 -25.834 -71 -33.501s-41 -11.5 -57 -11.5c-11.333 0 -22.5 3.16699 -33.5 9.5
s-16.5 14.166 -16.5 23.499c0 6 5.66699 15.667 17 29l15.5 17c4.33301 4.66699 7.16602 8.33398 8.49902 11.001c4 6 6.66699 16.333 8 31c0 51.333 0.166992 100.333 0.5 147s0.5 91 0.5 133c0 329.333 -3 530.666 -9 603.999
c-0.666992 11.333 -1.16699 27.166 -1.5 47.499s-0.5 44.5 -0.5 72.5l-2 112c0 3.33301 -3.83301 7.16602 -11.5 11.499s-16.167 8.16602 -25.5 11.499l-48.5 -8.5l-49.5 -8.5c-64.667 10.667 -97 28.667 -97 54c0 18.667 12.667 32 38 40c16 1.33301 31.333 3.33301 46 6
h-1l49 12.5c19.333 5 42 10.5 68 16.5h-1c6.66699 2 13.334 4.16699 20.001 6.5s13.667 4.5 21 6.5s14.5 3.83301 21.5 5.5s14.167 3.83398 21.5 6.50098c42 11.333 77 17 105 17c52 0 78 -27.333 78 -82c0 -4 -0.166992 -8.66699 -0.5 -14s-0.833008 -10.666 -1.5 -15.999
s-1 -10.166 -1 -14.499v-11.5c0 -26 9.33301 -39 28 -39c6 0 27.667 12 65 36h-1l31.5 21.5c10.333 7 20.833 13.5 31.5 19.5l42.5 22.5l43.5 23.5c38.667 21.333 71.334 34.666 98.001 39.999c28 6 55.833 10.5 83.5 13.5s55.167 4.5 82.5 4.5c40 0 75 -5 105 -15
c25.333 -9.33301 50.333 -27.333 75 -54c3.33301 -3.33301 9.83301 -10.333 19.5 -21s22.167 -25.667 37.5 -45c8.66699 -11.333 17.334 -26.333 26.001 -45s17 -41.667 25 -69c15.333 -50 23 -87 23 -111z" />
    <glyph glyph-name="Q" unicode="Q" horiz-adv-x="1199" 
d="M-18 535c0 11.333 2.1709 26.8369 6.50391 46.5039s10.166 41.167 17.499 64.5c16 52.667 32.667 90.334 50 113.001c30.667 38 49.667 60 57 66c12.667 14 25.334 25.333 38.001 34s25.334 15.334 38.001 20.001c15.333 5.33301 31.666 9.16602 48.999 11.499
s36 3.5 56 3.5c27.333 0 54.666 -1.33301 81.999 -4s55 -7.33398 83 -14.001c11.333 -3.33301 25.5 -8.16602 42.5 -14.499s36.5 -14.833 58.5 -25.5c7.33301 -4 15 -7.66699 23 -11s15.667 -7 23 -11l21.5 -12c7 -4 14.167 -7.66699 21.5 -11
c25.333 -11.333 45.5 -19.833 60.5 -25.5s25.5 -8.5 31.5 -8.5c13.333 -1.33301 20 7 20 25c0 10.667 -2.33301 22 -7 34s-12.334 25.667 -23.001 41c-13.333 17.333 -20.333 31 -21 41c8 12 22 21 42 27c9.33301 2 18.5 3.83301 27.5 5.5s18.167 1.83398 27.5 0.500977
c28 -2 53.5 -5.83301 76.5 -11.5s43.167 -13.834 60.5 -24.501c4 -3.33301 8 -11.333 12 -24s8.33301 -29.667 13 -51c4.66699 -19.333 8 -35.833 10 -49.5s3.33301 -23.167 4 -28.5l7 -112c0.666992 -2.66699 1.16699 -8.33398 1.5 -17.001s1.16602 -17 2.49902 -25
c1.33301 -12 2.16602 -23.667 2.49902 -35s0.166016 -20.666 -0.500977 -27.999l4 -441l4 -441c3.33301 -7.33301 6.83301 -14 10.5 -20s7.16699 -10.667 10.5 -14l4 -4c2.66699 -4 6.33398 -8.33301 11.001 -13c2 -2.66699 5 -6 9 -10c12 -12 18 -21.667 18 -29
c0 -9.33301 -5.66699 -17.166 -17 -23.499s-22.666 -9.5 -33.999 -9.5c-17.333 0 -37.5 3.33301 -60.5 10s-49.5 17.334 -79.5 32.001c-75.333 35.333 -113 76.666 -113 123.999v317v8.5c0 4.33301 0.333008 8.16602 1 11.499c0 3.33301 0.166992 6.5 0.5 9.5
s0.5 5.16699 0.5 6.5l7 338v18.5c0 11 -0.333008 26.5 -1 46.5v65c0 32 -2 58.667 -6 80c-5.33301 26 -52.666 61.667 -141.999 107c-88.667 44.667 -155.667 67 -201 67c-6 0 -33.667 -6.66699 -83 -20c-23.333 -6 -43.833 -15.667 -61.5 -29s-33.167 -30 -46.5 -50v1
c-23.333 -36.667 -35 -75.334 -35 -116.001c0 -56.667 16.667 -117.667 50 -183c17.333 -34.667 38.333 -67.334 63 -98.001s52.334 -59 83.001 -85c6 -5.33301 13.333 -10.833 22 -16.5s18.334 -10.834 29.001 -15.501c11.333 -4.66699 21.166 -8.33398 29.499 -11.001
s14.833 -4 19.5 -4c1.33301 0 6.16602 1.33301 14.499 4s20.166 6.66699 35.499 12c36 11.333 55 17 57 17c14 0 33.667 -7.33301 59 -22c16 -10.667 28.667 -21.5 38 -32.5s14 -22.5 14 -34.5c0 -13.333 -4.83301 -25 -14.5 -35s-23.167 -18.667 -40.5 -26
c-28 -14 -53.667 -21 -77 -21c-68.667 0 -146.334 23.667 -233.001 71s-162 106 -226 176c-71.333 79.333 -113 156.666 -125 231.999c0 0.666992 -0.166992 1.5 -0.5 2.5s-0.5 1.83301 -0.5 2.5l-6 27v2c0 0.666992 -0.166992 1 -0.5 1s-0.5 0.333008 -0.5 1
c-2.66699 10.667 -4 18.667 -4 24z" />
    <glyph glyph-name="R" unicode="R" horiz-adv-x="1115" 
d="M980 67c-5.33301 -10.667 -37.3262 -25.9961 -95.9932 -45.9961c-58 -19.333 -98 -29 -120 -29c-14 0 -34 7.66699 -60 23s-54 35 -84 59c-26 21.333 -52.833 44.666 -80.5 69.999s-55.834 53 -84.501 83c-54 58 -81 92 -81 102c0 14 30.667 42 92 84l98.5 69
c28.333 20.667 50.166 37.667 65.499 51c26.667 23.333 47.5 46 62.5 68s22.833 42 23.5 60c0.666992 15.333 -1.5 30.666 -6.5 45.999s-12.167 30.666 -21.5 45.999c-22.667 34.667 -50.334 51.667 -83.001 51c-45.333 -2 -95.333 -23 -150 -63
c-50.667 -37.333 -95.667 -80.666 -135 -129.999c-37.333 -49.333 -56 -89 -56 -119v-304c0 -2.66699 1 -7.33398 3 -14.001c1.33301 -3.33301 2.33301 -6.66602 3 -9.99902s1 -6 1 -8v-110c0 -38 -49.333 -57 -148 -57c-52 0 -87 7.33301 -105 22
c0 10 4.66699 22.333 14 37c1.33301 2 2.66602 3.66699 3.99902 5l-1 -1c6 8 9.66699 14.333 11 19c6.66699 26.667 11.667 56 15 88c1.33301 22.667 2.5 39.834 3.5 51.501s1.83301 18.834 2.5 21.501v-2l3 582c-2 18 -8.66699 31 -20 39
c-3.33301 1.33301 -8.5 3.16602 -15.5 5.49902s-14.833 5.16602 -23.5 8.49902c-19.333 5.33301 -34.666 14.666 -45.999 27.999c10.667 26.667 42.334 40 95.001 40c1.33301 0 5.66602 -0.333008 12.999 -1s15.666 -1.66699 24.999 -3s17.166 -2 23.499 -2h11.5
c1.33301 0 3.33301 -0.5 6 -1.5l9 -3.5c4 -1.33301 7 -2 9 -2c30.667 0 49.667 -4 57 -12l7 -10c3.33301 -4.66699 7.33301 -9.66699 12 -15c3.33301 -4 6.33301 -8.33301 9 -13s5.66699 -9 9 -13c1.33301 -6 2.16602 -11.333 2.49902 -16s0.833008 -8.33398 1.5 -11.001
c0.666992 -4 1.33398 -6.5 2.00098 -7.5s0 -3.5 -2 -7.5l-2 -3c0.666992 -1.33301 1.5 -6.33301 2.5 -15s2.83301 -20.667 5.5 -36c6 -30.667 8.33301 -54.667 7 -72c2 -3.33301 4 -5.66602 6 -6.99902s3.66699 -2.66602 5 -3.99902c4 7.33301 10.5 16 19.5 26l32.5 35
c23.333 24 47.666 46.667 72.999 68s50.666 39.333 75.999 54c36 21.333 73 37.666 111 48.999s76 17 114 17c54.667 0 98 -23.333 130 -70c26.667 -38.667 40 -82.334 40 -131.001c0 -55.333 -26 -112.666 -78 -171.999c-32.667 -36.667 -79.667 -77 -141 -121
c-23.333 -16.667 -41.166 -29.834 -53.499 -39.501s-18.5 -15.167 -18.5 -16.5c0 -9.33301 39.667 -50.666 119 -123.999c36.667 -34 69.167 -63 97.5 -87s52.833 -43.667 73.5 -59c2 -2 6.66699 -3.33301 14 -4s16.666 -1.33398 27.999 -2.00098
c27.333 -0.666992 48.333 -8 63 -22z" />
    <glyph glyph-name="S" unicode="S" horiz-adv-x="934" 
d="M843 374c0 -36.667 -41.3369 -96.002 -124.004 -178.002c-11.333 -11.333 -27.666 -25.5 -48.999 -42.5s-44 -34.167 -68 -51.5c-25.333 -18 -49 -34 -71 -48s-39.667 -24.667 -53 -32h1c-5.33301 -2.66699 -12.666 -5.83398 -21.999 -9.50098l-34 -13.5
c-52 -10 -104.333 -15 -157 -15c-8.66699 0 -33.667 4.66699 -75 14l-23.5 9.5l-43.5 18.5l-26 12c-7.33301 3.33301 -15.5 6.83301 -24.5 10.5s-17.167 7.16699 -24.5 10.5c-42.667 22.667 -64 41.667 -64 57c0 7.33301 13 31.666 39 72.999c28 41.333 49 62 63 62
c8 0 19.667 -7 35 -21l21 -16.5c6.66699 -5 13 -9.16699 19 -12.5c13.333 -6.66699 28.5 -13.5 45.5 -20.5s34.167 -13.5 51.5 -19.5c23.333 -7.33301 45.5 -13.333 66.5 -18s38.833 -7.66699 53.5 -9c1.33301 0 5.5 -0.333008 12.5 -1s13.167 -1.33398 18.5 -2.00098
c2 -0.666992 4.16699 -1 6.5 -1h5.5c2 0 3.66699 -0.333008 5 -1c36.667 0 74.667 9.33301 114 28c19.333 8.66699 37 19.167 53 31.5s30.333 25.5 43 39.5c8 12 12 29.667 12 53c0 43.333 -23 77.333 -69 102c-17.333 9.33301 -38 17.333 -62 24s-51 12.334 -81 17.001
c-17.333 2.66699 -35 5 -53 7l-53 6l-29 4.5l-35 5.5l-50 8.5l-59 9.5c-17.333 3.33301 -34.166 8 -50.499 14s-31.5 14 -45.5 24h1c-40 26 -60 57.333 -60 94c0 12 4.33301 28.333 13 49s22.334 45.334 41.001 74.001c76 80 153.667 136.667 233 170
c65.333 27.333 142.666 41 231.999 41c28 0 52.833 -1 74.5 -3s40.167 -5.33301 55.5 -10c47.333 -16 81.666 -43.667 102.999 -83c10 -17.333 15 -30.333 15 -39c0 -17.333 -13 -46.666 -39 -87.999c-30 -46.667 -59.333 -70 -88 -70c-6 0 -12.833 3.33301 -20.5 10
s-11.5 12.667 -11.5 18c0 6.66699 6.33301 18 19 34c10 12 15 25 15 39c1.33301 20.667 -12.667 36.667 -42 48c-26.667 11.333 -58.334 18 -95.001 20c-6 0 -14.667 0.333008 -26 1s-25 1.66699 -41 3l-34 3c-7.33301 0.666992 -11.666 1 -12.999 1
c-25.333 0 -38.666 -0.333008 -39.999 -1c-5.33301 -0.666992 -14.333 -2.83398 -27 -6.50098s-28.667 -8.83398 -48 -15.501c-29.333 -8.66699 -60.333 -29 -93 -61c-7.33301 -8 -15.666 -21.667 -24.999 -41c-8.66699 -17.333 -13 -31.666 -13 -42.999
s5 -21.166 15 -29.499s24 -15.166 42 -20.499c24 -6.66699 51.667 -10 83 -10h111c12 0 38 -2 78 -6c14 -1.33301 28 -2.33301 42 -3s27.667 -1.66699 41 -3c17.333 -2 32.833 -4.66699 46.5 -8s25.167 -6.66602 34.5 -9.99902h-1c135.333 -50 203 -111 203 -183z" />
    <glyph glyph-name="T" unicode="T" horiz-adv-x="1063" 
d="M998 892c0 -14 -8.99902 -27.332 -26.999 -39.999c-16 -12 -30.667 -19.667 -44 -23c-21.333 -3.33301 -44.666 -6.16602 -69.999 -8.49902s-52.666 -4.16602 -81.999 -5.49902c-4.66699 0 -15.334 -1 -32.001 -3c-4.66699 -0.666992 -8.83398 -1 -12.501 -1h-8.5
c-2.66699 0 -4.66699 -0.166992 -6 -0.5s-2.33301 -0.5 -3 -0.5h-95c-7.33301 -2.66699 -15.833 -5 -25.5 -7s-20.5 -4.66699 -32.5 -8c-4 -0.666992 -8.33301 -3.33398 -13 -8.00098s-7 -26 -7 -64v-543c0 -4 5.33301 -7.66699 16 -11
c1.33301 -0.666992 3.16602 -1.33398 5.49902 -2.00098s5.16602 -1.33398 8.49902 -2.00098c1.33301 -0.666992 3.66602 -1.16699 6.99902 -1.5s7 -1.16602 11 -2.49902c13.333 -6 20 -15.667 20 -29c0 -9.33301 -14.667 -25.666 -44 -48.999
c-12.667 -10.667 -25.834 -20.334 -39.501 -29.001s-28.167 -17.334 -43.5 -26.001c-35.333 -18.667 -64.666 -28 -87.999 -28c-8 -0 -16.167 3.33301 -24.5 10s-12.833 11.667 -13.5 15c-2 13.333 -4.33301 30.5 -7 51.5l-9 73.5c-2.66699 28 -4.5 58.5 -5.5 91.5
s-1.5 69.167 -1.5 108.5v328c0 4.66699 1.33301 13.667 4 27c3.33301 15.333 5 27 5 35c0 9.33301 -1.66699 17.666 -5 24.999c-1.33301 7.33301 -4.66602 13 -9.99902 17s-12 7 -20 9c-3.33301 0.666992 -9.16602 1.16699 -17.499 1.5s-19.5 0.5 -33.5 0.5
c-17.333 0 -40.333 -1.5 -69 -4.5s-63.667 -7.16699 -105 -12.5c-0.666992 0 -1.66699 -0.333008 -3 -1c-4 -1.33301 -9.5 -3 -16.5 -5s-14.5 -3 -22.5 -3c-26 0 -39 8 -39 24c0 13.333 16 29.333 48 48c16 8.66699 33 16.334 51 23.001c30.667 11.333 57.167 20 79.5 26
s41.5 10.667 57.5 14c12.667 1.33301 27.334 3 44.001 5l56 7c7.33301 1.33301 15.166 2.33301 23.499 3s16.5 1.66699 24.5 3l482 -3c18.667 2.66699 35.5 4.5 50.5 5.5s26.833 1.5 35.5 1.5c30.667 0 46 -10.667 46 -32z" />
    <glyph glyph-name="U" unicode="U" horiz-adv-x="1258" 
d="M1168 53c-5.33301 -6 -11.167 -11.1699 -17.5 -15.5029s-12.166 -7.16602 -17.499 -8.49902c-56 -17.333 -100.833 -30.666 -134.5 -39.999s-55.167 -14 -64.5 -14c-40.667 0 -66 28.333 -76 85c-6 -1.33301 -10.833 -2 -14.5 -2h-8.5
c-1.33301 0 -4.66602 -0.833008 -9.99902 -2.5l-23 -7.5l-32.5 -12c-9 -3.33301 -16.167 -5.66602 -21.5 -6.99902c-112 -26 -194 -39 -246 -39h-4.5c-1.66699 0 -4.16699 -0.333008 -7.5 -1c-4.66699 -0.666992 -10.5 -1.33398 -17.5 -2.00098s-9.83301 -1 -8.5 -1
c-80.667 0 -156.334 16.667 -227.001 50c-76.667 36.667 -134 86.667 -172 150c-28 46.667 -47.667 89.334 -59 128.001c-4 16 -7.16699 33.5 -9.5 52.5s-3.5 39.5 -3.5 61.5c0 25.333 3.33301 52.166 10 80.499s16 55.166 28 80.499
c9.33301 21.333 22.833 45.833 40.5 73.5s38.5 58.5 62.5 92.5c1.33301 2.66699 2.66602 6.16699 3.99902 10.5s3 9.16602 5 14.499v4c0 2 -3.66699 3 -11 3c-2.66699 0 -6.66699 -0.166992 -12 -0.5s-12 -1.16602 -20 -2.49902c-8.66699 -1.33301 -14.834 -0.5 -18.501 2.5
s-5.5 9.16699 -5.5 18.5l5 17c14 10.667 35 21.667 63 33c18 6.66699 41 13.834 69 21.501s58 14.834 90 21.501c58.667 13.333 93 20 103 20s20.5 -2.83301 31.5 -8.5s16.5 -12.834 16.5 -21.501c0 -7.33301 -2.16699 -14.166 -6.5 -20.499s-11.166 -11.5 -20.499 -15.5h1
c-72.667 -39.333 -121 -98.333 -145 -177c-15.333 -50 -26.833 -94.167 -34.5 -132.5s-11.5 -70.5 -11.5 -96.5c0 -104.667 27 -188.334 81 -251.001h-1c58 -65.333 141.333 -98 250 -98c23.333 0 48.666 1.5 75.999 4.5s55.666 7.16699 84.999 12.5
c37.333 7.33301 66.5 15.833 87.5 25.5s32.5 20.167 34.5 31.5c2 9.33301 2.33301 26.666 1 51.999c-0.666992 11.333 0.833008 20.5 4.5 27.5s6.83398 11.167 9.50098 12.5h-16c0 1.33301 -0.5 10.333 -1.5 27s-2.83301 41.334 -5.5 74.001
c-1.33301 32 -2.5 56.667 -3.5 74s-1.5 26.666 -1.5 27.999l-2 100l-1 4c-0.666992 3.33301 -1.16699 8 -1.5 14s-1.16602 13 -2.49902 21c-1.33301 16.667 -2.5 33.167 -3.5 49.5s-2.16699 32.833 -3.5 49.5c-4 42 -10.667 73.667 -20 95c-6 8 -16.667 12 -32 12
c-2.66699 0 -9.33398 -1.33301 -20.001 -4c-12 -2 -20 -3 -24 -3c-3.33301 0 -7.16602 0.333008 -11.499 1s-9.5 2.33398 -15.5 5.00098c-12.667 6 -19 14 -19 24c0 6 4 13.5 12 22.5s15.667 14.833 23 17.5c17.333 5.33301 36.5 10 57.5 14l69.5 13
c23.333 4.66699 42.333 8 57 10s24 3 28 3c21.333 0 39 -7.5 53 -22.5s22.667 -35.167 26 -60.5c9.33301 -79.333 17.833 -157.166 25.5 -233.499s14.167 -147.833 19.5 -214.5l8 -88l12 -129c1.33301 -14.667 2.33301 -25 3 -31v1c2.66699 -12.667 6 -22.667 10 -30
c5.33301 -10.667 16 -17 32 -19h-1c7.33301 -1.33301 16 -2.5 26 -3.5s18.667 -2.16699 26 -3.5v-27z" />
    <glyph glyph-name="V" unicode="V" horiz-adv-x="1196" 
d="M1063 857c0 -46.667 -8 -103.329 -24 -169.996c-7.33301 -28.667 -15.166 -56.5 -23.499 -83.5s-17.5 -52.833 -27.5 -77.5c-16 -39.333 -34 -78.166 -54 -116.499s-41.333 -74.833 -64 -109.5c-13.333 -19.333 -31.5 -43.5 -54.5 -72.5s-50.167 -60.833 -81.5 -95.5
c-44 -48.667 -82.667 -85.834 -116 -111.501s-60 -38.5 -80 -38.5c-14.667 0 -30.334 7.33301 -47.001 22c-5.33301 5.33301 -11.833 12.666 -19.5 21.999l-28.5 36c-18 25.333 -35.667 52.5 -53 81.5s-33.333 58.5 -48 88.5c-6 13.333 -15.667 36 -29 68l-49 117
c-1.33301 2.66699 -3.66602 8.66699 -6.99902 18l-11 32c-2.66699 6.66699 -5.33398 14 -8.00098 22s-5 15.333 -7 22l-19 51l-14 38v-1c-5.33301 14.667 -10.833 28.834 -16.5 42.501s-12.167 27.5 -19.5 41.5l-27.5 52.5c-7 13 -11.833 21.5 -14.5 25.5
c-18.667 22 -40.334 33 -65.001 33c-1.33301 0 -2.16602 -0.166992 -2.49902 -0.5s-0.833008 -0.5 -1.5 -0.5c-3.33301 -2 -7.33301 -3 -12 -3c-28 0 -42 11.333 -42 34c0 11.333 7.66699 22.333 23 33s39 22.667 71 36c52 22.667 86.333 34 103 34
c16 0 32.667 -7.83301 50 -23.5s34.666 -37.5 51.999 -65.5c16.667 -28 33.334 -58.167 50.001 -90.5s31.334 -63.166 44.001 -92.499c7.33301 -16 16.166 -37.667 26.499 -65l35.5 -94l28.5 -78.5l39.5 -105.5c17.333 -42.667 32.166 -75.667 44.499 -99
s21.166 -35 26.499 -35c5.33301 3.33301 10.5 6.83301 15.5 10.5s9.16699 7.83398 12.5 12.501c11.333 13.333 21.666 26.666 30.999 39.999s18.666 27.666 27.999 42.999c4.66699 7.33301 8.83398 14.666 12.501 21.999s7.83398 15 12.501 23l12 20
c2.66699 4 10.167 18.5 22.5 43.5l44.5 90.5l13.5 35c5 12.667 10.833 26.667 17.5 42l17 42.5l20 48.5c20.667 51.333 31 85.666 31 102.999c0 15.333 -5 25.666 -15 30.999h2c-1.33301 0.666992 -2.66602 1 -3.99902 1s-2.66602 0.333008 -3.99902 1l1 -1
c-13.333 2 -26 5.16699 -38 9.5s-18 13.833 -18 28.5c0 21.333 34 44.666 102 69.999c58 22 94 33 108 33c32 0 48 -23.333 48 -70z" />
    <glyph glyph-name="W" unicode="W" horiz-adv-x="1998" 
d="M1923 868c0 -8 -10.1602 -24.5029 -30.4932 -49.5029s-50.5 -58.5 -90.5 -100.5l-22 -26.5l-30 -35.5l-79 -78.5l-96 -95.5l-82 -81.5l-92 -91.5c-4 -4 -7 -8.5 -9 -13.5s-3.33301 -10.167 -4 -15.5c4.66699 -11.333 9.16699 -22.833 13.5 -34.5
s8.83301 -23.167 13.5 -34.5c11.333 -30 20.333 -56.333 27 -79s10 -39.334 10 -50.001v-21.5c0 -5 -1 -8.16699 -3 -9.5c-2.66699 -5.33301 -6.83398 -10.833 -12.501 -16.5s-12.167 -10.834 -19.5 -15.501c-13.333 -7.33301 -35.333 -15 -66 -23c-24 -6 -41 -9 -51 -9
c-24 0 -46 15.333 -66 46c-4 6.66699 -9.16699 16.5 -15.5 29.5l-22.5 48.5l-35.5 85l-48.5 122l-30 88l-21 66l1 -1c-28 75.333 -50.667 113 -68 113c-11.333 0 -37.666 -22.667 -78.999 -68l-97 -106.5l-138 -153.5c-2 -2 -3 -9 -3 -21c0 -12.667 8 -31 24 -55
c6.66699 -10 13.334 -21.333 20.001 -34s13.667 -27 21 -43c7.33301 -14 12.666 -26.167 15.999 -36.5s5 -17.166 5 -20.499c0 -24.667 -20.667 -45 -62 -61c-32 -11.333 -61 -17 -87 -17h-42c-20 2.66699 -37.333 12.334 -52 29.001c-24 29.333 -55.333 83 -94 161v-1
l-42.5 81l-58.5 112l-80 165l-113 231v-1c-3.33301 5.33301 -7.33301 10.333 -12 15s-10.667 8 -18 10h3c-10.667 0.666992 -21.5 1.16699 -32.5 1.5s-21.833 0.833008 -32.5 1.5c-40.667 2.66699 -61 15.334 -61 38.001c0 22 44.333 46 133 72
c38 11.333 68.167 19.833 90.5 25.5s37.5 8.5 45.5 8.5c23.333 0 48.166 -13 74.499 -39s53.5 -63 81.5 -111l45.5 -91l84.5 -179c43.333 -92 72.333 -138 87 -138c2.66699 0 10.5 7.16699 23.5 21.5l54.5 60.5c52 60.667 95.5 114.5 130.5 161.5s60.833 86.833 77.5 119.5
v-1c2.66699 6.66699 4 19 4 37c0.666992 9.33301 3 18.166 7 26.499s8.66699 15.833 14 22.5c3.33301 4.66699 7.16602 9.16699 11.499 13.5l13.5 13.5c4.66699 4.66699 8.83398 9.16699 12.501 13.5s7.83398 8.83301 12.501 13.5c21.333 20.667 42 31 62 31
c29.333 0 52 -10.667 68 -32c1.33301 -1.33301 3.16602 -3.66602 5.49902 -6.99902s5.16602 -8.66602 8.49902 -15.999l9 -15c3.33301 -5.33301 6.66602 -11.666 9.99902 -18.999c12.667 -23.333 26.5 -50.833 41.5 -82.5l49.5 -108.5
c19.333 -46 36.666 -85.5 51.999 -118.5s28 -59.167 38 -78.5c3.33301 -6 10 -9 20 -9c22.667 0 79 54 169 162c42 52 76.333 96.333 103 133s44.667 66 54 88c1.33301 2.66699 2.66602 7.33398 3.99902 14.001s2.66602 15.334 3.99902 26.001
c1.33301 11.333 3.33301 20.666 6 27.999s5.66699 13.666 9 18.999c8 11.333 32.667 20.333 74 27c1.33301 0 2.33301 0.166992 3 0.5s1.66699 0.5 3 0.5l49.5 9.5c12.333 2.33301 20.166 3.5 23.499 3.5c14.667 0 29.667 -3.33301 45 -10c20 -9.33301 30 -22.333 30 -39z
" />
    <glyph glyph-name="X" unicode="X" horiz-adv-x="1037" 
d="M914 52c0 -15.333 -13.334 -29.001 -40.001 -41.001c1.33301 0.666992 0 0.166992 -4 -1.5s-7 -3.16699 -9 -4.5c-12.667 -5.33301 -29 -9.83301 -49 -13.5s-43 -5.83398 -69 -6.50098c-11.333 -0.666992 -23.333 -0.833984 -36 -0.500977s-25.667 1.16602 -39 2.49902
c-17.333 0.666992 -34 4.66699 -50 12s-29.667 17.666 -41 30.999c-26.667 30.667 -43.667 51.334 -51 62.001c-19.333 25.333 -34 47.333 -44 66c-6.66699 13.333 -13.667 26.333 -21 39s-15.333 25.667 -24 39l-24 36c-8 12.667 -13.333 20.834 -16 24.501
s-4.66699 7.16699 -6 10.5c-36 -46 -65 -84.833 -87 -116.5s-37.667 -57.167 -47 -76.5c-2.66699 -6 -5.66699 -20.333 -9 -43c-2 -17.333 -5.33301 -30 -10 -38c-5.33301 -10.667 -17.333 -18.334 -36 -23.001c-2 0 -3.66699 -0.333008 -5 -1
c-5.33301 -1.33301 -14.166 -3.16602 -26.499 -5.49902l-50.5 -9.5c-1.33301 0 -2.66602 -0.166992 -3.99902 -0.5s-2.66602 -0.5 -3.99902 -0.5c-3.33301 -0.666992 -6.5 -1.16699 -9.5 -1.5s-5.83301 -0.833008 -8.5 -1.5s-5.66699 -1 -9 -1
c-14.667 0 -28.334 2.66699 -41.001 8c-19.333 9.33301 -29 21 -29 35c0 6 5 15.667 15 29s24 30 42 50l28 30.5l36 37.5c5.33301 7.33301 12.333 16.333 21 27l30 36l61 63l92 91l-63 112l-37 64l-60 95.5c-19.333 29.667 -37.666 56.167 -54.999 79.5
c-11.333 14.667 -22.666 24 -33.999 28h2c-18 0.666992 -40 1.66699 -66 3c-39.333 3.33301 -59 14.333 -59 33c0 20 42 43 126 69c71.333 21.333 114.333 32 129 32c42.667 0 92 -38 148 -114c17.333 -24.667 37.5 -55.334 60.5 -92.001s48.167 -79.667 75.5 -129
c72 90 117.333 155.333 136 196c1.33301 3.33301 2.83301 8.33301 4.5 15s3.16699 15.334 4.5 26.001c2.66699 20 6.83398 34.333 12.501 43s17.5 15.334 35.5 20.001c0.666992 0 1.16699 0.166992 1.5 0.5s0.833008 0.5 1.5 0.5c5.33301 1.33301 14.5 3.16602 27.5 5.49902
l48.5 8.5c2 0.666992 4.66699 1.16699 8 1.5s5.66602 0.833008 6.99902 1.5c4 0.666992 7.66699 1.16699 11 1.5s6.66602 0.5 9.99902 0.5c6.66699 0 13.5 -0.833008 20.5 -2.5s13.833 -3.5 20.5 -5.5c19.333 -7.33301 29 -19 29 -35c0 -10.667 -18.667 -36.667 -56 -78
l-29 -31l-35 -37c-5.33301 -7.33301 -12.666 -16.333 -21.999 -27l-31 -36l-62 -64.5l-94 -94.5c10.667 -19.333 20.5 -36.333 29.5 -51l21.5 -36h-1c20.667 -31.333 32.667 -51.666 36 -60.999c3.33301 -6.66699 7.66602 -14.167 12.999 -22.5s11.333 -17.166 18 -26.499
c4 -5.33301 7.33301 -11 10 -17c1.33301 -3.33301 3.66602 -8.33301 6.99902 -15l13 -25v1c1.33301 -4 2.66602 -7 3.99902 -9c18 -29.333 36 -53.333 54 -72c2 -2 3.5 -3.83301 4.5 -5.5s2.16699 -3.16699 3.5 -4.5v1c3.33301 -4 5.83301 -7.16699 7.5 -9.5l5.5 -7.5
c17.333 -26 38 -38.667 62 -38c15.333 0.666992 28 -0.166016 38 -2.49902s18 -6.83301 24 -13.5c5.33301 -6 8 -12.667 8 -20z" />
    <glyph glyph-name="Y" unicode="Y" horiz-adv-x="1318" 
d="M1149 852c-19.333 -11.333 -35.8301 -21.998 -49.4971 -31.998s-24.5 -20.333 -32.5 -31c-10.667 -14.667 -22.167 -32 -34.5 -52l-39.5 -67c-5.33301 -11.333 -11 -22 -17 -32s-11.667 -20 -17 -30l-33 -63l-74 -136.5l-109 -209.5
c-2 -3.33301 -4.16699 -8.33301 -6.5 -15s-5.16602 -15.667 -8.49902 -27c-7.33301 -19.333 -16.666 -40.5 -27.999 -63.5s-25.666 -47.5 -42.999 -73.5l1 1c-1.33301 -2 -9.5 -13.5 -24.5 -34.5l-64.5 -91.5l-43.5 -57l-58.5 -79l-22 -26l-29 -34l-10.5 -12.5l-11.5 -13.5
c-14.667 -17.333 -25.834 -33.333 -33.501 -48s-11.834 -26.334 -12.501 -35.001c0 -20 6.66699 -34.333 20 -43l-1 1l26.5 -13c8.33301 -4 17.166 -7.66699 26.499 -11c9.33301 -5.33301 14 -12.333 14 -21c0 -29.333 -36.667 -49 -110 -59
c-11.333 -1.33301 -26.5 -2.33301 -45.5 -3s-42.5 -1 -70.5 -1h-137c-5.33301 0 -11.166 1.33301 -17.499 4s-12.333 6.33398 -18 11.001s-10.334 9.5 -14.001 14.5s-5.5 10.167 -5.5 15.5c0 13.333 5.66699 26.333 17 39l34 36.5l34 36.5l66 71l66 70l105.5 119
c33 38.667 61.167 73.667 84.5 105c32.667 43.333 49 76 49 98c0.666992 21.333 -18.333 67.333 -57 138c-11.333 18 -22.666 37.333 -33.999 58l-37 66c-8 15.333 -15.667 31.166 -23 47.499l-22 48.5l-22.5 47.5l-22.5 47.5l-52 106c-16 32 -29.667 57.667 -41 77l-20 38
c-4 8 -8 14.333 -12 19s-7.66699 8.33398 -11 11.001c-12 10 -26.333 15 -43 15c-4.66699 0 -14.334 -1.66699 -29.001 -5h1c-8 -2.66699 -14.5 -4.5 -19.5 -5.5s-8.83301 -1.83301 -11.5 -2.5c-14 -1.33301 -24.667 0.333984 -32 5.00098h1
c-13.333 6.66699 -20 17.667 -20 33c0 13.333 6.66699 26.166 20 38.499s31.666 23.833 54.999 34.5c12.667 5.33301 26.667 10.666 42 15.999s30 9.66602 44 12.999c20.667 8.66699 48 18 82 28l-1 -1c1.33301 0.666992 2.5 1 3.5 1s2.16699 0.333008 3.5 1
c2 1.33301 6.33301 2 13 2c1.33301 0 2.83301 0.166992 4.5 0.5s3.5 0.5 5.5 0.5h21c10 0 23 -7.33301 39 -22v1c20.667 -18 40.667 -44 60 -78l45 -85l77.5 -149.5l110.5 -210.5c10 -20 21 -30 33 -30c6.66699 0 15 5 25 15l10 14.5c4 5.66699 8.66699 11.834 14 18.501
c13.333 16.667 27.166 37.5 41.499 62.5s29.166 53.167 44.499 84.5l47 96c14 27.333 25 47.333 33 60h-1c93.333 151.333 189 227 287 227c54 0 79 -14.333 75 -43c-3.33301 -16.667 -20 -32.334 -50 -47.001z" />
    <glyph glyph-name="Z" unicode="Z" horiz-adv-x="1113" 
d="M967 892c0 -15.333 -4.33301 -27.3301 -13 -35.9971l-162.5 -163.5l-236.5 -243.5l-52.5 -60l-63.5 -76l-28 -35l-28 -35l-28 -35l-28 -35c-14 -17.333 -21 -28.333 -21 -33c0 -10 11.333 -15 34 -15h12c4 0 8.66699 0.166992 14 0.5s12 0.833008 20 1.5
c8.66699 0.666992 16.334 1.16699 23.001 1.5s12 0.5 16 0.5h9l312 -17c18 0.666992 36.667 2.83398 56 6.50098s37 8.5 53 14.5c38.667 16 60.334 24 65.001 24c7.33301 0 15.666 -3.83301 24.999 -11.5s14 -14.834 14 -21.501c0 -11.333 -12.333 -26.166 -37 -44.499
s-62.334 -37.166 -113.001 -56.499c-26 -9.33301 -49.667 -16.833 -71 -22.5s-40.333 -9.83398 -57 -12.501c-19.333 -2.66699 -37.833 -4.33398 -55.5 -5.00098s-34.5 -1 -50.5 -1h-18c-5.33301 0.666992 -11.666 1.16699 -18.999 1.5s-15.666 1.16602 -24.999 2.49902
c-17.333 1.33301 -31.166 2.33301 -41.499 3s-16.5 1 -18.5 1h-423c-5.33301 2 -9 4 -11 6c-2 1.33301 -6 5 -12 11v17c0 8 9.33301 21.667 28 41c5.33301 6 10 11.5 14 16.5l11 13.5v-1l12 13.5c3.33301 3.66699 5.66602 6.5 6.99902 8.5l119 151.5c36 45 69 84.5 99 118.5
c19.333 22.667 45.833 51.834 79.5 87.501l119.5 126.5c4.66699 5.33301 9.66699 10.666 15 15.999s11.333 11.666 18 18.999l25 26.5l30 31.5l21 20.5l21 20.5c16 16.667 24 29.667 24 39c0 18.667 -25.333 28 -76 28c-14.667 0 -28.334 -1 -41.001 -3
c-40 0 -86.667 -2 -140 -6s-114 -9.66699 -182 -17c-5.33301 -0.666992 -12.166 -2 -20.499 -4l-33.5 -8c-26 -6 -41 -9 -45 -9c-19.333 0 -29 10.667 -29 32c0 12.667 6.66699 25.167 20 37.5s31.666 24.166 54.999 35.499c15.333 7.33301 30.666 13.833 45.999 19.5
s29.666 10.167 42.999 13.5l-1 -1c10.667 2.66699 28.334 6 53.001 10c4.66699 1.33301 9.83398 2.33301 15.501 3s11.167 1.66699 16.5 3l578 13c21.333 0 39.666 -7.33301 54.999 -22z" />
    <glyph glyph-name="bracketleft" unicode="[" horiz-adv-x="334" 
d="M199 696c-0.666992 0.666992 -1.66699 1 -3 1c2 0 3 -0.333008 3 -1zM192 698c1.33301 0 2.66699 -0.333008 4 -1c-2.66699 0.666992 -6.16699 1 -10.5 1h-14.5c8.66699 1.33301 15.667 1.33301 21 0zM0.000976562 433v11.0059c0 6.66699 0.333008 16.667 1 30
c0 4.66699 0.166992 10.167 0.5 16.5s0.5 11.166 0.5 14.499c0 5.33301 0.166992 9.66602 0.5 12.999s0.5 6 0.5 8c0 4.66699 -1 14.667 -3 30c0 2.66699 -0.166992 5 -0.5 7s-0.5 4 -0.5 6c-0.666992 4 -1 8.5 -1 13.5v11.5c0 10 2.33301 22.333 7 37
c1.33301 2 2.83301 4.66699 4.5 8l5.5 11l-1 -1c8 28 33 44.667 75 50l2 -19l87 11c16 2 23 3.66699 21 5c2.66699 -0.666992 6.66699 -2.33398 12 -5.00098c15.333 -8 19.333 -18.333 12 -31c-5.33301 -8.66699 -17.666 -16.334 -36.999 -23.001
c-5.33301 0 -12.5 -1.33301 -21.5 -4s-19.167 -6.33398 -30.5 -11.001c-4 -5.33301 -5.66699 -16.333 -5 -33l2 -85v-123c0 -18.667 0.166992 -34.667 0.5 -48s0.833008 -24.333 1.5 -33l4 -69c0.666992 -10 1 -22.5 1 -37.5v-45.5l1 -189v-13
c0 -5.33301 -0.333008 -10 -1 -14c0 -1.33301 -0.166992 -2.83301 -0.5 -4.5s-0.5 -2.83398 -0.5 -3.50098c0 -5.33301 9.33301 -10 28 -14c3.33301 -0.666992 6.5 -1.16699 9.5 -1.5s6.5 -0.833008 10.5 -1.5c19.333 -6.66699 32.666 -16 39.999 -28
c4.66699 -10.667 1.66699 -19 -9 -25c-9.33301 -4 -17 -6.66699 -23 -8s-13.333 -2 -22 -2c-5.33301 0.666992 -9.5 1 -12.5 1h-7.5h-13.5c-5.66699 0 -12.5 -0.333008 -20.5 -1c-5.33301 -0.666992 -11 -1 -17 -1s-10 0.333008 -12 1c-28.667 2 -48.334 10 -59.001 24
c-2 2.66699 -4.16699 6.83398 -6.5 12.501s-5.16602 13.5 -8.49902 23.5v8.5c0 3 -0.333008 6.16699 -1 9.5c0 1.33301 -0.166992 2.5 -0.5 3.5s-0.5 2.16699 -0.5 3.5v-1c-5.33301 19.333 -8 60.666 -8 123.999z" />
    <glyph glyph-name="backslash" unicode="\" horiz-adv-x="821" 
d="M172 444l-11.998 23.5l-15 28.5l-6 12c-6.66699 12.667 -13 23.834 -19 33.501s-12.667 18.167 -20 25.5l-12.5 10.5c-3.66699 3 -7.5 6.5 -11.5 10.5c-10 5.33301 -15.667 9.33301 -17 12c-4 4 -7.5 8 -10.5 12s-5.16699 7 -6.5 9c-6.66699 8.66699 -5.66699 16 3 22
c2.66699 1.33301 5.16699 2.16602 7.5 2.49902s5.5 0.5 9.5 0.5c19.333 -4 31.666 -7.66699 36.999 -11c8 -2.66699 16 -5.66699 24 -9l17 -7c12.667 -3.33301 26.334 -12 41.001 -26c3.33301 -2.66699 6 -5.16699 8 -7.5s4.66699 -4.83301 8 -7.5c4 -2.66699 7 -5 9 -7
c10 -6.66699 16.667 -11.667 20 -15c20 -14.667 41 -41.667 63 -81l37 -65c5.33301 -10.667 10.833 -21 16.5 -31l14.5 -26l23 -47c3.33301 -5.33301 7.5 -12.5 12.5 -21.5l18.5 -32.5l48 -84l30 -58c5.33301 -11.333 13.333 -24.666 24 -39.999s22 -30.666 34 -45.999
c0 -0.666992 1.66699 -1.66699 5 -3c1.33301 -0.666992 2.66602 -1.66699 3.99902 -3c9.33301 -2.66699 17 -9.66699 23 -21v1c8.66699 -14.667 4.66699 -23.667 -12 -27c-8.66699 -1.33301 -16.667 0 -24 4c-6.66699 3.33301 -14.334 5.66602 -23.001 6.99902
c-19.333 6.66699 -33 11.667 -41 15c-5.33301 2.66699 -11 5.66699 -17 9s-11.333 6.66602 -16 9.99902c-6.66699 4 -14.667 11.333 -24 22l-22 25c-22.667 30 -37.667 51.667 -45 65l-21.5 35l-17.5 28z" />
    <glyph glyph-name="bracketright" unicode="]" horiz-adv-x="416" 
d="M222 52c-0.666992 -32 -1.50488 -58.335 -2.50488 -79.002s-2.83301 -35.667 -5.5 -45c-1.33301 -12 -2.33301 -20.667 -3 -26c-2 -8.66699 -4.5 -15.667 -7.5 -21s-5.16699 -9.66602 -6.5 -12.999c-5.33301 -7.33301 -13.333 -12.833 -24 -16.5s-23 -6.16699 -37 -7.5
c-6.66699 -1.33301 -15.667 -1.33301 -27 0c-8 0.666992 -14.833 1 -20.5 1h-13.5h-8c-3.33301 0 -7.66602 -0.333008 -12.999 -1c-8 0 -15.167 0.666992 -21.5 2s-14.166 4 -23.499 8c-12.667 6.66699 -15 16 -7 28c6.66699 10.667 19 19 37 25
c5.33301 0.666992 9.5 1.16699 12.5 1.5s5.83301 0.833008 8.5 1.5h-1c13.333 3.33301 21.5 5.66602 24.5 6.99902s4.5 3.66602 4.5 6.99902v14c-0.666992 3.33301 -1 6.83301 -1 10.5v10.5v189c0 17.333 0.166992 32.833 0.5 46.5s0.833008 25.834 1.5 36.501l2 35
c0.666992 12 1.33398 23.333 2.00098 34c0.666992 8.66699 1 19.667 1 33v48v123l3 85c0.666992 9.33301 0.333984 16.666 -0.999023 21.999s-2.66602 9 -3.99902 11c-11.333 4.66699 -21.666 8.33398 -30.999 11.001s-16.333 4 -21 4c-18 6 -30.333 13.333 -37 22
c-6 13.333 -2 24 12 32c3.33301 2.66699 7 4.33398 11 5.00098c-0.666992 -1.33301 7.16602 -3.16602 23.499 -5.49902s44.833 -5.83301 85.5 -10.5l2 19c41.333 -5.33301 66.333 -22 75 -50l-1 1c2 -3.33301 4 -7 6 -11s4.66699 -8.33301 8 -13c2 -8 3 -18.667 3 -32
c0 -7.33301 -1 -20 -3 -38c-2 -15.333 -2.66699 -24.666 -2 -27.999v-19c0 -9.33301 0.333008 -21 1 -35c0.666992 -8.66699 1.16699 -16.834 1.5 -24.501s0.5 -13.167 0.5 -16.5zM54.9951 697.998h-14.502c-4.33301 0 -7.83301 -0.333008 -10.5 -1
c0.666992 0 1.33398 0.166992 2.00098 0.5s1.33398 0.5 2.00098 0.5c6 1.33301 13 1.33301 21 0zM29.9932 696.998c-2 0 -3.33301 -0.333008 -4 -1c0 0.666992 1.33301 1 4 1z" />
    <glyph glyph-name="asciicircum" unicode="^" horiz-adv-x="509" 
d="M9 634c16 6.66699 33.334 17.667 52.001 33s35.667 32 51 50l44.5 59.5l42.5 58.5c5.33301 -23.333 14 -44.5 26 -63.5s26.667 -37.167 44 -54.5s34.666 -30.5 51.999 -39.5s34.666 -15.167 51.999 -18.5l1 -110c-18.667 4.66699 -37.667 11.5 -57 20.5
s-37.666 20.167 -54.999 33.5c-33.333 24.667 -57.333 51.667 -72 81c-32 -40.667 -62.5 -73.667 -91.5 -99s-56.167 -42 -81.5 -50z" />
    <glyph glyph-name="underscore" unicode="_" horiz-adv-x="590" 
d="M592 -140h-594v82h594v-82z" />
    <glyph glyph-name="grave" unicode="`" 
d="M17 559c0 44.667 18 69.999 54 75.999c14 2 27.5 -0.833008 40.5 -8.5s20.833 -18.5 23.5 -32.5c2.66699 -15.333 -1.33301 -39.333 -12 -72c0.666992 0.666992 1 -0.166016 1 -2.49902v-5.5l8 -39.5c2 -9.66699 3.66699 -15.5 5 -17.5l3 -6
c1.33301 -2.66699 3 -6.66699 5 -12l1 -18l-19 -2c-3.33301 0 -11.333 1 -24 3c-44.667 8 -72.667 44.667 -84 110z" />
    <glyph glyph-name="a" unicode="a" horiz-adv-x="757" 
d="M402 165c0 4 -5.66211 17.6689 -16.9951 41.002l-49 98c-12 24.667 -21 38.667 -27 42c-8.66699 -7.33301 -20.334 -19 -35.001 -35l-48 -55l-11.5 -15.5c-3.66699 -5 -6.16699 -8.16699 -7.5 -9.5l-9 -11l-10 -14c-3.33301 -4.66699 -7 -9.33398 -11 -14.001
c-17.333 -24.667 -26 -42.334 -26 -53.001c0 -12 9.33301 -23.667 28 -35c19.333 -10.667 35 -16 47 -16s25 1.66699 39 5s29.667 8 47 14c3.33301 1.33301 9.16602 4 17.499 8s19.166 9.66699 32.499 17l-1 -1l8 6c1.33301 1.33301 2.66602 2.5 3.99902 3.5
s2.66602 2.16699 3.99902 3.5l17.5 12.5c5 3.66699 7.5 6.5 7.5 8.5zM711.005 9.00195c-1.33301 -1.33301 -3.83496 -3.33398 -7.50195 -6.00098s-6.5 -4.66699 -8.5 -6c-4 -0.666992 -13 -1 -27 -1h-57h-55c-14 0 -23.333 0.333008 -28 1
c-13.333 2 -29.666 13.667 -48.999 35c-2.66699 2.66699 -5.83398 6.66699 -9.50098 12l-15.5 22l-5 10v-2c-2.66699 4.66699 -5.16699 8.83398 -7.5 12.501s-4.83301 5.5 -7.5 5.5c-12 0 -42.333 -15.667 -91 -47h1c-33.333 -22.667 -62 -37 -86 -43
c-15.333 -4 -39.666 -6 -72.999 -6c-21.333 0 -41.333 1 -60 3s-35 5.33301 -49 10c-15.333 4 -33 15 -53 33s-30 35.667 -30 53c0 10.667 43.667 69.667 131 177l25 27.5l31 35.5l23.5 27.5c12.333 14.333 30.166 33.833 53.499 58.5c2 2 3 5.66699 3 11
c0 25.333 -25.667 66.666 -77 123.999c-3.33301 3.33301 -7.66602 6 -12.999 8s-17.333 4 -36 6c-19.333 2 -35 8 -47 18v21c8.66699 6 18.667 9.66699 30 11l56 3h7.5c3.66699 0 8.5 0.333008 14.5 1h23h8c4 0 8.33301 -0.333008 13 -1h20c30 0 61.167 -16.5 93.5 -49.5
s63.5 -76.833 93.5 -131.5c6 -9.33301 13.167 -21.666 21.5 -36.999l29.5 -52l24.5 -52l31.5 -68c4.66699 -9.33301 9.33398 -19.333 14.001 -30l15 -33c16 -33.333 32.333 -60 49 -80s32.334 -32.667 47.001 -38c2 -0.666992 5.16699 -2.5 9.5 -5.5
s9.83301 -6.5 16.5 -10.5c-0.666992 0.666992 1.66602 -0.333008 6.99902 -3v-24z" />
    <glyph glyph-name="b" unicode="b" horiz-adv-x="708" 
d="M409 423c0 3.33301 -0.505859 7.00098 -1.50586 11.001l-3.5 14c-13.333 42 -36.666 63 -69.999 63c-3.33301 0 -6.66602 -0.333008 -9.99902 -1s-6.66602 -1.66699 -9.99902 -3c-1.33301 0 -2.66602 -0.333008 -3.99902 -1l-4 -2h1l-13 -5
c-7.33301 -2.66699 -24.666 -14 -51.999 -34c-27.333 -22 -41 -36.667 -41 -44v-59v-4.5c0 -1.66699 0.333008 -4.16699 1 -7.5c0.666992 -4 1.16699 -8.66699 1.5 -14s0.5 -10 0.5 -14c1.33301 -1.33301 4 -2 8 -2c-0.666992 0 2.33301 0.666992 9 2
c3.33301 0.666992 8.33301 1.5 15 2.5s9.33398 1.16699 8.00098 0.5c5.33301 1.33301 15.333 3.5 30 6.5s33.667 8.16699 57 15.5c32 10 55.667 25 71 45c4.66699 5.33301 7 15.666 7 30.999zM436.994 144.001c0 32.667 -10.999 62 -32.999 88
c-20.667 25.333 -47.334 38 -80.001 38c-2.66699 0 -10.667 -1.33301 -24 -4c-9.33301 -1.33301 -17.333 -2.33301 -24 -3c-2 0 -4.16699 -0.166992 -6.5 -0.5s-4.16602 -0.5 -5.49902 -0.5c-10.667 -1.33301 -20.334 -3 -29.001 -5s-15.334 -3.66699 -20.001 -5h-1
c-5.33301 -3.33301 -8.33301 -6 -9 -8c-0.666992 -5.33301 -1.16699 -11.833 -1.5 -19.5s-0.5 -17.167 -0.5 -28.5v-8c0 -4 0.333008 -10.667 1 -20v-29l1 -71c0 -7.33301 13 -11 39 -11c2.66699 0 9 1 19 3c2 0.666992 4.5 1 7.5 1s5.5 0.333008 7.5 1l37 3
c10 1.33301 20.5 4 31.5 8s22.5 8.66699 34.5 14c36.667 18.667 55.334 37.667 56.001 57zM551.995 204.001c0 -66.667 -43.0029 -122.006 -129.003 -166.006c-26.667 -13.333 -54.167 -24.5 -82.5 -33.5s-57.5 -15.833 -87.5 -20.5h1c-29.333 -4 -61.666 -6 -96.999 -6
c-17.333 0 -31.666 0.833008 -42.999 2.5s-19.333 3.83398 -24 6.50098v-1c-16 10 -24 35.333 -24 76l-2 205v31c0 3.33301 -0.166992 6.83301 -0.5 10.5s-0.5 7.5 -0.5 11.5c-0.666992 10 -1 20.333 -1 31v24c0 2.66699 -0.333008 5.66699 -1 9
c0 1.33301 -0.166992 3.33301 -0.5 6s-0.5 5 -0.5 7c-0.666992 2.66699 -1.16699 4.83398 -1.5 6.50098s-0.5 4.16699 -0.5 7.5v4h17c-2.66699 3.33301 -6 11.833 -10 25.5s-5.66699 33.167 -5 58.5c0.666992 2.66699 1.16699 5.83398 1.5 9.50098
s1.16602 7.83398 2.49902 12.501c0 4 0.333008 7.5 1 10.5s1 4.16699 1 3.5c0 5.33301 -2.33301 8 -7 8c-0.666992 0 -3.16699 -0.833008 -7.5 -2.5s-12.166 -5.16699 -23.499 -10.5c-1.33301 -0.666992 -2.33301 -1 -3 -1s-1.66699 -0.333008 -3 -1
c-20.667 -8.66699 -31.667 -13 -33 -13c-18 0 -27 7.33301 -27 22c0 21.333 32.333 43.333 97 66c53.333 17.333 88 26 104 26c25.333 0 38 -9.66699 38 -29v-23c-0.666992 -6 -1 -10.5 -1 -13.5v-6.5l-1 -45c0 -3.33301 -0.333008 -5 -1 -5
c1.33301 0.666992 6 4.16699 14 10.5l35 28.5c40 31.333 67.333 51.333 82 60c16.667 9.33301 36.334 14 59.001 14c28 0 52.333 -9 73 -27s37.667 -42.667 51 -74c2.66699 -6 4 -19.667 4 -41v-30c-3.33301 -9.33301 -8.16602 -18.5 -14.499 -27.5
s-13.833 -18.5 -22.5 -28.5h-1c-2 -2 -3.83301 -4.16699 -5.5 -6.5s-3.83398 -5.16602 -6.50098 -8.49902c-2 -2.66699 -4 -5 -6 -7l-7 -7l-5 -6c0.666992 0 1.16699 -0.166992 1.5 -0.5s1.16602 -0.5 2.49902 -0.5l-1 1c14 -4.66699 27.5 -12.667 40.5 -24
s25.5 -26.666 37.5 -45.999l11 -19c2.66699 -4.66699 4.33398 -8.66699 5.00098 -12c2.66699 -11.333 4.5 -21.333 5.5 -30s1.5 -16 1.5 -22z" />
    <glyph glyph-name="c" unicode="c" horiz-adv-x="704" 
d="M553 546c0 -12 -2.33496 -23.668 -7.00195 -35.001s-11 -21.5 -19 -30.5s-17.667 -16.167 -29 -21.5s-23.333 -8 -36 -8c-18.667 0 -28 6.66699 -28 20c0 1.33301 1.33301 4 4 8s7 8.66699 13 14c12 8.66699 19.333 15 22 19c0.666992 0.666992 1 1.66699 1 3
c0 7.33301 -7.33301 14.333 -22 21h1c-13.333 4 -26.666 6 -39.999 6c-0.666992 0 -5.16699 -0.666992 -13.5 -2s-21.5 -3.66602 -39.5 -6.99902c-85.333 -16 -147 -61 -185 -135c-5.33301 -9.33301 -10 -18.833 -14 -28.5s-7.66699 -20.5 -11 -32.5l1 1
c-8 -30 -12 -51.667 -12 -65c0 -34 8.66699 -67.333 26 -100c10.667 -19.333 23.5 -35.5 38.5 -48.5s31.5 -24.167 49.5 -33.5l29.5 -9c9 -2.66699 16.167 -4 21.5 -4c1.33301 -0.666992 3 -1 5 -1c1.33301 0 3.16602 -0.166992 5.49902 -0.5s4.5 -0.5 6.5 -0.5
c3.33301 -0.666992 6.5 -1.16699 9.5 -1.5s4.83301 -0.5 5.5 -0.5c9.33301 0 25 2 47 6l25 5c6.66699 1.33301 9.33398 2 8.00098 2c2.66699 0.666992 6 1.83398 10 3.50098s7.33301 3.16699 10 4.5c3.33301 1.33301 6.5 2.83301 9.5 4.5s6.16699 3.16699 9.5 4.5
c23.333 10.667 38.333 16 45 16c18.667 0 28 -8.66699 28 -26c0 -6 -4.66699 -13 -14 -21s-21.666 -16 -36.999 -24c-22 -12.667 -44.167 -22.834 -66.5 -30.501s-43.5 -13.167 -63.5 -16.5s-37.833 -5.83301 -53.5 -7.5s-28.834 -2.5 -39.501 -2.5
c-19.333 0 -42.333 3 -69 9c-31.333 6.66699 -59.166 16.667 -83.499 30s-44.166 29.666 -59.499 48.999c-10.667 12.667 -19.334 31.334 -26.001 56.001c-7.33301 26 -11 47.667 -11 65c0 18 1.66699 36.333 5 55s8 38 14 58c32 99.333 93.667 177 185 233v-1
c76.667 48 158 72 244 72c66.667 0 100 -24 100 -72z" />
    <glyph glyph-name="d" unicode="d" horiz-adv-x="804" 
d="M538 262c0 14 -8.33691 35.6709 -25.0039 65.0039c-7.33301 11.333 -14.5 21.833 -21.5 31.5s-13.833 18.167 -20.5 25.5c-17.333 18.667 -35.833 37 -55.5 55l-56.5 50c-3.33301 3.33301 -10.666 5 -21.999 5c-31.333 0 -67.666 -17.667 -108.999 -53
c-20 -17.333 -37.167 -35.333 -51.5 -54s-25.5 -37.667 -33.5 -57c-4 -12.667 -7.66699 -23.334 -11 -32.001s-5 -13.667 -5 -15c0 -26.667 8.66699 -56.334 26 -89.001c18 -30 41.333 -52.333 70 -67c4 -2.66699 10.333 -4.83398 19 -6.50098l35 -6.5h-1
c0.666992 0 1.83398 -0.333008 3.50098 -1s3.83398 -1.33398 6.50098 -2.00098v1c3.33301 -1.33301 7.16602 -2.5 11.499 -3.5s5.83301 -1.5 4.5 -1.5c21.333 0 43.333 3.33301 66 10s47.334 16.667 74.001 30c64 32 96 70.333 96 115zM659.996 302.004
c0 -67.333 -37.332 -132.665 -111.999 -195.998c-14.667 -12 -32.334 -24.5 -53.001 -37.5s-44.667 -26.167 -72 -39.5c-1.33301 -0.666992 -3.33301 -1.33398 -6 -2.00098s-5.33398 -1.66699 -8.00098 -3c-2 -0.666992 -4.16699 -1.33398 -6.5 -2.00098
s-4.83301 -1.33398 -7.5 -2.00098c-38 -18.667 -80.333 -28 -127 -28c-16.667 0 -43.334 3 -80.001 9c-3.33301 1.33301 -7.5 3.33301 -12.5 6s-11.167 5.66699 -18.5 9l1 -1c-14 3.33301 -28.667 9.83301 -44 19.5s-31 21.834 -47 36.501c-15.333 14 -28 28.667 -38 44
s-17 29.666 -21 42.999c-6 18.667 -9 41.667 -9 69c0 28 3.33301 54.333 10 79c4 4 8.33301 11.333 13 22c3.33301 10.667 10 24.5 20 41.5s24 36.833 42 59.5c8.66699 10.667 19.5 21.834 32.5 33.501l45.5 39.5c8 6 15.833 11.5 23.5 16.5s15.5 9.5 23.5 13.5
c43.333 20 65 34 65 42c0 1.33301 -4 6 -12 14c-1.33301 1.33301 -2.66602 2.5 -3.99902 3.5s-2.66602 2.16699 -3.99902 3.5l-16 16l-11 11.5l-14 14.5c-3.33301 4 -7.16602 8.16699 -11.499 12.5l-14.5 14.5c-82.667 109.333 -124 171 -124 185
c0 24.667 24.333 51.334 73 80.001c19.333 12 36.833 21.167 52.5 27.5s27.5 9.5 35.5 9.5h6c2.66699 0 4.66699 -0.333008 6 -1c2 -0.666992 4.16699 -1.33398 6.5 -2.00098s6.16602 -2 11.499 -4c1.33301 -2.66699 2.5 -5.16699 3.5 -7.5s1.5 -4.5 1.5 -6.5
c0 -8.66699 -6.66699 -16.667 -20 -24c-12 -6 -19 -11.667 -21 -17c-0.666992 -0.666992 -1 -3.66699 -1 -9c0 -12.667 19.667 -45.667 59 -99c15.333 -20 29 -37 41 -51s21.667 -24.667 29 -32l5 -5l23.5 -21.5l31.5 -30.5l40 -39l40 -39l38 -37l38 -37
c20 -21.333 37.5 -43 52.5 -65s26.833 -43.667 35.5 -65c3.33301 -7.33301 5.83301 -17.333 7.5 -30s2.5 -26.667 2.5 -42z" />
    <glyph glyph-name="e" unicode="e" horiz-adv-x="691" 
d="M565 532c0 -14.667 -7.66113 -29.0029 -22.9941 -43.0029c-13.333 -13.333 -27 -20 -41 -20c-14.667 0 -24.334 7.33301 -29.001 22c-2.66699 7.33301 -5.5 12.833 -8.5 16.5s-6.5 6.83398 -10.5 9.50098h1c-7.33301 4.66699 -24 11 -50 19c-23.333 6 -42.333 9 -57 9
c-33.333 0 -65.333 -10 -96 -30c-16 -11.333 -31.333 -25 -46 -41s-26.667 -33.333 -36 -52s-14 -29.667 -14 -33c-1.33301 -13.333 4 -20 16 -20h104c1.33301 0 4 -0.166992 8 -0.5s9 -0.833008 15 -1.5h-1c3.33301 -0.666992 6.16602 -1 8.49902 -1h6.5
c1.33301 0 2.66602 -0.166992 3.99902 -0.5s2.33301 -0.5 3 -0.5h150c43.333 0 65 -12 65 -36c0 -12 -10.333 -25.333 -31 -40c-7.33301 -5.33301 -14.5 -9.83301 -21.5 -13.5l-14.5 -7.5c-5.33301 -2.66699 -12 -4 -20 -4c-5.33301 0 -16.333 5 -33 15
c-15.333 8.66699 -26.666 13 -33.999 13l-149 -2c-4 -1.33301 -10.5 -2.16602 -19.5 -2.49902s-19.5 -0.833008 -31.5 -1.5h-1c-16 -0.666992 -25.667 -1.66699 -29 -3c0 -2 -0.166992 -4.5 -0.5 -7.5s-0.5 -5.16699 -0.5 -6.5c-0.666992 -3.33301 -1 -5.5 -1 -6.5v-2.5
c0.666992 -4 1.16699 -8 1.5 -12s1.16602 -8.66699 2.49902 -14c0.666992 -2.66699 1.16699 -5.66699 1.5 -9s0.833008 -6.33301 1.5 -9c4 -40 28.333 -75.333 73 -106h-1c40 -26 78.667 -39 116 -39c10.667 0 44 7 100 21c6 0.666992 14 3.66699 24 9
c5.33301 2.66699 9.66602 4.66699 12.999 6c20 8 34 12 42 12c14.667 0 22 -8 22 -24c0 -5.33301 -1.83301 -11 -5.5 -17s-10.167 -13 -19.5 -21c-6 -4.66699 -12 -8.66699 -18 -12s-11.667 -6.66602 -17 -9.99902c-12.667 -6.66699 -28 -13.334 -46 -20.001l-62 -22
c-16.667 -4.66699 -35.667 -7 -57 -7c-37.333 0 -68.333 3.33301 -93 10c-2.66699 1.33301 -10.334 4.83301 -23.001 10.5l-51 22.5c-25.333 12.667 -49.166 29.5 -71.499 50.5s-39.833 44.833 -52.5 71.5c-22 44.667 -33 93.334 -33 146.001c0 14 1.5 29.333 4.5 46
s8.16699 34.667 15.5 54h-1c17.333 54 46 98.667 86 134c12 10 25.667 19.833 41 29.5s30.666 18.167 45.999 25.5c4 2 12.5 5.16699 25.5 9.5l42.5 13.5c35.333 9.33301 71.333 14 108 14c20.667 0 40.667 -1.33301 60 -4s38.666 -6.66699 57.999 -12c56 -16 84 -41 84 -75
z" />
    <glyph glyph-name="f" unicode="f" horiz-adv-x="645" 
d="M545 543l-1 -1zM542 538c0.666992 0.666992 1 1.33301 1 2v-1zM542 537.999c-1.33301 -1.33301 -2.33301 -2 -3 -2c0.666992 0.666992 1.16699 1 1.5 1s0.833008 0.333008 1.5 1zM535 560.999c0 -17.333 1.32715 -25.6621 3.99414 -24.9951
c-27.333 -20.667 -54.666 -29.334 -81.999 -26.001c-11.333 7.33301 -22 13.666 -32 18.999s-20.333 10 -31 14l2 -1c-22 4.66699 -45 6.66699 -69 6c-10 -0.666992 -21.5 -3.5 -34.5 -8.5s-27.167 -13.167 -42.5 -24.5c-26.667 -16.667 -52.667 -40 -78 -70v1
c-2 -2.66699 -3.33301 -5.66699 -4 -9v1c-0.666992 -3.33301 -1.16699 -7 -1.5 -11s-0.5 -8.66699 -0.5 -14v-11c0.666992 -5.33301 1 -13.166 1 -23.499v-33.5c0 -6.66699 5 -10 15 -10c1.33301 0 22.666 1 63.999 3h-1l47 3c10.667 0.666992 16.667 1 18 1
c15.333 0 34.666 -1 57.999 -3c14.667 -0.666992 22 -7.33398 22 -20.001c0 -7.33301 -4 -13.333 -12 -18s-15.333 -8.66699 -22 -12h1c-19.333 -10.667 -38.666 -17 -57.999 -19s-38.666 -3.33301 -57.999 -4c-14 0 -28.333 -1 -43 -3
c-14.667 -0.666992 -23.667 -3.33398 -27 -8.00098c-0.666992 -0.666992 -1 -5 -1 -13v-12.5c0 -5 0.333008 -9.83301 1 -14.5c0 -2.66699 0.166992 -4.83398 0.5 -6.50098s0.5 -2.83398 0.5 -3.50098v-167c0.666992 -9.33301 1 -17.166 1 -23.499v-11.5l1 -186
c0 -11.333 -3.16699 -23.666 -9.5 -36.999s-15.166 -27 -26.499 -41c-11.333 -13.333 -23.5 -25.666 -36.5 -36.999s-26.167 -20.333 -39.5 -27h1c-20.667 -10.667 -34 -16 -40 -16c-16.667 0 -25 7.33301 -25 22c0 10 5 20 15 30c4.66699 5.33301 8.83398 10.333 12.501 15
s6.16699 8.66699 7.5 12c6 14.667 9 33 9 55c0 5.33301 -0.166992 10 -0.5 14s-0.5 8 -0.5 12c0 3.33301 -1.33301 3.66602 -4 0.999023c2 21.333 3.33301 37.5 4 48.5s1 18.167 1 21.5v65c0.666992 15.333 1 28.666 1 39.999v28c0 2.66699 -0.166992 6.5 -0.5 11.5
s-0.5 10.833 -0.5 17.5c-0.666992 4 -1.16699 8 -1.5 12s-0.5 8 -0.5 12c0 2 0.666992 5 2 9l1 2c0.666992 9.33301 1 27.666 1 54.999v111l2 276c-0.666992 4.66699 -2 10.167 -4 16.5s-6.66699 10.833 -14 13.5c-9.33301 1.33301 -17.166 3.66602 -23.499 6.99902
s-11.5 7 -15.5 11v17c14.667 8.66699 31.334 13.334 50.001 14.001c3.33301 0.666992 7.33301 1 12 1s9.66699 0.333008 15 1c8 1.33301 14.667 2 20 2h10c38.667 0 60.334 -9.33301 65.001 -28c1.33301 -3.33301 2.16602 -9 2.49902 -17s0.833008 -17.667 1.5 -29
c0.666992 0 1.33398 0.166992 2.00098 0.5s1.66699 0.5 3 0.5s11.666 6.33301 30.999 19l29.5 19.5c8.33301 5.66699 13.833 9.16699 16.5 10.5c38.667 21.333 84.667 32 138 32c76.667 0 132.334 -17.333 167.001 -52z" />
    <glyph glyph-name="g" unicode="g" horiz-adv-x="816" 
d="M675 59c4 -23.333 -7.99902 -41.6582 -35.999 -54.9912c-19.333 -8 -40.666 -12 -63.999 -12c-38.667 0 -58 15.333 -58 46v8.5c0 3.66699 0.333008 6.5 1 8.5c0 2.66699 0.166992 4.66699 0.5 6s0.5 2.66602 0.5 3.99902c0 5.33301 -2.33301 8.66602 -7 9.99902l-35 -21
c-27.333 -14.667 -56.333 -27.667 -87 -39c-21.333 -8 -41.666 -13.833 -60.999 -17.5s-38.333 -5.5 -57 -5.5c-80.667 0 -148.667 26.667 -204 80c-54 52.667 -81 120 -81 202c0 83.333 35 155.666 105 216.999c28 24 60.667 45.5 98 64.5s78.333 35.5 123 49.5
c36 10.667 70.5 18.834 103.5 24.501s64.167 8.5 93.5 8.5c17.333 0 34.333 -1.83301 51 -5.5s32.667 -9.5 48 -17.5c41.333 -20 62 -49 62 -87c0 -32.667 -14.333 -60.334 -43 -83.001c-14 -10 -28.667 -17.667 -44 -23s-32 -8 -50 -8c-7.33301 7.33301 -11 15.333 -11 24
v7.5c0 3 0.333008 6.16699 1 9.5s1.16699 6.83301 1.5 10.5s0.5 6.16699 0.5 7.5c0 8.66699 -2.33301 15.667 -7 21h1c-20 20.667 -40.333 34.334 -61 41.001c-14 4.66699 -33.667 7 -59 7c-32 0 -63.333 -4.33301 -94 -13s-60 -21 -88 -37
c-34 -21.333 -59.667 -45.666 -77 -72.999s-26 -59 -26 -95c0 -55.333 22 -109.333 66 -162v1c46.667 -54 99 -81 157 -81c29.333 0 64.666 9.66699 105.999 29c40.667 17.333 63.667 34.333 69 51c1.33301 5.33301 2.33301 12.833 3 22.5s1 21.5 1 35.5
c0 1.33301 0.166992 2.83301 0.5 4.5s0.5 3.5 0.5 5.5c0.666992 3.33301 1 6.83301 1 10.5v9.5c0 22 -8 33 -24 33c-2 0 -16 -3.33301 -42 -10c-2 -0.666992 -4.16699 -1.33398 -6.5 -2.00098s-4.83301 -1.33398 -7.5 -2.00098s-5 -1.33398 -7 -2.00098
s-4.33301 -1.33398 -7 -2.00098c-12 -2.66699 -22.167 -4.83398 -30.5 -6.50098s-13.5 -2.5 -15.5 -2.5c-26.667 0 -40 9.33301 -40 28c0 4.66699 1.66699 10 5 16s7.66602 11.667 12.999 17s11 10.166 17 14.499s11.667 7.16602 17 8.49902
c15.333 3.33301 33.666 6.66602 54.999 9.99902l73 11h-1c2 0.666992 3.66699 1 5 1s3 0.333008 5 1c20.667 2.66699 37 4.66699 49 6s20 2 24 2c23.333 0 40.833 -4.33301 52.5 -13s17.5 -20 17.5 -34z" />
    <glyph glyph-name="h" unicode="h" horiz-adv-x="925" 
d="M774 343c0 -38.667 -2.99414 -68.332 -8.99414 -88.999c0 -1.33301 -0.666992 -3.33301 -2 -6l-13 -34.5l-23 -58.5c-4 -5.33301 -8.66699 -12 -14 -20l-19 -29h1c-17.333 -28 -36.666 -54.5 -57.999 -79.5s-46 -48.833 -74 -71.5h1
c-23.333 -20.667 -45.333 -30.334 -66 -29.001c-7.33301 4.66699 -11 11 -11 19c0 6.66699 3 15 9 25s14.667 21.667 26 35c36 43.333 63.5 87.5 82.5 132.5s28.5 89.5 28.5 133.5c0 23.333 -2 46.833 -6 70.5s-10.667 47.5 -20 71.5c-24 67.333 -59.333 101 -106 101
c-38.667 0 -91.334 -23.333 -158.001 -70c-32.667 -22.667 -58.834 -45.334 -78.501 -68.001s-31.5 -42.667 -35.5 -60c0 -63.333 0.333008 -95 1 -95c0.666992 -4 1 -11.167 1 -21.5s-0.666992 -22.833 -2 -37.5s-5 -26 -11 -34s-9.66699 -12.333 -11 -13h20
c0 -9.33301 0.333008 -17.833 1 -25.5s1.66699 -14.167 3 -19.5l5.5 -8.5l8.5 -13.5c1.33301 -2.66699 2 -10 2 -22c-4.66699 -4.66699 -13.834 -10.167 -27.501 -16.5s-30.834 -13.833 -51.501 -22.5l-47 -17.5c-12 -4.33301 -19.333 -6.5 -22 -6.5
c-10.667 0 -20.5 3.5 -29.5 10.5s-13.5 16.167 -13.5 27.5l6 246v32.5c0 11.667 0.166992 23.167 0.5 34.5s0.666016 21.833 0.999023 31.5s0.833008 17.167 1.5 22.5v79.5c0 31 -0.166992 62.667 -0.5 95s-0.5 63.833 -0.5 94.5v79l-2 22c-0.666992 0.666992 -1 2 -1 4
c0 0.666992 -0.333008 1.33398 -1 2.00098c-2 -1.33301 -4.33301 -2.66602 -7 -3.99902l-18 -9c-9.33301 -5.33301 -18 -9 -26 -11s-14.667 -3 -20 -3c-24 0 -36 8.33301 -36 25c0 15.333 23.333 34 70 56l49 22.5c19.333 9 41.666 20.167 66.999 33.5h-1
c28 14 46.333 21 55 21c24 0 36 -11.667 36 -35l-3 -369l5 -20c0 -1.33301 0.666992 -2 2 -2c2 0 19.667 13.333 53 40c22.667 17.333 44.167 32.5 64.5 45.5s39.166 24.167 56.499 33.5c55.333 28.667 111 43 167 43c35.333 0 66.833 -8.83301 94.5 -26.5
s50.167 -41.834 67.5 -72.501c12.667 -22.667 22.167 -48.5 28.5 -77.5s9.5 -59.5 9.5 -91.5z" />
    <glyph glyph-name="i" unicode="i" horiz-adv-x="451" 
d="M314 30c0 -15.333 -12.665 -24.999 -37.998 -28.999c-7.33301 -1.33301 -16.5 -2.33301 -27.5 -3s-23.5 -1.66699 -37.5 -3c-0.666992 0 -10.334 -1 -29.001 -3c-18 -2 -28 -3 -30 -3c-12.667 0 -22.834 2.16699 -30.501 6.5s-13.167 10.166 -16.5 17.499
c-2 7.33301 -3.5 14.166 -4.5 20.499s-1.5 11.5 -1.5 15.5v121v19c1.33301 5.33301 2 9 2 11v39v5c0 2.66699 -0.333008 6.66699 -1 12c-1.33301 11.333 -1.33301 21 0 29v11c0 4 0.333008 8.33301 1 13c0 1.33301 0.166992 3.16602 0.5 5.49902s0.5 4.16602 0.5 5.49902
c0.666992 6 1.16699 11 1.5 15s0.5 7 0.5 9v49l2 71c-1.33301 6.66699 -2.16602 14.334 -2.49902 23.001s-0.5 17.334 -0.5 26.001c0 30.667 -5.33301 48.334 -16 53.001l1 -1c-4 1.33301 -10.333 2.83301 -19 4.5s-20.667 3.16699 -36 4.5c-28.667 2.66699 -43 10 -43 22
c0 13.333 14.667 21.666 44 24.999c36.667 3.33301 66.167 5.83301 88.5 7.5s37.166 2.5 44.499 2.5c10.667 0 24 -3 40 -9c22 -6.66699 33 -17 33 -31v-211c-0.666992 -10 -1 -18.833 -1 -26.5v-18.5v-19c0 -1.33301 -0.166992 -8.5 -0.5 -21.5s-0.5 -28 -0.5 -45v-51
v-40.5c0.666992 -0.666992 1 -2.33398 1 -5.00098v1c1.33301 -3.33301 2.5 -6.66602 3.5 -9.99902s1.5 -7 1.5 -11v-40c0 -2.66699 0.5 -6 1.5 -10s2.16699 -9.33301 3.5 -16l-1 1c2.66699 -9.33301 5 -14.666 7 -15.999c2 0 4.33301 -0.166992 7 -0.5s5 -0.5 7 -0.5
c8.66699 -1.33301 19 -2.33301 31 -3c4.66699 -1.33301 8.16699 -3.33301 10.5 -6s3.5 -6.66699 3.5 -12z" />
    <glyph glyph-name="j" unicode="j" horiz-adv-x="416" 
d="M60 622c-1.33301 -0.666992 -3.33301 -1 -6 -1c-0.666992 0 -0.166992 0.166992 1.5 0.5l7.5 1.5c-0.666992 0 -1.16699 -0.166992 -1.5 -0.5s-0.833008 -0.5 -1.5 -0.5zM105 627c-7.33301 -1.33301 -14.668 -2.16699 -22.001 -2.5s-13.666 -0.833008 -18.999 -1.5
c2 0 5.66699 0.666992 11 2c2 0.666992 4.5 1 7.5 1h8.5c2 0 4 0.166992 6 0.5s4.66699 0.5 8 0.5zM188.998 618.999c-2.66699 1.33301 -5.00195 2.33398 -7.00195 3.00098l-6 2c8.66699 -1.33301 14.834 -2.33301 18.501 -3s1.83398 -1.33398 -5.49902 -2.00098z
M220.996 147l0.00292969 -9.49805c0 -5.66699 -0.333008 -13.834 -1 -24.501c0 -3.33301 -0.166992 -7.5 -0.5 -12.5s-0.5 -8.5 -0.5 -10.5v-13.5c0 -4.33301 -0.333008 -7.5 -1 -9.5c0.666992 -10 0.333984 -21.667 -0.999023 -35s-3.66602 -28.666 -6.99902 -45.999
c-0.666992 -1.33301 -1.33398 -2.83301 -2.00098 -4.5s-1.66699 -3.16699 -3 -4.5l-12.5 -22.5c-5 -9 -11.5 -18.167 -19.5 -27.5v1c-6 -7.33301 -12.333 -13.833 -19 -19.5s-13.334 -9.83398 -20.001 -12.501c-6 -3.33301 -13 -7 -21 -11s-15.333 -7.33301 -22 -10
c-2.66699 -0.666992 -5.33398 -2 -8.00098 -4c-15.333 -7.33301 -27.5 -12.833 -36.5 -16.5s-15.833 -5.5 -20.5 -5.5c-16.667 0 -25 6.33301 -25 19c0 10.667 6.33301 22 19 34c2.66699 1.33301 5.66699 3 9 5l10 6c11.333 12 21.166 22.833 29.499 32.5
s13.833 17.167 16.5 22.5c2.66699 6 4.66699 12.833 6 20.5s2 17.167 2 28.5l-2 35l-2 35v102v9c0 5.33301 -0.333008 13.666 -1 24.999v33c-0.666992 9.33301 -1.16699 18.833 -1.5 28.5s-0.833008 19.167 -1.5 28.5v10c0 6 -0.333008 14.333 -1 25
c-0.666992 11.333 -1 19.833 -1 25.5v9.5v99c-0.666992 6.66699 -1 15 -1 25v32c0 8.66699 -0.666992 15 -2 19c-2 4.66699 -8.33301 7 -19 7h-6c-2.66699 0 -5.66699 -0.333008 -9 -1c-3.33301 0 -6.33301 -0.166992 -9 -0.5s-4.33398 -0.5 -5.00098 -0.5
c-28.667 0 -43 8 -43 24c0 9.33301 5.66699 17 17 23c1.33301 0 15.333 3.33301 42 10c2.66699 0 4.66699 0.333008 6 1c0.666992 -0.666992 6.33398 -1.16699 17.001 -1.5s29.667 -0.5 57 -0.5h61c1.33301 0 2.16602 -0.166992 2.49902 -0.5s1.16602 -0.5 2.49902 -0.5
c10.667 -6 16.834 -16.333 18.501 -31s2.5 -37 2.5 -67c0 -16 1 -34.333 3 -55z" />
    <glyph glyph-name="k" unicode="k" horiz-adv-x="821" 
d="M724 6c0 -20.667 -27.3359 -31.0068 -82.0029 -31.0068c-35.333 0 -61.666 5.66699 -78.999 17c-23.333 17.333 -52.666 44.666 -87.999 81.999c-15.333 16 -32 34.333 -50 55l-59 68l-41 47.5l-44 50.5c0 -0.666992 -1.66699 -1 -5 -1s-8.33301 -1.16699 -15 -3.5
l-27 -9.5h1c-23.333 -9.33301 -35 -16 -35 -20v-87v-41c0 -10.667 -0.333008 -18 -1 -22c-1.33301 -15.333 -3.66602 -29.666 -6.99902 -42.999s-8 -25.333 -14 -36c-3.33301 -5.33301 -8.33301 -10 -15 -14s-15 -8 -25 -12l-20 -6l-20 -6
c-13.333 -4 -26.166 -7.16699 -38.499 -9.5s-23.166 -3.5 -32.499 -3.5c-18 0 -27 7.66699 -27 23c0 2 1.16699 4.5 3.5 7.5s6.16602 7.16699 11.499 12.5h-1l25 28c10.667 12.667 16 34.334 16 65.001v520c0 30 -20.667 48.333 -62 55l-9 10v19c18 7.33301 35 11 51 11
c15.333 0 31.333 -1.66699 48 -5h18.5c7 0 13.5 -0.333008 19.5 -1c22.667 -1.33301 38 -6 46 -14v1c16 -14.667 25.667 -37.667 29 -69v-69v-55v-38v-62v-37c0 -3.33301 0.166992 -6.66602 0.5 -9.99902s0.5 -6.66602 0.5 -9.99902
c-0.666992 -3.33301 -1 -7.66602 -1 -12.999v-12c1.33301 -6.66699 2.66602 -10.667 3.99902 -12c2.66699 0 7.16699 0.833008 13.5 2.5s14.166 4.16699 23.499 7.5c34.667 11.333 77 42 127 92c8.66699 8.66699 25.334 31 50.001 67c26.667 36.667 40.667 60.667 42 72
c-0.666992 -0.666992 -1.5 0.333008 -2.5 3s-2.16699 5 -3.5 7c-4.66699 8 -7 14 -7 18c0 3.33301 0.5 6 1.5 8s2.5 4.66699 4.5 8c8 2.66699 16 4.83398 24 6.50098s15.667 2.5 23 2.5c8.66699 0 18.5 -0.5 29.5 -1.5s22.5 -2.83301 34.5 -5.5c30.667 -4 49.667 -12 57 -24
c0.666992 -7.33301 -2 -17.666 -8 -30.999s-15.667 -28.666 -29 -45.999c-4.66699 -6 -11 -13.167 -19 -21.5s-17 -16.833 -27 -25.5v1l-14.5 -13l-12.5 -12l-30 -25l-16 -12c-4.66699 -2.66699 -9.5 -5.66699 -14.5 -9s-9.5 -6.66602 -13.5 -9.99902
c-24 -17.333 -36 -26.666 -36 -27.999c0 -4.66699 14 -21 42 -49l48 -50c12.667 -13.333 21.667 -23.333 27 -30c7.33301 -6.66699 16 -15.334 26 -26.001l32 -33l87 -93c2.66699 -2.66699 5.5 -5.33398 8.5 -8.00098s6.16699 -5.66699 9.5 -9l38 -35
c6 -7.33301 9 -13.333 9 -18z" />
    <glyph glyph-name="l" unicode="l" horiz-adv-x="739" 
d="M684 61c0 -8.66699 -7.66895 -17.167 -23.002 -25.5s-37.333 -15.833 -66 -22.5c-21.333 -5.33301 -39.333 -9.33301 -54 -12s-25.667 -4 -33 -4h-332c-21.333 0 -36.333 13 -45 39h1c-5.33301 13.333 -8 28.333 -8 45v307c0 2.66699 0.666992 7.5 2 14.5l3 15.5v9
c0 3.33301 -0.333008 6.66602 -1 9.99902c0 2 -0.166992 4 -0.5 6s-0.5 3.33301 -0.5 4v87h16c-3.33301 3.33301 -6.66602 10.333 -9.99902 21s-4.66602 25.667 -3.99902 45c0 11.333 0.166992 22 0.5 32s0.5 19 0.5 27c0 8.66699 -0.166992 16.167 -0.5 22.5
s-0.5 12.166 -0.5 17.499c-2 9.33301 -7 16 -15 20c-8 4.66699 -24.333 7.66699 -49 9c-26.667 0.666992 -48.334 8 -65.001 22v29h237c28 0 44.667 -18 50 -54l5 -633c0 -2.66699 2.16699 -5.66699 6.5 -9s12.166 -5.66602 23.499 -6.99902h13.5
c5 0 10.167 -0.333008 15.5 -1c23.333 -2.66699 47 -4.66699 71 -6s48.333 -2 73 -2c15.333 0 29.5 0.333008 42.5 1s24.5 1.66699 34.5 3c6.66699 0 21.334 3.33301 44.001 10c3.33301 0.666992 6.5 1.33398 9.5 2.00098s5.83301 1.33398 8.5 2.00098
c4 1.33301 8 2.16602 12 2.49902s7 0.5 9 0.5c3.33301 0 7.33301 -0.666992 12 -2s10.334 -4 17.001 -8v-17z" />
    <glyph glyph-name="m" unicode="m" horiz-adv-x="1395" 
d="M1290 2c-18 -8.66699 -36.6689 -12.9971 -56.002 -12.9971c-22.667 0 -44.834 2.66699 -66.501 8s-42.5 14 -62.5 26c0 1.33301 -0.166992 4.5 -0.5 9.5s-0.166016 9.83301 0.500977 14.5c1.33301 8 1.33301 14.333 0 19v-1
c-3.33301 11.333 -6.66602 21.166 -9.99902 29.499s-6.66602 16.166 -9.99902 23.499c-3.33301 4.66699 -6.5 9.83398 -9.5 15.501s-6.83301 12.167 -11.5 19.5c-7.33301 10.667 -15 22.5 -23 35.5l-27 42.5h-1c-4.66699 7.33301 -12.334 17.666 -23.001 30.999l-42 52
c-40 48 -62.667 72 -68 72c-10.667 0 -38 -56.667 -82 -170c-10.667 -28 -23.334 -57.833 -38.001 -89.5s-31.667 -65.834 -51 -102.501c-7.33301 -12 -21 -18 -41 -18c-14.667 0 -31.667 6 -51 18c-20 14 -30 28.667 -30 44c0 6 5.33301 17.333 16 34
c9.33301 16.667 14 25.667 14 27c0 17.333 -35.333 64.333 -106 141c-68 74.667 -104.667 112 -110 112c-7.33301 0 -19.666 -17.667 -36.999 -53v1l-21 -44l-9 -21l-17.5 -32.5c-5.66699 -10.333 -11.167 -21.166 -16.5 -32.499c-11.333 -20 -22.333 -41.667 -33 -65
c-15.333 -27.333 -30.5 -51.833 -45.5 -73.5s-30.167 -40.167 -45.5 -55.5c-8.66699 -8.66699 -26 -13 -52 -13c-18 0 -31 3 -39 9c-3.33301 2 -6.16602 4.16699 -8.49902 6.5s-5.16602 4.5 -8.49902 6.5c-5.33301 2.66699 -11 7 -17 13
c-0.666992 0.666992 -1.33398 1.16699 -2.00098 1.5s-1.33398 0.833008 -2.00098 1.5l1 -1c-9.33301 7.33301 -19.333 14.666 -30 21.999l-34 23c7.33301 11.333 17.333 17 30 17l5 -1h8c2.66699 0 6.33398 0.333008 11.001 1h21c3.33301 0 6 2 8 6
c22 39.333 55.667 104.666 101 195.999v-1c104 212.667 181 319 231 319c6.66699 0 14.667 -1.33301 24 -4s19.666 -7 30.999 -13c25.333 -13.333 38 -26.333 38 -39c0 -4 -7.66699 -19.333 -23 -46h1c-13.333 -21.333 -20 -33 -20 -35c0 -10 34 -49.333 102 -118l69 -70
c16.667 -16.667 29.334 -28.667 38.001 -36c6 6 11.667 14 17 24l8 19.5l8 19.5l41.5 91.5l40.5 92.5c46 98.667 79.667 148 101 148c7.33301 0 15.833 -3 25.5 -9s21.167 -14.333 34.5 -25c28.667 -22.667 43 -42 43 -58c0 -3.33301 -2 -8.66602 -6 -15.999
s-9.66699 -16.333 -17 -27c-4.66699 -6 -8.5 -11.667 -11.5 -17s-6.16699 -10 -9.5 -14c-2.66699 -4 -4.5 -6.66699 -5.5 -8s-2.16699 -3 -3.5 -5l182.5 -220.5l182.5 -220.5v-24z" />
    <glyph glyph-name="n" unicode="n" horiz-adv-x="965" 
d="M837 29c0 -11.333 -9.33887 -20.333 -28.0059 -27c-12 -3.33301 -23.333 -5 -34 -5h-42c-12.667 0 -26 3 -40 9c-18 8 -28.333 20.333 -31 37c0.666992 6 0.666992 12.833 0 20.5s-2.33398 16.5 -5.00098 26.5c-2.66699 3.33301 -6.66699 6.66602 -12 9.99902
s-11.666 6.33301 -18.999 9l1 -1c-4.66699 1.33301 -9 2.5 -13 3.5s-8 2.16699 -12 3.5c-3.33301 1.33301 -6.66602 2.33301 -9.99902 3s-8.66602 2 -15.999 4h1c-1.33301 0.666992 -3 1.16699 -5 1.5s-3.66699 0.833008 -5 1.5l-38.5 16l-50.5 21
c-6.66699 3.33301 -13.167 6.33301 -19.5 9s-12.166 5.66699 -17.499 9h1l-37.5 18l-28.5 14c-19.333 9.33301 -38.166 19.5 -56.499 30.5l-55.5 33.5c-6.66699 6.66699 -15 13.834 -25 21.501l-32 23.5c-2.66699 0 -4 -5 -4 -15v-214c0 -63.333 -48.667 -95 -146 -95
c-18.667 0 -32.334 6.66699 -41.001 20v135l20 282c0 1.33301 0.166992 3.83301 0.5 7.5s0.5 7.5 0.5 11.5c0.666992 5.33301 1 10 1 14v11c0 46 -18 74 -54 84v29c70.667 24 115 36 133 36c11.333 0 21 -2 29 -6s15.333 -9.66699 22 -17l56 -77l85 -117
c16 -20 38.5 -42.167 67.5 -66.5s64.167 -50.5 105.5 -78.5c80.667 -52.667 134.334 -80 161.001 -82c9.33301 -0.666992 14 10.333 14 33c0 37.333 -2.66699 85.333 -8 144s-12.666 127.334 -21.999 206.001c-1.33301 4 -12 20.333 -32 49c14.667 12.667 32 19 52 19
c26.667 0 50 -3.33301 70 -10c21.333 -7.33301 34.333 -15 39 -23c28.667 -68.667 45.334 -168.334 50.001 -299.001v-34c0 -37.333 1 -86 3 -146c1.33301 -24.667 4.66602 -43.334 9.99902 -56.001s9.66602 -21.667 12.999 -27v1
c0.666992 -1.33301 1.33398 -2.5 2.00098 -3.5s1.33398 -2.16699 2.00098 -3.5s1 -2.66602 1 -3.99902z" />
    <glyph glyph-name="o" unicode="o" horiz-adv-x="835" 
d="M561 257c0 29.333 -0.334961 44.999 -1.00195 46.999c-9.33301 30 -18.5 57.167 -27.5 81.5s-18.167 44.833 -27.5 61.5c-29.333 51.333 -67.666 88 -114.999 110c-24 11.333 -46 17 -66 17c-19.333 0 -37.833 -3 -55.5 -9s-34.5 -14.667 -50.5 -26
c-17.333 -13.333 -32.5 -29.666 -45.5 -48.999s-22.833 -40.666 -29.5 -63.999l-5 -9v1l-7 -18v-12c0 -4.66699 -0.333008 -9.33398 -1 -14.001c0 -1.33301 -0.166992 -2.83301 -0.5 -4.5s-0.5 -3.16699 -0.5 -4.5c-0.666992 -2.66699 -1.16699 -5 -1.5 -7s-0.5 -4 -0.5 -6
c-0.666992 -2.66699 -1.16699 -5 -1.5 -7s-0.5 -4.33301 -0.5 -7c0 -16.667 2.33301 -33 7 -49c0.666992 -1.33301 1.83398 -4.66602 3.50098 -9.99902s4.16699 -11.666 7.5 -18.999c6 -29.333 17 -56.333 33 -81s35.667 -47 59 -67c45.333 -38.667 92.333 -58 141 -58
c69.333 0 124.333 36.333 165 109c5.33301 9.33301 9.5 17.666 12.5 24.999s5.16699 14 6.5 20c0.666992 3.33301 1 19.666 1 48.999zM704.998 307.999c0 -54 -8.66797 -95.335 -26.001 -124.002c-77.333 -131.333 -195 -197 -353 -197c-76 0 -139.5 16 -190.5 48
s-89.833 79.333 -116.5 142c-2 4.66699 -4.83301 11.834 -8.5 21.501l-13.5 34.5c-5.33301 24.667 -8 47.334 -8 68.001c0 17.333 1.5 35.333 4.5 54s7.33301 37 13 55s12.334 35.167 20.001 51.5s16.167 30.833 25.5 43.5c36.667 48 85.667 83.333 147 106
c22 6.66699 49.667 13.667 83 21c40.667 7.33301 72.667 11 96 11c90.667 0 167.667 -34 231 -102c64 -68 96 -145.667 96 -233z" />
    <glyph glyph-name="p" unicode="p" horiz-adv-x="957" 
d="M819 349l-7.5 -42.498c-1.66699 -9 -3.16699 -9.5 -4.5 -1.5c2.66699 7.33301 5 14.666 7 21.999s3.66699 14.666 5 21.999zM806 389.002l0.000976562 -55.9941c0 -13.333 0.333008 -22.666 1 -27.999c-22 -62.667 -71.667 -123.667 -149 -183
c-89.333 -70 -170 -105 -242 -105c-6 0 -14.333 1.5 -25 4.5s-19.667 6.16699 -27 9.5c-26 11.333 -39 26 -39 44c0 16.667 12 32.334 36 47.001v-1c18.667 11.333 32.334 17 41.001 17c2.66699 0 15.667 -4.33301 39 -13c9.33301 -3.33301 16.833 -5.83301 22.5 -7.5
s9.16699 -2.5 10.5 -2.5c3.33301 0 7.33301 0.833008 12 2.5l18 6.5c14 6.66699 25.333 13.667 34 21c40 34.667 73.333 76.334 100 125.001c12 23.333 21.5 46.166 28.5 68.499s10.5 42.166 10.5 59.499c0 26.667 -7.33301 51.334 -22 74.001
c-17.333 25.333 -41 42.333 -71 51c-33.333 9.33301 -51.333 14 -54 14c-13.333 0 -32.5 -5.5 -57.5 -16.5s-53.5 -25.5 -85.5 -43.5c-29.333 -17.333 -53.333 -33.333 -72 -48s-29 -26 -31 -34c-2 -14 -3 -32 -3 -54c0 -2 1 -13.333 3 -34c2 -20 3 -31.333 3 -34v-250
c0.666992 -2 1 -4.33301 1 -7v-6v-211c0 -32 -22.667 -61.667 -68 -89c-35.333 -20 -64.333 -30 -87 -30c-24 0 -36 8.33301 -36 25c0 5.33301 3.66699 12.333 11 21c1.33301 1.33301 3 3.16602 5 5.49902s3.66699 4.16602 5 5.49902c4 3.33301 6.66699 6 8 8
c2.66699 3.33301 4 9.66602 4 18.999v203c0 105.333 -0.333008 190 -1 254s-2 108 -4 132c-0.666992 7.33301 -1.16699 17.666 -1.5 30.999s-0.5 29.666 -0.5 48.999l-1 75c0 2 -7 5.66699 -21 11c-10.667 -2 -21.5 -3.83301 -32.5 -5.5s-21.833 -3.5 -32.5 -5.5
c-46 8 -69 21 -69 39c0 14.667 9 24.667 27 30c4.66699 0 9.66699 0.5 15 1.5s10.666 2.16699 15.999 3.5l16.5 4.5l20.5 5.5l18 4.5l21 5.5c9.33301 2.66699 18.833 5.16699 28.5 7.5s19.167 5.16602 28.5 8.49902c13.333 3.33301 25.666 6 36.999 8s22.666 3 33.999 3
c36.667 0 55 -19.333 55 -58c0 -2 -0.166992 -5 -0.5 -9s-0.5 -7.66699 -0.5 -11c-0.666992 -4 -1 -7.33301 -1 -10v-7c0 -15.333 5.33301 -23 16 -23c2 0 6.66699 2.16699 14 6.5s16.666 10.166 27.999 17.499c6 4 12.667 8.16699 20 12.5s14 8.83301 20 13.5
c9.33301 5.33301 19 10.5 29 15.5l30 15.5h-1c13.333 8 25.5 14.167 36.5 18.5s21.167 7.16602 30.5 8.49902c18 4.66699 36.333 8 55 10s37.334 3 56.001 3c13.333 0 25.833 -0.833008 37.5 -2.5s22.834 -4.5 33.501 -8.5c23.333 -9.33301 53 -36 89 -80
c12 -14 23.667 -39.667 35 -77c10 -33.333 15 -58.333 15 -75h-20z" />
    <glyph glyph-name="q" unicode="q" horiz-adv-x="826" 
d="M-15 360c0 7.33301 1.33301 17.666 4 30.999s6.66699 28 12 44c5.33301 16.667 11.166 32 17.499 46s12.166 24 17.499 30c36.667 45.333 66 72.333 88 81c19.333 7.33301 43.333 11 72 11c38.667 0 75.667 -4.33301 111 -13
c8.66699 -1.33301 18.5 -4.16602 29.5 -8.49902s23.833 -10.166 38.5 -17.499l29.5 -15.5c9.66699 -5 19.834 -9.83301 30.501 -14.5c15.333 -7.33301 28.166 -13 38.499 -17s17.5 -6 21.5 -6c6.66699 -1.33301 10 3 10 13c0 6.66699 -1.5 14 -4.5 22
s-8.16699 16.667 -15.5 26c-4.66699 6 -8 11.5 -10 16.5s-3.66699 9.83301 -5 14.5c2 2.66699 5.66699 5.5 11 8.5s11.166 5.66699 17.499 8s13 4.16602 20 5.49902s13.5 2 19.5 2c39.333 -3.33301 70.333 -11.333 93 -24c3.33301 -3.33301 6.33301 -9.33301 9 -18
s5.66699 -20 9 -34c2.66699 -12 4.83398 -22.667 6.50098 -32s2.83398 -16.333 3.50098 -21c1.33301 -24.667 2.5 -45.334 3.5 -62.001s1.83301 -29.667 2.5 -39c1.33301 -9.33301 2.16602 -17.833 2.49902 -25.5s0.166016 -13.834 -0.500977 -18.501
c1.33301 -98.667 2.33301 -196.334 3 -293.001s1.66699 -194.334 3 -293.001c2 -4 4.16699 -7.83301 6.5 -11.5l6.5 -10.5c0.666992 -0.666992 1.33398 -1.5 2.00098 -2.5s1.66699 -2.16699 3 -3.5c3.33301 -2.66699 5.5 -4.66699 6.5 -6l5.5 -7c8 -8 12 -15 12 -21
c0 -16.667 -12.333 -25 -37 -25c-24 0 -55.667 9.33301 -95 28c-51.333 25.333 -77 54 -77 86v211v7c0 3.33301 0.333008 6 1 8v9l4 226v86c0 22.667 -1.33301 40.334 -4 53.001c-2 17.333 -32.333 40.333 -91 69c-60 29.333 -105 44 -135 44c-4 0 -22 -4.33301 -54 -13
c-28.667 -7.33301 -52 -24.666 -70 -51.999c-15.333 -22.667 -23 -47.334 -23 -74.001c0 -19.333 2.83301 -39 8.5 -59s13.834 -41 24.501 -63v1c24.667 -46 57 -86.667 97 -122c4 -3.33301 8.83301 -6.66602 14.5 -9.99902s11.834 -6.66602 18.501 -9.99902
c7.33301 -3.33301 13.5 -5.83301 18.5 -7.5s9.16699 -2.5 12.5 -2.5c1.33301 0 12.333 3.66699 33 11c23.333 8.66699 36.333 13 39 13c9.33301 0 23 -6 41 -18v1c23.333 -13.333 35 -29 35 -47c0 -17.333 -12.667 -31.666 -38 -42.999c-18.667 -9.33301 -36 -14 -52 -14
c-73.333 0 -152.333 33 -237 99c-82 63.333 -132.333 130.333 -151 201c2 -5.33301 3.66699 -2 5 10s2 29.333 2 52h-20zM-2 298c-1.33301 2 -3 9.33301 -5 22l2 -11.5c0.666992 -3.66699 1.66699 -7.16699 3 -10.5z" />
    <glyph glyph-name="r" unicode="r" horiz-adv-x="724" 
d="M657 47c-2 -4 -9.6709 -9 -23.0039 -15s-28 -11.667 -44 -17c-17.333 -6.66699 -33.333 -11.667 -48 -15s-25.667 -5 -33 -5c-14 0 -34.333 9.16699 -61 27.5s-58 44.5 -94 78.5c-34 32 -60.5 58.5 -79.5 79.5s-28.5 35.167 -28.5 42.5c0 10.667 21.333 30 64 58h-1
l68.5 47.5c18.333 13 32.166 23.833 41.499 32.5h-1c19.333 16.667 33.333 31.834 42 45.501s13.334 26.167 14.001 37.5c0.666992 19.333 -5.33301 39 -18 59c-7.33301 11.333 -15.166 19.833 -23.499 25.5s-18.166 8.16699 -29.499 7.5
c-43.333 -1.33301 -91.666 -28.666 -144.999 -81.999c-52 -52 -78 -92.667 -78 -122v-204l2 -7c1.33301 -6.66699 2 -11.334 2 -14.001v-74c0 -27.333 -33.667 -41 -101 -41c-36 0 -60.333 6 -73 18c0 6.66699 3.33301 16 10 28c3.33301 4.66699 5.5 8 6.5 10
s1.83301 3.33301 2.5 4h-1c4.66699 17.333 8 36.666 10 57.999c0 2 0.166992 4 0.5 6s0.5 4 0.5 6c0.666992 9.33301 1 16.833 1 22.5s0.666992 9.83398 2 12.501c0 26.667 0.166992 56.834 0.5 90.501s0.5 68 0.5 103s0.166992 69.333 0.5 103s0.5 63.834 0.5 90.501
c-2 14.667 -9.66699 24.667 -23 30c-24.667 6.66699 -40.334 14.667 -47.001 24c8 20.667 30.333 31 67 31c4 0 12 -1 24 -3l20 -2h3c1.33301 0 2.83301 -0.333008 4.5 -1s3.83398 -1.33398 6.50098 -2.00098c0.666992 -0.666992 2.66699 -1 6 -1
c20 0 33.333 -2.66699 40 -8c2 -3.33301 4.16699 -6.5 6.5 -9.5s4.83301 -6.5 7.5 -10.5c1.33301 -1.33301 3.33301 -4 6 -8s4.66699 -6.66699 6 -8c1.33301 -7.33301 2 -12 2 -14v-9l-1 -6l1 -1c0 -0.666992 0.166992 -1.33398 0.5 -2.00098s0.5 -1.33398 0.5 -2.00098
c0.666992 -2.66699 1.16699 -7 1.5 -13s1.16602 -12.333 2.49902 -19v1c4 -20.667 5.33301 -36 4 -46c0.666992 -1.33301 1.5 -2.5 2.5 -3.5l2.5 -2.5c4 8.66699 14.667 22 32 40c31.333 33.333 64.333 60.333 99 81c24.667 15.333 49.834 26.5 75.501 33.5
s51.5 10.5 77.5 10.5c18 0 34.333 -4.16699 49 -12.5s27.667 -19.833 39 -34.5c18.667 -26.667 28 -56.667 28 -90c0 -38.667 -17.667 -77.667 -53 -117h1c-10.667 -11.333 -24 -23.666 -40 -36.999s-34.667 -28 -56 -44l-20.5 -15c-5.66699 -4 -10.5 -7.66699 -14.5 -11
l-11 -8c0 -6 26.333 -33 79 -81c24 -22.667 45.333 -42 64 -58s34.667 -28.667 48 -38l-1 1c4.66699 -2.66699 14.334 -4.33398 29.001 -5.00098c18.667 0 33 -5.33301 43 -16z" />
    <glyph glyph-name="s" unicode="s" horiz-adv-x="644" 
d="M565 253c0 -26 -27.666 -66.3379 -82.999 -121.005c-8.66699 -8.66699 -19.667 -18.167 -33 -28.5l-47 -35.5l-47 -32c-13.333 -8.66699 -25 -15.334 -35 -20.001l1 1c-10 -6 -23 -12 -39 -18c-32.667 -6.66699 -67.334 -10 -104.001 -10c-8.66699 0 -27 3.66699 -55 11
c-2.66699 0.666992 -7.33398 2.33398 -14.001 5.00098s-15.667 6.66699 -27 12c-63.333 28.667 -95 50 -95 64c0 6.66699 8.66699 23.334 26 50.001v-1c18.667 28.667 33.667 43 45 43c5.33301 0 13.666 -4.66699 24.999 -14c5.33301 -3.33301 10 -6.66602 14 -9.99902
s8 -6 12 -8h1c26.667 -13.333 52 -23.833 76 -31.5s46.333 -12.167 67 -13.5c1.33301 0 4.5 -0.333008 9.5 -1s9.16699 -1.33398 12.5 -2.00098s6.33301 -1 9 -1c24.667 0 49.834 6.16699 75.501 18.5s46.5 27.833 62.5 46.5c5.33301 6 8 17.333 8 34
c0 27.333 -15 49 -45 65c-11.333 6 -24.833 11.333 -40.5 16s-33.167 8.33398 -52.5 11.001l-70 9c-13.333 2 -29.833 4.33301 -49.5 7s-42.167 6.33398 -67.5 11.001c-23.333 4 -45 12.333 -65 25c-27.333 19.333 -41 41.666 -41 66.999c0 16.667 12.333 44.667 37 84
c24.667 26.667 50.334 49.334 77.001 68.001s52.667 33.667 78 45c46.667 18.667 99 28 157 28c82 0 134.667 -21.667 158 -65c6.66699 -11.333 10 -20.333 10 -27c0 -7.33301 -2.33301 -16.166 -7 -26.499s-11 -22.166 -19 -35.499c-22 -32 -42.333 -48 -61 -48
c-4 0 -9.16699 2.83301 -15.5 8.5s-9.5 10.167 -9.5 13.5s0.833008 6.33301 2.5 9s3.83398 5.66699 6.50098 9c3.33301 3.33301 6.33301 7.83301 9 13.5s4.66699 11.5 6 17.5c0 24.667 -30 38.667 -90 42c-8 1.33301 -22.333 2.33301 -43 3
c-10 0.666992 -17.833 1.16699 -23.5 1.5s-8.83398 0.5 -9.50098 0.5c-11.333 0 -23.166 -1 -35.499 -3s-25.5 -5.66699 -39.5 -11c-18 -6 -38.333 -19.667 -61 -41c-5.33301 -5.33301 -10.666 -13.833 -15.999 -25.5s-8 -20.834 -8 -27.501c0 -24.667 29.667 -37 89 -37h75
c4 0 10.667 -0.333008 20 -1s20.333 -1.66699 33 -3c7.33301 -0.666992 15.5 -1.16699 24.5 -1.5s17.167 -1.16602 24.5 -2.49902c1.33301 0 2.16602 -0.166992 2.49902 -0.5s1.16602 -0.5 2.49902 -0.5c12 -1.33301 22.5 -2.83301 31.5 -4.5s17.167 -4.16699 24.5 -7.5h-1
c91.333 -34 137 -75.333 137 -124z" />
    <glyph glyph-name="t" unicode="t" horiz-adv-x="755" 
d="M668 598c0 -11.333 -6.33398 -20.9922 -19.001 -28.9922c-6.66699 -4.66699 -12.334 -8.33398 -17.001 -11.001s-9 -4.33398 -13 -5.00098c-13.333 -2.66699 -29 -4.83398 -47 -6.50098s-36 -2.83398 -54 -3.50098c-3.33301 -0.666992 -7 -1 -11 -1s-8 -0.333008 -12 -1
s-8 -1 -12 -1h-8h-61c-6 -1.33301 -12.333 -3 -19 -5s-13.667 -3.66699 -21 -5l-4 -2c-1.33301 -0.666992 -2.66602 -1.66699 -3.99902 -3c-2 -2 -3 -15 -3 -39v-363c0 -0.666992 3.66699 -2.33398 11 -5.00098h2c7.33301 -2 14.5 -5 21.5 -9s10.5 -10 10.5 -18
c0 -4 -2.66699 -8.83301 -8 -14.5s-12.666 -12.834 -21.999 -21.501c-44.667 -36.667 -83.334 -55 -116.001 -55c-17.333 0 -27 6.66699 -29 20c-3.33301 22.667 -6.16602 44 -8.49902 64s-3.83301 37.333 -4.5 52c-1.33301 18 -2.16602 35.833 -2.49902 53.5
s-0.5 33.167 -0.5 46.5l10 219c0 2.66699 -0.166992 6.33398 -0.5 11.001l-1 13.5c-0.333008 4.33301 -0.666016 7.66602 -0.999023 9.99902s-0.833008 2.16602 -1.5 -0.500977c0 9.33301 -1 18.666 -3 27.999c-1.33301 5.33301 -7 9 -17 11
c-2.66699 0.666992 -13.667 1 -33 1c-24.667 0 -63.334 -4 -116.001 -12c-0.666992 -0.666992 -1.33398 -1 -2.00098 -1h-2c-8.66699 -3.33301 -16.667 -5 -24 -5c-19.333 0 -29 6.66699 -29 20c0 5.33301 3.33301 11 10 17s14.334 11.667 23.001 17
c4.66699 3.33301 10.167 6.33301 16.5 9s12.5 5 18.5 7c17.333 6 34.5 11.5 51.5 16.5s30.167 8.16699 39.5 9.5c3.33301 0.666992 6.83301 1.16699 10.5 1.5s7.16699 0.833008 10.5 1.5c20.667 2 46.667 5 78 9l321 -2l34.5 3.5c10.333 1 18.166 1.5 23.499 1.5
c22.667 0 34 -8 34 -24z" />
    <glyph glyph-name="u" unicode="u" horiz-adv-x="865" 
d="M572 41c0.666992 -0.666992 1.33301 -0.666992 2 0h-2zM781.999 37c-3.33301 -4 -7.49512 -7.66797 -12.4951 -11.001s-9.5 -5.66602 -13.5 -6.99902c-36 -11.333 -65.5 -20.166 -88.5 -26.499s-37.833 -9.5 -44.5 -9.5c-28 0 -45.667 19.333 -53 58
c-2 -0.666992 -4.33301 -1 -7 -1c-1.33301 0 -2.5 -0.166992 -3.5 -0.5s-1.83301 -0.5 -2.5 -0.5c-1.33301 0 -5 -1 -11 -3l-5 -2.5c-2 -1 -4 -1.83301 -6 -2.5l2 1l-22 -8.5c-6 -2.33301 -11 -3.83301 -15 -4.5c-36 -8 -68.167 -14.333 -96.5 -19s-51.166 -7 -68.499 -7
c-2.66699 0 -5.66699 -0.333008 -9 -1s-6 -1.16699 -8 -1.5s-4.66699 -0.5 -8 -0.5c-54.667 0 -105.667 11.333 -153 34c-24 12 -46.333 27 -67 45s-37 36.667 -49 56c-32.667 55.333 -49 109.666 -49 162.999c0 37.333 8.66699 74 26 110c6 14 15.167 30.833 27.5 50.5
s26.5 40.167 42.5 61.5c0.666992 4.66699 2 9 4 13v3l-24 -4c-11.333 -2 -18 3.33301 -20 16l6 17c2.66699 2.66699 7.83398 5.83398 15.501 9.50098s16.5 7.5 26.5 11.5c14 4.66699 29.667 9.5 47 14.5s36.666 10.167 57.999 15.5c38.667 8 61.667 12 69 12
c23.333 0 35 -7.66699 35 -23c0 -11.333 -5.66699 -20.333 -17 -27c-46.667 -26 -78.334 -64.667 -95.001 -116c-10 -33.333 -17.833 -62.666 -23.5 -87.999s-8.5 -46.666 -8.5 -63.999c0 -68.667 17.667 -123.334 53 -164.001c37.333 -43.333 92 -65 164 -65
c31.333 0 66.666 4 105.999 12c50.667 9.33301 77.334 20.666 80.001 33.999c0.666992 3.33301 1.16699 8 1.5 14s0.166016 12.667 -0.500977 20s0.666016 13.5 3.99902 18.5s6.66602 8.16699 9.99902 9.5h-16c0 1.33301 -0.333008 7.33301 -1 18l-3 48l-3 50
c-0.666992 11.333 -1 17.666 -1 18.999l-2 66c-0.666992 2 -1 4.33301 -1 7c-0.666992 2 -1 4.66699 -1 8s-0.333008 7 -1 11c-0.666992 5.33301 -1 10.833 -1 16.5s-0.333008 11.167 -1 16.5s-1.16699 10.666 -1.5 15.999s-0.5 11 -0.5 17c-1.33301 14 -3 26.167 -5 36.5
s-4.66699 19.166 -8 26.499c-2 4 -8.33301 6 -19 6c-0.666992 -0.666992 -2.33398 -1.16699 -5.00098 -1.5s-5.33398 -0.833008 -8.00098 -1.5c-3.33301 -0.666992 -6.33301 -1.16699 -9 -1.5s-5 -0.5 -7 -0.5c-22.667 0 -34 7.66699 -34 23c0 5.33301 3.33301 11.333 10 18
s12.667 11.334 18 14.001c10 2.66699 21.667 5.33398 35 8.00098s29.333 5.66699 48 9c16 2.66699 28.833 4.66699 38.5 6s15.834 2 18.501 2c32.667 0 51.334 -19.333 56.001 -58l16.5 -157c5 -49.333 9.16699 -96.333 12.5 -141
c1.33301 -15.333 3.16602 -35.333 5.49902 -60s5.16602 -53 8.49902 -85c0.666992 -3.33301 1.5 -8 2.5 -14s2.5 -12.667 4.5 -20l-1 1c0.666992 -1.33301 1 -2.5 1 -3.5s0.333008 -2.16699 1 -3.5v1c3.33301 -7.33301 10 -11.333 20 -12
c2.66699 -0.666992 5.16699 -1 7.5 -1s4.83301 -0.333008 7.5 -1c5.33301 -1.33301 12.333 -2 21 -2v-23z" />
    <glyph glyph-name="v" unicode="v" horiz-adv-x="831" 
d="M708 575c0 -34 -4.1709 -69.3398 -12.5039 -106.007s-20.833 -75.667 -37.5 -117c-10.667 -25.333 -22.834 -50.833 -36.501 -76.5s-28.167 -50.167 -43.5 -73.5c-9.33301 -15.333 -21.833 -32.666 -37.5 -51.999s-33.167 -39.666 -52.5 -60.999
c-30 -32 -56.333 -56.833 -79 -74.5s-40.667 -26.5 -54 -26.5c-16 0 -38 18.333 -66 55c-13.333 17.333 -25.5 35.5 -36.5 54.5s-21.167 38.833 -30.5 59.5c-3.33301 6.66699 -8.83301 18.667 -16.5 36l-29.5 69l-3.5 9l-3.5 9c-1.33301 2.66699 -3 6.83398 -5 12.501
s-4.66699 12.5 -8 20.5l-10 30h1c-4.66699 13.333 -10.834 29.333 -18.501 48l-27.5 67c-7.33301 13.333 -13.166 24.333 -17.499 33s-7.83301 14.334 -10.5 17.001c-11.333 14 -24.666 21.333 -39.999 22c-3.33301 -1.33301 -5.66602 -2.16602 -6.99902 -2.49902
s-2.66602 -0.5 -3.99902 -0.5c-20.667 0 -31 8.66699 -31 26c0 13.333 21.333 29.666 64 48.999c18 7.33301 33 12.833 45 16.5s20.333 5.5 25 5.5c23.333 0 47 -20 71 -60c12 -20 23.333 -40.167 34 -60.5s20.667 -41.166 30 -62.499l16 -42.5l24 -64.5l6.5 -17.5
c2.33301 -6.33301 5.16602 -13.166 8.49902 -20.499c4.66699 -12 9.33398 -24.833 14.001 -38.5s10.334 -28.5 17.001 -44.5c24.667 -61.333 39 -90.666 43 -87.999c6 3.33301 12 8 18 14c14 16.667 26.667 34.667 38 54l12 22c4 7.33301 8.33301 14.666 13 21.999
c2.66699 4 7.83398 14 15.501 30l28.5 60c3.33301 7.33301 7.33301 16.833 12 28.5l15 36.5c2.66699 7.33301 5.66699 14.833 9 22.5s6.66602 15.834 9.99902 24.501c13.333 31.333 20 54 20 68c0 10 -5.66699 16 -17 18c-22 4 -33 13.333 -33 28c0 15.333 23 32 69 50
c38.667 14 63.334 21 74.001 21c23.333 0 35 -16.333 35 -49z" />
    <glyph glyph-name="w" unicode="w" horiz-adv-x="1374" 
d="M1207 483c-4 -5.33301 -8.99707 -11.5039 -14.9971 -18.5039l-20 -24.5l-235 -235c-5.33301 -6.66699 -8 -13.667 -8 -21c0 -0.666992 0.5 -3.16699 1.5 -7.5s1.5 -7.5 1.5 -9.5l3 -7v1c1.33301 -2 2.66602 -4.66699 3.99902 -8l5 -13
c9.33301 -24.667 16.166 -44 20.499 -58s6.5 -23.667 6.5 -29v-4c0 -5.33301 -0.166992 -9.66602 -0.5 -12.999s-1.16602 -6.16602 -2.49902 -8.49902s-3.33301 -4.5 -6 -6.5s-6.66699 -4.66699 -12 -8c-10 -6 -26.667 -11.333 -50 -16
c-7.33301 -1.33301 -13.333 -2.5 -18 -3.5s-9.33398 -1.5 -14.001 -1.5c-20.667 0 -43.334 27.333 -68.001 82c-1.33301 3.33301 -2.83301 6.83301 -4.5 10.5s-3.16699 7.5 -4.5 11.5c-6.66699 13.333 -14.167 29.5 -22.5 48.5l-28.5 64.5c-6 13.333 -11.667 27 -17 41
l-16 44c-1.33301 4 -3 8 -5 12s-3.66699 8.33301 -5 13v-1c-18 50.667 -29 75.667 -33 75c-4.66699 0 -12.334 -5 -23.001 -15l-10.5 -10.5c-5 -5 -11.167 -12.167 -18.5 -21.5l-158 -176v1c-2 -2 -3 -7 -3 -15c0 -11.333 4.66699 -23.666 14 -36.999v1
c8.66699 -13.333 17.667 -30.333 27 -51c10 -21.333 15 -34.666 15 -39.999c0 -20 -17.667 -34.667 -53 -44h1c-16 -4 -32 -6 -48 -6h-27c-6 0.666992 -11.833 2.83398 -17.5 6.50098s-11.167 8.16699 -16.5 13.5c-8 9.33301 -17.333 23.166 -28 41.499
s-22.334 40.5 -35.001 66.5v-1l-29 55l-39 77l-27 56l-33 69c-10.667 20 -21.5 41.833 -32.5 65.5l-36.5 75.5c-2 4 -4.83301 7.5 -8.5 10.5s-7.5 5.5 -11.5 7.5c-5.33301 0 -10.833 0.166992 -16.5 0.5s-11.834 0.833008 -18.501 1.5h-8
c-26.667 0.666992 -40 8.33398 -40 23.001c0 16 29.667 32.667 89 50c47.333 13.333 77.333 20 90 20c40 0 89.667 -63.667 149 -191l23 -51l31 -66l7 -13c18.667 -38 32 -57 40 -57c3.33301 0 21.333 19 54 57c36 42 65.833 79.167 89.5 111.5s41.5 60.166 53.5 83.499v21
c0.666992 12.667 5 23 13 31c2.66699 2.66699 5.33398 5.5 8.00098 8.5s5.33398 6.16699 8.00098 9.5c2.66699 2.66699 5.16699 5.5 7.5 8.5s4.5 5.5 6.5 7.5c18 16 33 24 45 24c18.667 0 34.334 -8 47.001 -24l19 -35c7.33301 -13.333 16 -30.833 26 -52.5l35 -77.5l35 -81
c10 -22 18.667 -39.667 26 -53c2 -4 6.66699 -6 14 -6c16.667 0 55 36.667 115 110c28 34 50.667 63.167 68 87.5s29.666 44.166 36.999 59.499c0.666992 6.66699 2.5 15.5 5.5 26.5s7.16699 23.5 12.5 37.5c1.33301 3.33301 6 6 14 8l32 8c16 2.66699 28.333 4.66699 37 6
s14.334 2 17.001 2c4.66699 0 10 -0.833008 16 -2.5s11.5 -4 16.5 -7s9.16699 -6.66699 12.5 -11s5 -9.16602 5 -14.499c0 -10 -27 -43.333 -81 -100z" />
    <glyph glyph-name="x" unicode="x" horiz-adv-x="733" 
d="M598 17c-2.66699 -1.33301 -5.8291 -2.99805 -9.49609 -4.99805s-8.16699 -4.33301 -13.5 -7h1c-15.333 -8.66699 -41.666 -13 -78.999 -13c-6.66699 -0.666992 -14 -0.833984 -22 -0.500977s-17.333 0.833008 -28 1.5c-13.333 0 -24.833 2.33301 -34.5 7
s-18.834 11.667 -27.501 21l-22.5 26.5l-12.5 15.5l-16.5 24.5c-5 7.66699 -9.5 15.167 -13.5 22.5l1 -1l-24 37.5l-36 57.5c-23.333 -28.667 -42 -53.334 -56 -74.001s-24.333 -37 -31 -49c-0.666992 -8 -2.33398 -17 -5.00098 -27s-6.33398 -21.667 -11.001 -35
c-3.33301 -4 -19.333 -9.33301 -48 -16c-31.333 -6 -48.666 -9 -51.999 -9c-32.667 0 -49 10.333 -49 31c0 5.33301 7.5 16.833 22.5 34.5s34.5 38.834 58.5 63.501c3.33301 4.66699 8 10.834 14 18.501s12.667 15.5 20 23.5l23 24l34.5 34l43.5 44l-41 74.5
c-10.667 19 -19 32.833 -25 41.5c-14 23.333 -27.5 44.833 -40.5 64.5s-25.167 37.167 -36.5 52.5c-8.66699 10.667 -15.667 17 -21 19l2 -1c-3.33301 0.666992 -6.83301 1 -10.5 1h-11.5c-3.33301 0 -6.83301 0.166992 -10.5 0.5s-7.5 0.5 -11.5 0.5
c-27.333 1.33301 -41 9 -41 23c0 16.667 28.667 33 86 49c22 7.33301 40.333 12.5 55 15.5s24.667 4.5 30 4.5c15.333 0 31 -6.33301 47 -19s33.667 -31.667 53 -57c12.667 -16.667 26.167 -37 40.5 -61l49.5 -84c25.333 32 44.833 57.667 58.5 77s23.5 35.666 29.5 48.999
c0.666992 7.33301 2.5 16 5.5 26s6.83301 21.333 11.5 34c3.33301 5.33301 19 11 47 17c30.667 6 48.334 9 53.001 9c32 0 48 -10 48 -30c0 -10.667 -26.333 -43.334 -79 -98.001l-3 -3.5l-7.5 -9l-10 -12l-9.5 -11.5c-1.33301 -1.33301 -2.33301 -2.5 -3 -3.5
s-1.66699 -2.16699 -3 -3.5l-42.5 -44l-60.5 -61c1.33301 -2.66699 2.33301 -4.33398 3 -5.00098c6 -12.667 11.333 -22.834 16 -30.501l13 -21.5c6 -8.66699 11.167 -16.667 15.5 -24s7.16602 -13 8.49902 -17c2 -4 5.16699 -9.16699 9.5 -15.5
s8.16602 -12.166 11.499 -17.499c1.33301 -2 2.83301 -4.66699 4.5 -8l7.5 -15c2.66699 -4 4 -7 4 -9c2.66699 -6 4.66699 -9.66699 6 -11c5.33301 -8.66699 11.166 -17 17.499 -25s12.833 -15.667 19.5 -23c1.33301 -2 2.66602 -3.83301 3.99902 -5.5
s2.66602 -3.16699 3.99902 -4.5c4 -5.33301 6.33301 -8.33301 7 -9c4.66699 -7.33301 10.334 -12.666 17.001 -15.999s13.667 -5.33301 21 -6c4.66699 0.666992 9.16699 1.16699 13.5 1.5s7.5 -0.166992 9.5 -1.5c6.66699 -1.33301 13 -5 19 -11
c13.333 -12 11.333 -24 -6 -36h-1z" />
    <glyph glyph-name="y" unicode="y" horiz-adv-x="909" 
d="M739 549c-18.667 -12 -43.0059 -45.999 -73.0059 -101.999l-85 -157l-81 -155c-1.33301 -6 -4.16602 -14.5 -8.49902 -25.5s-10.166 -24.833 -17.499 -41.5c-7.33301 -12.667 -18.333 -30.167 -33 -52.5l-58 -84.5l-28 -38l-39 -52
c-2.66699 -2.66699 -5.16699 -5.66699 -7.5 -9s-5.16602 -7 -8.49902 -11v1l-33 -39v1c-20 -24 -30 -41.667 -30 -53c-0.666992 -9.33301 2.5 -16.333 9.5 -21s14.833 -8.66699 23.5 -12c4 -1.33301 8.33301 -3.33301 13 -6c8 -5.33301 12 -11.666 12 -18.999
c0 -11.333 -6.66699 -20.666 -20 -27.999s-32.666 -12.333 -57.999 -15c-15.333 -2 -41.333 -3 -78 -3h-91c-8 0 -16.833 3.83301 -26.5 11.5s-14.5 15.167 -14.5 22.5c0 10 4.33301 20 13 30l66 71.5l67 71.5c50.667 54.667 92.334 104 125.001 148
c20 27.333 30.667 48.333 32 63c-1.33301 14 -14 43.333 -38 88h1l-23 38.5c-8 13.667 -16 28.167 -24 43.5l-51.5 108c-19.667 41.333 -43.167 88.333 -70.5 141c-3.33301 6.66699 -7.16602 13.667 -11.499 21s-9.5 14.666 -15.5 21.999c-11.333 8 -26 10 -44 6l1 1
c-1.33301 -0.666992 -3.16602 -1.16699 -5.49902 -1.5s-4.5 -0.833008 -6.5 -1.5l1 1c-1.33301 -0.666992 -2.83301 -1.33398 -4.5 -2.00098s-3.5 -1.33398 -5.5 -2.00098c-9.33301 -1.33301 -17.666 -0.333008 -24.999 3c-4 3.33301 -7.5 7.16602 -10.5 11.499
s-4.5 9.83301 -4.5 16.5c0 18.667 17.667 36 53 52c9.33301 4 19 7.66699 29 11s19.667 6.33301 29 9l24 7.5l34 11.5c3.33301 1.33301 6.16602 2 8.49902 2h8.5h13c8.66699 0 18.667 -5.33301 30 -16c17.333 -15.333 40.666 -51.666 69.999 -108.999l52 -99.5l74 -140.5
l8.5 -12c2.33301 -3.33301 4.83301 -5 7.5 -5s7 3.33301 13 10s12.833 15.667 20.5 27s16 24.666 25 39.999s18.167 32 27.5 50l31.5 63c9.66699 18.667 17.167 32.334 22.5 41.001h-1c62.667 102.667 127.667 154 195 154c39.333 0 57.333 -11 54 -33
c-1.33301 -11.333 -11 -22.333 -29 -33l-17.5 -10.5l-17.5 -10.5z" />
    <glyph glyph-name="z" unicode="z" horiz-adv-x="782" 
d="M648 598c0 -11.333 -3.33301 -20.0059 -10 -26.0059l-108 -109.5l-157 -162.5c0.666992 0.666992 -2.33301 -3.16602 -9 -11.499s-16.667 -20.166 -30 -35.499l-48 -57l-66 -79c-8.66699 -11.333 -13 -18.333 -13 -21c0 -5.33301 6.66699 -7.33301 20 -6h9
c4.66699 0 11.667 0.333008 21 1c5.33301 0.666992 9.66602 1.16699 12.999 1.5s7 0.5 11 0.5h8l208 -12h-1c12.667 0 25.167 1.16699 37.5 3.5s24.166 5.5 35.499 9.5c24.667 11.333 39.667 17 45 17s11.333 -3.16699 18 -9.5s10 -11.166 10 -14.499
c0 -9.33301 -8.16699 -20.166 -24.5 -32.499s-42.5 -25.166 -78.5 -38.499h1c-17.333 -7.33301 -33.166 -12.833 -47.499 -16.5s-27.166 -6.16699 -38.499 -7.5c-13.333 -1.33301 -25.666 -2.5 -36.999 -3.5s-22.333 -1.5 -33 -1.5c-2.66699 0 -17 1 -43 3
c-24 2 -37 3 -39 3h-281c-4.66699 0 -8 1.66699 -10 5l3 -2c1.33301 -0.666992 0.166016 0.333008 -3.50098 3s-6.83398 4.66699 -9.50098 6v14c0 3.33301 1.66699 7.16602 5 11.499l14 17.5l19.5 22.5c5 5.66699 8.5 9.83398 10.5 12.501
c40.667 52 84.667 105.167 132 159.5l146 162.5l25 27l34 36l27 27c10.667 10.667 16 18.334 16 23.001c0 10.667 -16 16 -48 16h-12.5c-4.33301 0 -9.16602 -0.333008 -14.499 -1c-26 0 -57.167 -1.5 -93.5 -4.5s-76.5 -7.16699 -120.5 -12.5
c-3.33301 -0.666992 -7.83301 -1.33398 -13.5 -2.00098s-13.167 -2.66699 -22.5 -6c-8 -1.33301 -14.667 -2.5 -20 -3.5s-9 -1.5 -11 -1.5c-14.667 0 -22 8 -22 24c0 18.667 17.333 36 52 52c12 5.33301 22.833 9.83301 32.5 13.5s18.5 6.5 26.5 8.5
c2 0.666992 8.16699 1.83398 18.5 3.50098l40.5 6.5l384 9c14.667 0 27.667 -5 39 -15z" />
    <glyph glyph-name="braceleft" unicode="{" horiz-adv-x="352" 
d="M232 -236l-8.99805 -11.0029c-8 -0.666992 -15.5 1.16602 -22.5 5.49902s-13.167 8.5 -18.5 12.5c-21.333 14.667 -39 31.5 -53 50.5s-23.667 39.5 -29 61.5c-3.33301 17.333 -6.5 37 -9.5 59s-5.16699 46.333 -6.5 73c-1.33301 21.333 -2.5 43 -3.5 65
s-2.16699 44 -3.5 66c0 8 -0.5 18.5 -1.5 31.5l-3.5 43.5c-6 22 -33 40 -81 54c49.333 20.667 76.333 39.334 81 56.001v6c0.666992 5.33301 1.33398 13.5 2.00098 24.5s1.66699 25.833 3 44.5l2 33l2 33c0.666992 10.667 1.16699 21.667 1.5 33
s1.16602 22.666 2.49902 33.999c1.33301 25.333 3.33301 49.166 6 71.499s5.66699 42.166 9 59.499c4.66699 23.333 13.834 44 27.501 62s32.167 34.667 55.5 50l-2 -1c5.33301 4.66699 11.5 9.33398 18.5 14.001s14.833 6.33398 23.5 5.00098l9 -11l-1 -12
c-4 -9.33301 -8.66699 -17.333 -14 -24l1 2c-4 -6.66699 -7.5 -13.167 -10.5 -19.5s-5.16699 -11.833 -6.5 -16.5c0 -1.33301 -0.166992 -3.16602 -0.5 -5.49902s-0.5 -4.16602 -0.5 -5.49902c-1.33301 -16.667 -2.33301 -37 -3 -61c-1.33301 -12 -2.33301 -23.667 -3 -35
l-2 -34c-1.33301 -11.333 -2.16602 -22.666 -2.49902 -33.999s-0.833008 -22.666 -1.5 -33.999c-2.66699 -27.333 -5.5 -52.333 -8.5 -75s-6.5 -43.334 -10.5 -62.001c-8 -40 -30 -72.333 -66 -97c16 -11.333 30.167 -25.333 42.5 -42s20.166 -34.667 23.499 -54
c8 -35.333 14 -81.333 18 -138l2 -34.5c0.666992 -11 1.66699 -22.167 3 -33.5c1.33301 -12 2.16602 -23.5 2.49902 -34.5s1.16602 -22.167 2.49902 -33.5c0 -8 0.333008 -18.167 1 -30.5s1.66699 -26.166 3 -41.499c3.33301 -10.667 9 -22.667 17 -36
c3.33301 -4 7.66602 -11.333 12.999 -22z" />
    <glyph glyph-name="bar" unicode="|" horiz-adv-x="206" 
d="M73 797v-991h-82v991h82z" />
    <glyph glyph-name="braceright" unicode="}" horiz-adv-x="367" 
d="M12 -224c3.33301 5.33301 5.83105 9.83789 7.49805 13.5049s3.5 6.5 5.5 8.5l10.5 20c3 6 5.16699 11.333 6.5 16c1.33301 15.333 2.33301 29.166 3 41.499s1 22.166 1 29.499l2 34c0.666992 11.333 1.66699 23 3 35c1.33301 11.333 2.16602 22.666 2.49902 33.999
s1.16602 23 2.49902 35c2 26.667 4.5 51.667 7.5 75s6.5 44 10.5 62c4 19.333 11.667 37.333 23 54s25.333 30.667 42 42c-36.667 25.333 -58.334 57.666 -65.001 96.999c-4 18.667 -7.5 39.334 -10.5 62.001s-5.83301 47.667 -8.5 75
c-1.33301 11.333 -2.33301 22.666 -3 33.999l-2 34c-1.33301 11.333 -2.16602 22.833 -2.49902 34.5s-0.833008 23.167 -1.5 34.5c-1.33301 11.333 -2.16602 22.5 -2.49902 33.5s-0.5 20.167 -0.5 27.5c0 2 -0.166992 4 -0.5 6s-0.5 3.66699 -0.5 5
c-1.33301 4.66699 -3.5 10.167 -6.5 16.5s-6.5 12.833 -10.5 19.5l1 -2c-3.33301 4 -6.16602 7.83301 -8.49902 11.5s-4.16602 7.5 -5.49902 11.5l-1 13l9 11c8.66699 1.33301 16.5 -0.333984 23.5 -5.00098s13.167 -9.33398 18.5 -14.001l-2 1
c23.333 -15.333 41.833 -32 55.5 -50s22.834 -38.667 27.501 -62c3.33301 -17.333 6.33301 -37.166 9 -59.499s4.66699 -46.166 6 -71.499c1.33301 -21.333 2.5 -43.333 3.5 -66s2.16699 -44.667 3.5 -66c1.33301 -12 2.16602 -22.5 2.49902 -31.5
s0.833008 -16.833 1.5 -23.5c0.666992 -7.33301 1.33398 -14 2.00098 -20c6 -18.667 33 -37.667 81 -57c-48.667 -14.667 -75.667 -32.667 -81 -54l-3.5 -43.5c-1 -13 -1.5 -23.5 -1.5 -31.5c-1.33301 -22 -2.5 -44 -3.5 -66s-2.16699 -43.667 -3.5 -65
c-1.33301 -26.667 -3.5 -51 -6.5 -73s-6.16699 -41.667 -9.5 -59c-10 -44.667 -38.333 -82.334 -85 -113.001h1l-16.5 -12.5c-5.66699 -4.33301 -13.167 -5.83301 -22.5 -4.5l-10 12z" />
    <glyph glyph-name="asciitilde" unicode="~" horiz-adv-x="323" 
d="M-6 534c-1.33301 6.66699 0.167969 15.0029 4.50098 25.0029s10.333 19.667 18 29s15.834 17.5 24.501 24.5s16.667 10.5 24 10.5c14.667 0 31.667 -3 51 -9l47 -15c0 -0.666992 4.66699 -0.333984 14 0.999023c2.66699 0 5.33398 0.166992 8.00098 0.5
s4.66699 0.5 6 0.5s2.33301 0.166992 3 0.5s1.66699 0.5 3 0.5c-1.33301 0 -1 2.66699 1 8c3.33301 4.66699 7 8.66699 11 12s10.333 6.33301 19 9l2 -19c-1.33301 -17.333 -4 -30.333 -8 -39c-16.667 -32.667 -35.667 -49 -57 -49c-14.667 0 -32 2.66699 -52 8l-48 13
c-3.33301 1.33301 -7 1.66602 -11 0.999023c-0.666992 0 -1.33398 -0.166992 -2.00098 -0.5s-1.33398 -0.5 -2.00098 -0.5h1c-3.33301 -0.666992 -6.16602 -1 -8.49902 -1h-6.5c-2.66699 0 -4.33398 -0.666992 -5.00098 -2
c-1.33301 -2.66699 -2.83301 -4.83398 -4.5 -6.50098s-2.83398 -3.16699 -3.50098 -4.5c-2.66699 -2.66699 -6 -4.66699 -10 -6s-9.66699 -2 -17 -2l-2 13v-2z" />
    <glyph glyph-name="nonbreakingspace" unicode="&#xa0;" horiz-adv-x="530" 
 />
    <glyph glyph-name="exclamdown" unicode="&#xa1;" 
d="M226 453c0 -3.33301 -0.99707 -6.33496 -2.99707 -9.00195s-6.33301 -5 -13 -7c-1.33301 -0.666992 -2.33301 -1 -3 -1h-6h-3c0 -1.33301 -0.333008 -2.66602 -1 -3.99902s-1.16699 -2.5 -1.5 -3.5s-0.833008 -2.16699 -1.5 -3.5c-2 -6 -3 -11.667 -3 -17v-28
c0 -1.33301 -0.333008 -2.66602 -1 -3.99902c-1.33301 -2.66699 -2 -5 -2 -7c0 -1.33301 -0.166992 -2.16602 -0.5 -2.49902s-0.5 -0.833008 -0.5 -1.5v-2v-105c0.666992 -2.66699 1 -6.16699 1 -10.5v-9.5c0 -6 1 -23 3 -51c2.66699 -27.333 5.16699 -55 7.5 -83
s4.83301 -55.667 7.5 -83c0 -5.33301 -3.16699 -10.333 -9.5 -15s-15.5 -8.66699 -27.5 -12c-16 -4 -29.333 -6 -40 -6c-4.66699 0 -9.66699 0.5 -15 1.5s-12 2.16699 -20 3.5c-24.667 4.66699 -38 12 -40 22c-1.33301 7.33301 -1 22.5 1 45.5s5.66699 52.5 11 88.5
c0.666992 8 1.5 16.667 2.5 26s1.83301 18 2.5 26c0 5.33301 0.166992 11.166 0.5 17.499s0.5 12.166 0.5 17.499v6c0 3.33301 0.333008 7 1 11v44c0.666992 3.33301 1 5.83301 1 7.5v3.5l3 24c0 0.666992 -0.666992 3.66699 -2 9c-0.666992 2.66699 -1 5.33398 -1 8.00098
v6v85c0 5.33301 2.33301 14 7 26c4 12 16.333 18 37 18v-13c1.33301 2.66699 3.66602 5.16699 6.99902 7.5s8 3.5 14 3.5c3.33301 -0.666992 7.16602 -1 11.499 -1s9.16602 -0.333008 14.499 -1c3.33301 -0.666992 6.5 -1.16699 9.5 -1.5s5.5 -0.5 7.5 -0.5
c16.667 -1.33301 28.167 -3 34.5 -5s9.5 -8.66699 9.5 -20zM227.003 599.998c0 -49.333 -30.999 -74.001 -92.999 -74.001c-58.667 0 -88 20.333 -88 61c0 13.333 14.667 30.333 44 51c14 8.66699 25.667 15.334 35 20.001s16.666 7 21.999 7c14 0 29.667 -5.66699 47 -17
c22 -14 33 -30 33 -48z" />
    <glyph glyph-name="cent" unicode="&#xa2;" horiz-adv-x="704" 
d="M348 606c-2 2.66699 -5 4.66699 -9 6s-7.66699 2.33301 -11 3s-6 1.33398 -8 2.00098c17.333 -2.66699 28 -4.83398 32 -6.50098s2.66699 -3.16699 -4 -4.5zM264 445c-0.666992 1.33301 -0.998047 3.66797 -0.998047 7.00098c-28 -18.667 -50 -43.334 -66 -74.001
c-4.66699 -8.66699 -8.33398 -16.5 -11.001 -23.5l-9 -24.5l1 1c-6 -24 -9 -41.333 -9 -52c0 -32 7.5 -60 22.5 -84s36.833 -43.333 65.5 -58c1.33301 19.333 2.16602 40.5 2.49902 63.5s0.833008 44.167 1.5 63.5c0 6 0.166992 13.5 0.5 22.5s0.5 16.5 0.5 22.5v20
c1.33301 14 1.33301 24.667 0 32v20c0 8 0.333008 15 1 21c0 4 0.166992 9 0.5 15s0.5 11.333 0.5 16v12zM501.002 498.002c0 -10 -1.83594 -19.6729 -5.50293 -29.0059s-9 -17.666 -16 -24.999s-15.167 -13.166 -24.5 -17.499s-19.333 -6.5 -30 -6.5
c-16 0 -24 5.66699 -24 17c0 3.33301 1.5 6.83301 4.5 10.5s6.83301 7.5 11.5 11.5c4.66699 3.33301 8.83398 6.5 12.501 9.5s5.16699 4.16699 4.5 3.5v1c0 3.33301 -5.66699 8 -17 14l-15.5 4c-5 1.33301 -9.83301 2 -14.5 2c-2.66699 -1.33301 -5.66699 -2 -9 -2l-13 -2.5
c-5.33301 -1 -12.333 -2.16699 -21 -3.5l1 1c-1.33301 -0.666992 -2.83301 -1 -4.5 -1s-3.16699 -0.333008 -4.5 -1c-0.666992 0 -1.16699 -0.166992 -1.5 -0.5s-0.833008 -0.5 -1.5 -0.5c-3.33301 -6.66699 -7.66602 -10.667 -12.999 -12h12v-159v-19
c0 -7.33301 0.333008 -16 1 -26c0 -3.33301 0.166992 -6.66602 0.5 -9.99902s0.5 -7 0.5 -11c0.666992 -22 1.5 -42.667 2.5 -62s1.83301 -40 2.5 -62c12 1.33301 21.833 2.83301 29.5 4.5s14.5 3.5 20.5 5.5h-1c2.66699 1.33301 5.33398 2.5 8.00098 3.5s5 2.16699 7 3.5
c2.66699 1.33301 5.16699 2.5 7.5 3.5l8.5 3.5c9.33301 4.66699 17 7.83398 23 9.50098s10.333 2.5 13 2.5c16.667 0 25 -7 25 -21c0 -11.333 -13.667 -24.333 -41 -39c-17.333 -8.66699 -34.5 -16.167 -51.5 -22.5s-32.5 -11.166 -46.5 -14.499
c0 -4 0.166992 -8.16699 0.5 -12.5s0.5 -8.16602 0.5 -11.499c0 -5.33301 -1.66699 -10.333 -5 -15s-7.33301 -8.83398 -12 -12.501s-9.66699 -6.5 -15 -8.5s-9.66602 -3 -12.999 -3c-4 0 -11 2 -21 6c-14 6.66699 -21.667 15.334 -23 26.001c0 1.33301 -0.166992 4 -0.5 8
s-0.166016 8.66699 0.500977 14c-12.667 0 -29.334 2.33301 -50.001 7c-24 5.33301 -46 13.666 -66 24.999s-36.667 24.333 -50 39c-3.33301 5.33301 -6.83301 11.833 -10.5 19.5s-7.16699 16.834 -10.5 27.501c-6 20.667 -9 38.334 -9 53.001c0 13.333 1.33301 27.333 4 42
s7 30.667 13 48h-1c31.333 97.333 94.666 167.333 189.999 210v46c0 6.66699 1 16.667 3 30c0.666992 7.33301 3.33398 13 8.00098 17s10.667 6 18 6v-19c27.333 0 46 1 56 3c3.33301 -5.33301 5 -12.666 5 -21.999c0 -6 -1 -9.83301 -3 -11.5
s-6.66699 -3.83398 -14 -6.50098c-0.666992 0 -1.33398 -0.333008 -2.00098 -1c1.33301 -1.33301 2 -7 2 -17c13.333 3.33301 27 5.66602 41 6.99902s27.667 2 41 2c55.333 0 83 -19.667 83 -59z" />
    <glyph glyph-name="sterling" unicode="&#xa3;" horiz-adv-x="862" 
d="M381 452c-46.667 36.667 -78.3359 54.999 -95.0029 54.999c-43.333 0 -65 -61.333 -65 -184v-21l1 -6v-4h14c27.333 0 56.5 0.833008 87.5 2.5s64.5 4.16699 100.5 7.5l-26 -49c-29.333 -4 -76.666 -6 -141.999 -6h-35v-7c0 -52 -24.667 -107 -74 -165
c14.667 2 31 3 49 3c10 0 22.5 -0.5 37.5 -1.5l52.5 -3.5l52 -3.5c14.667 -1 27 -1.5 37 -1.5c16.667 0 30 8.33301 40 25l11.5 18.5c4.33301 7 8.16602 12.833 11.499 17.5c16 0 24 -4.66699 24 -14c-1.33301 -3.33301 -2.5 -6.5 -3.5 -9.5s-1.83301 -5.16699 -2.5 -6.5v1
c-13.333 -28 -25.333 -56 -36 -84v1c-6.66699 -18.667 -21 -28 -43 -28c-10 0 -23.333 0.5 -40 1.5s-35 2.5 -55 4.5l-54.5 3.5c-16.333 1 -29.166 1.5 -38.499 1.5c-28 0 -51.5 -1.66699 -70.5 -5s-34.167 -8 -45.5 -14l1 1c-5.33301 -3.33301 -9.33301 -5 -12 -5
c-12 0 -18 5.66699 -18 17c0 1.33301 1.5 4.33301 4.5 9s6.5 9.33398 10.5 14.001c12.667 16 24.167 32.833 34.5 50.5s18.5 33.834 24.5 48.501c7.33301 20 11 57.333 11 112v19h-72v50c7.33301 -1.33301 12.333 -2.16602 15 -2.49902s5.33398 -0.5 8.00098 -0.5
s5 -0.166992 7 -0.5s4.33301 -0.5 7 -0.5h34v17c0 61.333 14.667 115.333 44 162c36.667 54.667 84.334 82 143.001 82c22 0 44 -5 66 -15c5.33301 -2.66699 10.333 -4.83398 15 -6.50098s9.66699 -3.83398 15 -6.50098c2 2 4 3.66699 6 5l7 2c12 0 18 -6 18 -18
c0 -11.333 -7 -23.333 -21 -36c-3.33301 -3.33301 -7 -6.33301 -11 -9l-14 -14z" />
    <glyph glyph-name="currency" unicode="&#xa4;" horiz-adv-x="606" 
d="M304 570c-38.667 0 -71.667 -13.666 -99 -40.999c-26.667 -26.667 -40 -59.334 -40 -98.001s13.333 -72 40 -100c26 -26.667 59 -40 99 -40s72.667 13.667 98 41c27.333 27.333 41 60.333 41 99c0 39.333 -13.667 72 -41 98c-26 27.333 -58.667 41 -98 41zM83 697.001
l99 -98.998c19.333 13.333 38.833 23.333 58.5 30s40.5 10 62.5 10s43.167 -3.5 63.5 -10.5s39.833 -16.833 58.5 -29.5l50 49.5l49 49.5l47 -49l-98 -98c25.333 -36.667 38 -76.667 38 -120c0 -44 -12.667 -84.333 -38 -121l98 -98l-47 -49l-99 100
c-35.333 -26 -76 -39 -122 -39c-22 0 -43.333 3.16699 -64 9.5s-39.667 16.166 -57 29.499l-99 -100l-47 49l99 98c-12.667 18.667 -22.334 38.167 -29.001 58.5s-10 41.166 -10 62.499s3.33301 42 10 62s16.334 39.333 29.001 58l-49.5 49l-49.5 49z" />
    <glyph glyph-name="yen" unicode="&#xa5;" horiz-adv-x="716" 
d="M391 39l1 -1zM518 372l-0.00585938 -43.999h-126c-7.33301 -10 -13.5 -18.833 -18.5 -26.5s-11.5 -18.167 -19.5 -31.5h164v-44h-180v-13c0 -42 1 -84 3 -126l1 -17c0.666992 -16 13.334 -25.667 38.001 -29c0.666992 0 1.83398 -0.166992 3.50098 -0.5
s4.83398 -1.16602 9.50098 -2.49902h-1h3c15.333 -5.33301 23 -12.666 23 -21.999c0 -13.333 -6 -20 -18 -20h-4.5c-2.33301 0 -4.83301 0.333008 -7.5 1h1c-30 4 -61.667 6 -95 6c-5.33301 0 -12.666 -0.166992 -21.999 -0.5s-19.333 -1.16602 -30 -2.49902
c-11.333 -1.33301 -21.666 -2.33301 -30.999 -3s-16.666 -1 -21.999 -1c-11.333 0 -17 6 -17 18c0 9.33301 9.66699 16 29 20l29 6c8.66699 4 14.334 12.667 17.001 26v-1c0.666992 3.33301 1.16699 8.66602 1.5 15.999s0.5 16.333 0.5 27v56
c0 9.33301 -0.166992 19 -0.5 29s-0.833008 21 -1.5 33h-181v44h157c-6 8.66699 -12.667 17.667 -20 27s-15 19.666 -23 30.999h-114v44h80c-3.33301 4.66699 -7.66602 10.334 -12.999 17.001c-4.66699 5.33301 -9 10.666 -13 15.999l-12 16v-1
c-23.333 28 -38 42.333 -44 43c-4.66699 1.33301 -10.334 2.83301 -17.001 4.5l-18 4.5c-10.667 2.66699 -16 8.66699 -16 18c0 14 7.66699 21 23 21c6.66699 0 14.167 -0.333008 22.5 -1s18.166 -1.66699 29.499 -3c22.667 -2 39.667 -3 51 -3c9.33301 0 24.666 1 45.999 3
c10 1.33301 19 2.33301 27 3s14.667 1 20 1c9.33301 0 14 -6.66699 14 -20c0 -8 -11 -15 -33 -21c-13.333 -4 -20 -8 -20 -12c0 -6.66699 9.5 -24 28.5 -52s46.5 -66 82.5 -114l3 -3c0 -0.666992 1.66699 -3.33398 5 -8.00098c63.333 102.667 95 159.334 95 170.001
c0 8.66699 -8.66699 15.334 -26 20.001c-13.333 3.33301 -23.333 7.16602 -30 11.499s-10 8.16602 -10 11.499c0 11.333 6.33301 17 19 17c2 0 4 -0.333008 6 -1c0.666992 0 1.66699 -0.166992 3 -0.5s2.66602 -0.5 3.99902 -0.5c12.667 -1.33301 24.834 -2.5 36.501 -3.5
s23.167 -1.5 34.5 -1.5c8.66699 0 22 1 40 3c10 1.33301 18.833 2.33301 26.5 3s14.167 1 19.5 1c11.333 0 17 -6.33301 17 -19c0 -8.66699 -9.66699 -15.334 -29 -20.001c-14.667 -2.66699 -23.667 -5 -27 -7c-7.33301 -6.66699 -17.166 -17.667 -29.499 -33
s-26.5 -35.333 -42.5 -60h99z" />
    <glyph glyph-name="brokenbar" unicode="&#xa6;" horiz-adv-x="206" 
d="M-9 797h81v-430h-81v430zM-9 236h81v-430h-81v430z" />
    <glyph glyph-name="section" unicode="&#xa7;" horiz-adv-x="494" 
d="M133 352c-21.333 -20 -32 -42.667 -32 -68c0 -41.333 46.333 -111.666 139 -210.999c2 -2.66699 5 -6 9 -10l15 -15c4.66699 -4.66699 10.667 -11 18 -19c8.66699 7.33301 14.667 15.666 18 24.999s5 20.333 5 33c0 21.333 -11.333 50.833 -34 88.5
s-57.667 84.167 -105 139.5v-1zM330 476c-8.66699 4.66699 -15.334 7.33203 -20.001 7.99902c-39.333 33.333 -72.666 50.333 -99.999 51c-36.667 0.666992 -55 -12.666 -55 -39.999c0 -33.333 27.333 -79.666 82 -138.999l28 -30c34 -38 60.5 -74.667 79.5 -110
s28.5 -67.666 28.5 -96.999c0 -46 -23.333 -86.667 -70 -122c12 -19.333 20.667 -37.333 26 -54s8 -33.334 8 -50.001c0 -45.333 -17.333 -85 -52 -119c-34 -34.667 -73.667 -52 -119 -52c-40.667 0 -80 15 -118 45l32 103c64.667 -40 103 -60 115 -60
c26.667 0 44 2.66699 52 8c10.667 6 16 21.333 16 46c0 44.667 -31 101 -93 169c-0.666992 2 -2.66699 3.66699 -6 5c-80.667 86.667 -121 158 -121 214c0 47.333 22.333 91.333 67 132c-10 17.333 -17 32.833 -21 46.5s-6 27.167 -6 40.5c0 42 17 78 51 108v-1
c31.333 30.667 68.666 46 111.999 46c4.66699 0 11.334 -1.33301 20.001 -4s18.334 -6.33398 29.001 -11.001l30 -14.5c11.333 -5.66699 21.666 -10.5 30.999 -14.5z" />
    <glyph glyph-name="dieresis" unicode="&#xa8;" horiz-adv-x="862" 
d="M267 549c16 0 29.167 -5.33301 39.5 -16s15.5 -24 15.5 -40c0 -16.667 -5 -30.167 -15 -40.5s-23.333 -15.5 -40 -15.5s-30.5 5.16699 -41.5 15.5s-16.5 23.833 -16.5 40.5c0 16 5.5 29.333 16.5 40s24.833 16 41.5 16zM98 549c16 0 29.5 -5.33301 40.5 -16
s16.5 -24 16.5 -40c0 -37.333 -19 -56 -57 -56c-16 0 -29.333 5.16699 -40 15.5s-16 23.833 -16 40.5c0 14.667 5.66699 27.667 17 39s24.333 17 39 17z" />
    <glyph glyph-name="copyright" unicode="&#xa9;" horiz-adv-x="835" 
d="M488 498c0 -18 -5.50195 -34.3301 -16.502 -48.9971s-24.833 -22 -41.5 -22c-14.667 0 -22 7 -22 21l9 9c2.66699 2.66699 5.5 5.66699 8.5 9s5.16699 5.66602 6.5 6.99902s2 2.33301 2 3c0 5.33301 -4 9.5 -12 12.5s-15.333 4.5 -22 4.5l-3 -1
c-3.33301 -0.666992 -7.16602 -1.66699 -11.499 -3s-10.166 -2.66602 -17.499 -3.99902c-23.333 -6 -44.333 -16.833 -63 -32.5s-33.667 -36.167 -45 -61.5c-2 -5.33301 -4 -11.5 -6 -18.5l-7 -24.5c-5.33301 -21.333 -8 -37 -8 -47c0 -12.667 1.33301 -24.834 4 -36.501
s6.66699 -23.167 12 -34.5c11.333 -26 28.333 -45 51 -57h-1c14.667 -6.66699 24.667 -10 30 -10h2c0.666992 0 3 -0.666992 7 -2l-1 1c6.66699 -1.33301 10.667 -2 12 -2c16.667 0 31.667 3.33301 45 10l24 12h-1c6.66699 4 12.5 6.83301 17.5 8.5s8.83301 2.5 11.5 2.5
c14 0 21 -6.66699 21 -20c0 -10 -10.667 -21.667 -32 -35c-29.333 -18.667 -56.333 -30.334 -81 -35.001s-43 -7 -55 -7c-13.333 0 -28 2.33301 -44 7h1c-40.667 10.667 -70.334 29.667 -89.001 57c-14 22.667 -21 52.667 -21 90c0 13.333 0.833008 26.666 2.5 39.999
s4.5 27.333 8.5 42c10 34.667 24.333 66.5 43 95.5s41.667 53.5 69 73.5c46.667 34 96.334 51 149.001 51c42.667 0 64 -18 64 -54zM611.998 327.003c-33.333 126.667 -98.333 211.663 -195 254.996c-27.333 12.667 -58.666 19 -93.999 19c-30 0 -57.5 -4.33301 -82.5 -13
s-47.167 -21 -66.5 -37c-15.333 -13.333 -30.833 -31 -46.5 -53s-30.5 -47.667 -44.5 -77c-3.33301 -8 -5 -13.333 -5 -16c-0.666992 -2.66699 -1 -7.66699 -1 -15c0 -3.33301 -0.166992 -6.83301 -0.5 -10.5s-0.5 -7.16699 -0.5 -10.5
c-0.666992 -2.66699 -1 -5.33398 -1 -8.00098s-0.333008 -5 -1 -7v1c-0.666992 -4.66699 -1.16699 -8.83398 -1.5 -12.501s-0.5 -7.16699 -0.5 -10.5c0.666992 -17.333 3.66699 -34.666 9 -51.999c1.33301 -5.33301 2.66602 -9.66602 3.99902 -12.999l-1 3
c0 -1.33301 0.333008 -2.66602 1 -3.99902c0 -1.33301 0.666992 -3.33301 2 -6c8.66699 -32 23 -62.5 43 -91.5s45 -55.167 75 -78.5c28 -19.333 56.667 -34.666 86 -45.999s58 -17 86 -17c19.333 0 38.333 3 57 9s37.667 14.333 57 25c20 13.333 38.833 29 56.5 47
s32.5 37.667 44.5 59c13.333 22 20.333 39.667 21 53c0.666992 2.66699 1 8.33398 1 17.001v36v26c0 12.667 -0.666992 22.334 -2 29.001v-1zM679.998 184.999c-78 -132 -196.331 -197.998 -354.998 -197.998c-76 0 -139.5 16 -190.5 48s-89.5 79 -115.5 141l-3 8v-1
l-9 23.5l-11 29.5c-2 10 -3.66699 20.333 -5 31s-2 21.667 -2 33c0 17.333 1.5 35.333 4.5 54s7.33301 37.167 13 55.5s12.167 35.666 19.5 51.999s15.666 30.833 24.999 43.5c36.667 47.333 85.667 82.666 147 105.999c22.667 6.66699 50.667 13.667 84 21
c20 3.33301 38 6 54 8s30.333 3 43 3c90 0 166.667 -34 230 -102c64 -69.333 96 -147.333 96 -234c0 -10 -0.666992 -20.5 -2 -31.5s-3.33301 -22.833 -6 -35.5c-2.66699 -13.333 -5.33398 -24.5 -8.00098 -33.5s-5.66699 -16.167 -9 -21.5z" />
    <glyph glyph-name="ordfeminine" unicode="&#xaa;" horiz-adv-x="514" 
d="M202 477c0 4.66699 -10.666 27.3311 -31.999 67.998c-3.33301 4 -6 7.5 -8 10.5s-2.66699 4.83301 -2 5.5c-4 -3.33301 -9.16699 -8.66602 -15.5 -15.999l-21.5 -25c-2 -2.66699 -3.83301 -5 -5.5 -7s-2.83398 -3.66699 -3.50098 -5l-5 -5c-2 -2 -3 -3.66699 -3 -5
c-1.33301 -2 -2.66602 -3.83301 -3.99902 -5.5s-2.66602 -3.16699 -3.99902 -4.5v1c-7.33301 -12.667 -11 -20.667 -11 -24c0 -5.33301 3.83301 -10.166 11.5 -14.499s14.5 -6.5 20.5 -6.5c11.333 0 25 3 41 9c3.33301 1.33301 7.66602 3.5 12.999 6.5
s11.666 7.16699 18.999 12.5c6.66699 4 10 5.66699 10 5zM367.001 398.997l-4.99902 -5.00098c-2 -2 -4.66699 -3.66699 -8 -5h-85c-7.33301 1.33301 -16.333 8 -27 20l1 -1c0.666992 -0.666992 -0.333008 0.666016 -3 3.99902s-4.66699 6.33301 -6 9
c-2.66699 3.33301 -5.33398 6.5 -8.00098 9.5s-4 5.16699 -4 6.5c-5.33301 -1.33301 -19.333 -9.33301 -42 -24c-12.667 -7.33301 -25.667 -13.166 -39 -17.499s-27.666 -6.5 -42.999 -6.5c-22.667 0 -41 2 -55 6c-4.66699 1.33301 -9.66699 3.83301 -15 7.5
s-10.166 7.66699 -14.499 12s-8 9 -11 14s-4.5 9.5 -4.5 13.5s5.66699 13.5 17 28.5l49 64.5l12.5 13l16.5 18c0 0.666992 0.333008 1.33398 1 2.00098s1.33398 1.5 2.00098 2.5s1.66699 2.16699 3 3.5h-1l13.5 13.5c5.66699 5.66699 12.167 13.167 19.5 22.5v1
c0 12 -12.667 32 -38 60c-0.666992 0 -1 0.333008 -1 1c-10.667 0 -26.334 4.33301 -47.001 13v17c8 5.33301 14.667 8 20 8l29 2h9c2.66699 0.666992 5.16699 1 7.5 1h4.5h5c2.66699 0 5.33398 -0.333008 8.00098 -1h7c17.333 0 34 -8 50 -24s32.333 -39 49 -69
c5.33301 -8.66699 13.166 -23.167 23.499 -43.5s25.166 -51.5 44.499 -93.5c15.333 -32 29.666 -50.667 42.999 -56c6.66699 -2.66699 14 -7 22 -13v-14z" />
    <glyph glyph-name="guillemotleft" unicode="&#xab;" horiz-adv-x="494" 
d="M263 424c-15.333 -44 -63.665 -97.998 -144.998 -161.998c28.667 -15.333 55.667 -39 81 -71c26 -35.333 44 -73 54 -113l-92 12c-4.66699 34.667 -23.667 69 -57 103c-34 35.333 -73 58.333 -117 69l23 18c10 8 17.667 13.667 23 17c11.333 9.33301 23 18.166 35 26.499
s24 17.166 36 26.499c19.333 16 36.166 33 50.499 51s25.166 35.667 32.499 53l70 -17zM427.001 424.002c-16.667 -44.667 -65.665 -98.666 -146.998 -161.999c29.333 -14.667 57 -38.334 83 -71.001c25.333 -34 43 -71.667 53 -113l-91 12c-4.66699 34 -24 68.333 -58 103
c-34 35.333 -72.667 58.333 -116 69c4.66699 4 12.167 10 22.5 18s17.833 13.667 22.5 17l35.5 26.5l35.5 26.5c19.333 16 36.166 33 50.499 51s25.166 35.667 32.499 53l70 -17z" />
    <glyph glyph-name="logicalnot" unicode="&#xac;" horiz-adv-x="716" 
d="M-2 427h589v-258h-74v183h-515v75z" />
    <glyph glyph-name="registered" unicode="&#xae;" horiz-adv-x="835" 
d="M612 327c-18.667 72 -48.333 131.328 -89 177.995c8.66699 -17.333 13 -36.666 13 -57.999c0 -14 -2.83301 -28 -8.5 -42s-13.5 -28.333 -23.5 -43c-14 -18.667 -33 -39 -57 -61c-18 -15.333 -27 -22.666 -27 -21.999c0 -4 15.333 -22.667 46 -56l38.5 -41
c10.333 -11.333 19.5 -20.666 27.5 -27.999c0 -0.666992 1 -1 3 -1h5c5.33301 -0.666992 11.333 -2 18 -4s12 -5 16 -9l9 13l9 14c13.333 22 20.333 39.667 21 53c0.666992 2.66699 1 8.33398 1 17.001v36v26c0 12.667 -0.666992 22.334 -2 29.001v-1zM229.001 86.9951
l-12 0.00195312c-4 0 -7.66699 0.666992 -11 2c28 -19.333 56.5 -34.5 85.5 -45.5s57.5 -16.5 85.5 -16.5c19.333 0 38.333 3 57 9s37.667 14.333 57 25c10 6.66699 19.833 13.834 29.5 21.501s18.834 16.167 27.501 25.5l-6 -2c-2 -0.666992 -3.66699 -1.33398 -5 -2.00098
c-24 -10 -41.333 -15 -52 -15c-18.667 0 -50.667 25.667 -96 77c-43.333 49.333 -65 79.333 -65 90c0 9.33301 13.333 24 40 44l39.5 34.5c11 9.66699 19.167 17.167 24.5 22.5c22 22 33 42 33 60c0.666992 11.333 -3 24.666 -11 39.999
c-10 15.333 -19.333 22.666 -28 21.999c-24.667 -1.33301 -52.334 -20.333 -83.001 -57c-31.333 -35.333 -47 -64.666 -47 -87.999v-150c1.33301 -6.66699 2 -10.334 2 -11.001v-53c0 -22 -21.667 -33 -65 -33zM463.001 547.997
c2.66699 0 5.00293 -0.168945 7.00293 -0.501953s4.33301 -0.833008 7 -1.5c-19.333 15.333 -39.333 27.333 -60 36c-27.333 12.667 -58.666 19 -93.999 19c-30 0 -57.5 -4.33301 -82.5 -13s-47.167 -21 -66.5 -37c-15.333 -13.333 -30.833 -31 -46.5 -53
s-30.5 -47.667 -44.5 -77c-3.33301 -8 -5 -13.333 -5 -16c-0.666992 -2.66699 -1 -7.66699 -1 -15c0 -3.33301 -0.166992 -6.83301 -0.5 -10.5s-0.5 -7.16699 -0.5 -10.5c-0.666992 -2.66699 -1 -5.33398 -1 -8.00098s-0.333008 -5 -1 -7v1
c-0.666992 -4.66699 -1.16699 -8.83398 -1.5 -12.501s-0.5 -7.16699 -0.5 -10.5c0.666992 -17.333 3.66699 -34.666 9 -51.999c1.33301 -5.33301 2.66602 -9.66602 3.99902 -12.999l-1 3c0 -1.33301 0.333008 -2.66602 1 -3.99902c0 -1.33301 0.666992 -3.33301 2 -6
c7.33301 -28 19 -54.833 35 -80.5s36 -49.167 60 -70.5c1.33301 4.66699 3.33301 9 6 13c0.666992 2 1.5 4 2.5 6s1.5 3.33301 1.5 4c2 18.667 5 44.667 9 78v63c0 24.667 0.166992 49.834 0.5 75.501s0.5 50.834 0.5 75.501v63c-0.666992 10 -4.66699 16.667 -12 20h1
c-8.66699 2.66699 -15.667 5.66699 -21 9s-8.66602 6.66602 -9.99902 9.99902c6 16.667 20.667 25 44 25c1.33301 0 4.33301 -0.166992 9 -0.5s8.66699 -0.833008 12 -1.5c1.33301 -0.666992 3 -1 5 -1h2c1.33301 0 2.83301 -0.333008 4.5 -1s3.16699 -1.33398 4.5 -2.00098
l2 -1c13.333 0 22.666 -2.33301 27.999 -7c1.33301 -1.33301 2.16602 -3 2.49902 -5s1.16602 -3.66699 2.49902 -5l4 -6l7 -10c0 -2 0.166992 -4 0.5 -6s0.5 -3.66699 0.5 -5v-11l3.5 -33c1 -9.33301 1.83301 -16.666 2.5 -21.999c1.33301 3.33301 3 6.66602 5 9.99902
s4.66699 7.33301 8 12c19.333 23.333 39.666 43 60.999 59c15.333 10.667 31 18.834 47 24.501s32 8.5 48 8.5zM680.004 184.995c-78 -132 -196.331 -197.998 -354.998 -197.998c-76 0 -139.5 16 -190.5 48s-89.5 79 -115.5 141l-3 8v-1l-9 23.5l-11 29.5
c-2 10 -3.66699 20.333 -5 31s-2 21.667 -2 33c0 17.333 1.5 35.333 4.5 54s7.33301 37.167 13 55.5s12.167 35.666 19.5 51.999s15.666 30.833 24.999 43.5c36.667 47.333 85.667 82.666 147 105.999c22.667 6.66699 50.667 13.667 84 21c20 3.33301 38 6 54 8
s30.333 3 43 3c90 0 166.667 -34 230 -102c64 -69.333 96 -147.333 96 -234c0 -10 -0.666992 -20.5 -2 -31.5s-3.33301 -22.833 -6 -35.5c-2.66699 -13.333 -5.33398 -24.5 -8.00098 -33.5s-5.66699 -16.167 -9 -21.5z" />
    <glyph glyph-name="degree" unicode="&#xb0;" horiz-adv-x="514" 
d="M200 546c-6.66699 24.667 -15.167 46.499 -25.5 65.499s-21.166 31.833 -32.499 38.5c-9.33301 4.66699 -16 7 -20 7c-14.667 0 -26.667 -5.16699 -36 -15.5s-16.666 -24.5 -21.999 -42.5c0 -2 -1.33301 -5 -4 -9v-16c-0.666992 -3.33301 -1.16699 -6.33301 -1.5 -9
s-0.5 -5.33398 -0.5 -8.00098c0 -5.33301 0.333008 -9.5 1 -12.5s1.66699 -5.83301 3 -8.5v1c11.333 -30 20.666 -50 27.999 -60c7.33301 -9.33301 15.333 -16.666 24 -21.999s18 -8 28 -8c21.333 0 38.666 14 51.999 42c4 8.66699 6 21.334 6 38.001v19zM260 490.999
c-30 -59.333 -76.001 -89.002 -138.001 -89.002c-58 0 -99 33 -123 99l-4 11v1c0 0.666992 -0.166992 1 -0.5 1s-0.5 0.333008 -0.5 1v-1c-2 10.667 -3 21.334 -3 32.001c0 35.333 7.66699 66.333 23 93c14.667 22 33.834 38.167 57.501 48.5s47.167 15.5 70.5 15.5
c17.333 0 33.833 -4.16699 49.5 -12.5s29.5 -20.166 41.5 -35.499c11.333 -15.333 20.333 -32 27 -50s10 -36.667 10 -56c0 -25.333 -3.33301 -44.333 -10 -57v-1z" />
    <glyph glyph-name="plusminus" unicode="&#xb1;" horiz-adv-x="625" 
d="M385 99l-8.00098 -0.000976562c-6.66699 1.33301 -11.667 3 -15 5c-3.33301 1.33301 -6.66602 2.33301 -9.99902 3s-5.66602 1.33398 -6.99902 2.00098c-7.33301 -1.33301 -14.5 -2.33301 -21.5 -3s-14.833 -1.66699 -23.5 -3c-44 -5.33301 -80.167 -9.5 -108.5 -12.5
s-45.833 -4.5 -52.5 -4.5c-27.333 0 -50.333 9.66699 -69 29c-4 4 -7.16699 8.83301 -9.5 14.5s-4.16602 11.167 -5.49902 16.5l10 11c5.33301 0 9.66602 -0.833008 12.999 -2.5s7 -3.16699 11 -4.5c5.33301 -2.66699 10 -4.66699 14 -6l44 6
c42 5.33301 76.167 9.83301 102.5 13.5s43.5 5.5 51.5 5.5c28.667 0 54 -11 76 -33c3.33301 -3.33301 5.66602 -6.33301 6.99902 -9c36.667 -1.33301 39.334 -5 8.00098 -11c1.33301 -2.66699 2.66602 -4.66699 3.99902 -6zM260.999 556.999v-8.99902
c0 -3.33301 -0.833008 -6.5 -2.5 -9.5s-3.5 -5.83301 -5.5 -8.5c-3.33301 -9.33301 -5 -17.666 -5 -24.999c1.33301 -16 3 -30.167 5 -42.5s3.66699 -26.166 5 -41.499c7.33301 0.666992 13.833 1.16699 19.5 1.5s12.167 0.5 19.5 0.5c37.333 0 69 -13.333 95 -40
c3.33301 -2.66699 6.83301 -6.33398 10.5 -11.001s7.5 -10 11.5 -16l-12 -12h-7c-6.66699 -1.33301 -13 1 -19 7c-6 2 -11 3.33301 -15 4s-7.66699 1 -11 1c-15.333 -1.33301 -29.333 -2.83301 -42 -4.5s-26.667 -3.16699 -42 -4.5c0.666992 -8.66699 1.16699 -17 1.5 -25
s0.5 -15.667 0.5 -23c0 -40.667 -11.667 -71 -35 -91v1c-12 -10 -24 -15 -36 -15l-10 9c0.666992 3.33301 1.66699 6.33301 3 9s2.16602 5.33398 2.49902 8.00098s1.16602 5 2.49902 7c2 3.33301 3.83301 7 5.5 11s2.5 7.66699 2.5 11c0 2.66699 -0.833008 11.5 -2.5 26.5
s-4.16699 36.167 -7.5 63.5c-9.33301 -0.666992 -18 -1.16699 -26 -1.5s-15.667 -0.5 -23 -0.5c-40.667 0 -71 11.667 -91 35c-9.33301 11.333 -14.333 22.666 -15 33.999l10 12l10 -4c3.33301 -1.33301 6.33301 -2.33301 9 -3s5.33398 -1.66699 8.00098 -3
c6 -4 12.333 -6 19 -6c2.66699 0 11.334 0.666992 26.001 2s36 4 64 8c-0.666992 7.33301 -1.16699 14.166 -1.5 20.499s-0.5 12.5 -0.5 18.5c0 36.667 13 68.667 39 96c2.66699 4.66699 6.5 8.66699 11.5 12s10.5 6.66602 16.5 9.99902z" />
    <glyph glyph-name="twosuperior" unicode="&#xb2;" horiz-adv-x="514" 
d="M17 440c0.666992 0.666992 1 1.33301 1 2zM245 630.999c0 -14 -4.99609 -29.0029 -14.9961 -45.0029c-3.33301 -4.66699 -6.66602 -8 -9.99902 -10c-3.33301 -4.66699 -7 -9.16699 -11 -13.5s-7.66699 -8.5 -11 -12.5c-8.66699 -8 -19.334 -18.833 -32.001 -32.5
l-45 -49.5c-3.33301 -3.33301 -5.66602 -5.83301 -6.99902 -7.5s-2.33301 -2.83398 -3 -3.50098h4h6c3.33301 0 6.66602 0.333008 9.99902 1c3.33301 0 6.66602 0.166992 9.99902 0.5s5.33301 0.5 6 0.5l95 -1c9.33301 -0.666992 21.333 2.33301 36 9
c4.66699 1.33301 8 3 10 5c2 0.666992 4.16699 1.33398 6.5 2.00098s4.16602 1.33398 5.49902 2.00098c2 0.666992 3.66699 1.33398 5 2.00098c12.667 0 19 -5.66699 19 -17c0 -8 -5.33301 -15.667 -16 -23c-29.333 -22 -56.666 -34 -81.999 -36
c-6 -1.33301 -12.167 -2.16602 -18.5 -2.49902s-12.166 -0.5 -17.499 -0.5c-1.33301 0 -3.5 0.166992 -6.5 0.5s-6.16699 0.833008 -9.5 1.5c-2 0 -3.83301 0.166992 -5.5 0.5s-3.16699 0.5 -4.5 0.5h-5h-145c-1.33301 1.33301 -3 2.5 -5 3.5s-3.66699 2.16699 -5 3.5v11h19
c0 12 -0.5 19 -1.5 21s-2.16699 2.33301 -3.5 1c1.33301 2 3 4.16699 5 6.5s4 4.83301 6 7.5c12 16.667 24 32.334 36 47.001s24.667 28.334 38 41.001l36.5 38l22.5 23l6 6c1.33301 4 2.16602 8.66699 2.49902 14s-0.166992 9.66602 -1.5 12.999
c-4 5.33301 -6.66699 8.33301 -8 9c-12.667 5.33301 -27.334 5.33301 -44.001 0c-2 -2 -5 -4.33301 -9 -7v1c-5.33301 -3.33301 -14 -14.666 -26 -33.999v1c-2 -4.66699 -4 -9 -6 -13s-4.66699 -8.33301 -8 -13c-13.333 -6 -31.333 1 -54 21c-2 2 -3.16699 3.66699 -3.5 5
s-0.5 2.66602 -0.5 3.99902c0 8.66699 8 23 24 43c2 3.33301 3.83301 6.16602 5.5 8.49902s4.16699 5.16602 7.5 8.49902c8 8 14.667 13 20 15c2 1.33301 5.16699 3 9.5 5s11.166 4.66699 20.499 8c4 1.33301 8.16699 2.33301 12.5 3s9.5 1.33398 15.5 2.00098
c29.333 2 53.666 -2.33301 72.999 -13c31.333 -16 47 -36.333 47 -61z" />
    <glyph glyph-name="threesuperior" unicode="&#xb3;" horiz-adv-x="514" 
d="M250 626c4 -16 -2.66211 -30.6641 -19.9951 -43.9971c36 -15.333 54 -34.666 54 -57.999c0 -19.333 -10.167 -39.333 -30.5 -60s-50.5 -40.334 -90.5 -59.001c-14 -5.33301 -35 -8 -63 -8c-6 0 -14.333 1.33301 -25 4h2c-0.666992 0 -1.16699 0.166992 -1.5 0.5
s-0.833008 0.5 -1.5 0.5c-1.33301 0 -3.5 0.333008 -6.5 1s-7.16699 2.33398 -12.5 5.00098l-4 2c-33.333 16 -50 28.333 -50 37c0 5.33301 4.33301 14.333 13 27c10.667 16.667 20.334 25 29.001 25c2.66699 0 11.667 -5.66699 27 -17c3.33301 -3.33301 13.333 -7 30 -11
c16.667 -5.33301 28.667 -8.33301 36 -9h4.5c2.33301 0 4.16602 -0.333008 5.49902 -1h5c22.667 0 42.667 9.33301 60 28c1.33301 1.33301 2 4.66602 2 9.99902c0 14 -11 22.667 -33 26h-5c-9.33301 1.33301 -19 2.33301 -29 3l-29 2c-11.333 11.333 -17 21.666 -17 30.999
s4.5 17.833 13.5 25.5s19.5 10.5 31.5 8.5c2.66699 1.33301 4.66699 2 6 2l23 10c13.333 2.66699 19.666 7.33398 18.999 14.001c-0.666992 5.33301 -3.33398 9.66602 -8.00098 12.999h1c-11.333 6.66699 -20.833 10.5 -28.5 11.5s-14.834 1.5 -21.501 1.5
c-4 0 -10 -0.5 -18 -1.5s-17.667 -2.83301 -29 -5.5l1 1c-10 -5.33301 -15.333 -9.33301 -16 -12c0.666992 -1.33301 1.33398 -3 2.00098 -5c0.666992 -1.33301 1 -2.66602 1 -3.99902s0.333008 -2.66602 1 -3.99902l2 -4c2 -10.667 -3 -18.334 -15 -23.001
c-18 -4 -31.333 9.33301 -40 40v2c-0.666992 1.33301 -1.33398 3.16602 -2.00098 5.49902s-0.333984 4.16602 0.999023 5.49902c2 9.33301 4.16699 17.166 6.5 23.499s5.66602 11.5 9.99902 15.5s9.83301 7.33301 16.5 10s15 4.66699 25 6c18.667 3.33301 34 5 46 5
c26 0 59 -12 99 -36h-2c0.666992 -0.666992 2.33398 -2.5 5.00098 -5.5s5.16699 -6.5 7.5 -10.5s4.66602 -8.33301 6.99902 -13z" />
    <glyph glyph-name="acute" unicode="&#xb4;" 
d="M149 532c-5.33301 -33.333 -15.333 -59 -30 -77s-32.667 -29 -54 -33c-13.333 -2 -21.333 -3 -24 -3l-19 2l2 19c1.33301 3.33301 2.5 6.5 3.5 9.5s2.16699 5.5 3.5 7.5s3 7.83301 5 17.5l8 39.5v6c0 2.66699 -0.333008 4.66699 -1 6l1 -1
c-5.33301 15.333 -9 28.666 -11 39.999s-2.33301 20.666 -1 27.999c2.66699 14.667 10.667 25.834 24 33.501s27 10.5 41 8.5c36 -6 54 -31.333 54 -76c0 -4 -0.166992 -8.16699 -0.5 -12.5s-0.833008 -8.16602 -1.5 -11.499v-3z" />
    <glyph glyph-name="paragraph" unicode="&#xb6;" horiz-adv-x="862" 
d="M197 634l3 -6c4.66699 0 7.5 0.5 8.5 1.5s-1.5 4.83301 -7.5 11.5zM480 665l-60 0.000976562v-667h-66v667h-67v-667h-65v372c-1.33301 0 -2.33301 0.166992 -3 0.5s-1.66699 0.5 -3 0.5c-74 7.33301 -125.667 39 -155 95c-10 19.333 -15.667 39 -17 59
c-0.666992 9.33301 -0.833984 19.166 -0.500977 29.499s1.16602 19.5 2.49902 27.5c0.666992 4 1.83398 8.5 3.50098 13.5s3.83398 10.5 6.50098 16.5c6 16.667 14.833 31.667 26.5 45s25.167 24.833 40.5 34.5s31.833 17 49.5 22s35.5 7.5 53.5 7.5h254v-56z" />
    <glyph glyph-name="periodcentered" unicode="&#xb7;" horiz-adv-x="423" 
d="M97 321c0 20.667 8.5 38 25.5 52s37.833 21 62.5 21s45.334 -7 62.001 -21s25 -31.333 25 -52s-8.33301 -38 -25 -52s-37.334 -21 -62.001 -21s-45.5 7 -62.5 21s-25.5 31.333 -25.5 52z" />
    <glyph glyph-name="periodcentered" unicode="&#x2219;" horiz-adv-x="423" 
d="M97 321c0 20.667 8.5 38 25.5 52s37.833 21 62.5 21s45.334 -7 62.001 -21s25 -31.333 25 -52s-8.33301 -38 -25 -52s-37.334 -21 -62.001 -21s-45.5 7 -62.5 21s-25.5 31.333 -25.5 52z" />
    <glyph glyph-name="cedilla" unicode="&#xb8;" horiz-adv-x="500" 
d="M226 19h47.999v-55c3.33301 0.666992 6.5 1 9.5 1h12.5c26.667 0 48.334 -7.83301 65.001 -23.5s25 -37.167 25 -64.5c0 -30 -12.333 -53 -37 -69h1c-20.667 -13.333 -46 -20 -76 -20c-20 0 -42.333 3.33301 -67 10s-51 17 -79 31l23 51
c48.667 -25.333 86.667 -38 114 -38c29.333 0 44 12.333 44 37c0 22 -13.667 33 -41 33c-2.66699 0 -7.5 -0.333008 -14.5 -1s-16.167 -1.66699 -27.5 -3v111z" />
    <glyph glyph-name="onesuperior" unicode="&#xb9;" horiz-adv-x="407" 
d="M172 423c0 -12 -8.00293 -18.3311 -24.0029 -18.998c-3.33301 -0.666992 -7.83301 -1.16699 -13.5 -1.5s-11.834 -0.5 -18.501 -0.5c-8 -0.666992 -14.667 0.5 -20 3.5s-8.66602 5.83301 -9.99902 8.5v-14c-16.667 0 -26 4.66699 -28 14c-2 4 -3.16699 7.33301 -3.5 10
s-0.5 5 -0.5 7v57l2 12v23c-0.666992 2 -1 4.5 -1 7.5v9.5c0.666992 3.33301 1.33398 8.5 2.00098 15.5s1 16.833 1 29.5v35c0.666992 1.33301 0.833984 3.66602 0.500977 6.99902s-0.833008 6.66602 -1.5 9.99902v5c0 2.66699 -0.666992 4.66699 -2 6h-14.5
c-6.33301 0 -11.166 -0.333008 -14.499 -1c-20 0.666992 -29 8.33398 -27 23.001c2.66699 6 12.667 11.333 30 16c26.667 8 48 12 64 12c28.667 0 43 -7.66699 43 -23v-81l-1 -14v-30c-0.666992 -2.66699 -1 -26 -1 -70v-6c0.666992 -1.33301 1 -2.83301 1 -4.5v-4.5l2 -14
c0 -8.66699 0.333008 -13.334 1 -14.001h26c4 -4 6.66699 -7.33301 8 -10v-4z" />
    </font>
</defs>
</svg>
